<?xml version="1.0" encoding="utf-8"?>
<!-- Generator: Adobe Illustrator 26.0.0, SVG Export Plug-In . SVG Version: 6.00 Build 0)  -->
<svg version="1.1" id="Capa_1" xmlns="http://www.w3.org/2000/svg" xmlns:xlink="http://www.w3.org/1999/xlink" x="0px" y="0px"
	 viewBox="0 0 1500 500" style="enable-background:new 0 0 1500 500;" xml:space="preserve">
<style type="text/css">
	.st0{fill:#FFFFFF;}
	.st1{fill:#7FB8A7;}
	.st2{fill:#1D1D1B;}
	.st3{fill:#00714D;}
	.st4{fill:#6F6F6E;}
</style>
<g>
	<g>
		<g>
			<path class="st0" d="M504.24,297.85c-3.7,0-6.41-1.62-8.14-4.86c-1.39-2.65-2.08-5.89-2.08-9.71c0-9.19,2.67-22.73,8-40.64
				c0.96-3.24,1.91-6.58,2.87-10.03c2.22-8.08,3.33-14.22,3.33-18.45c0-1.85-0.44-3.3-1.32-4.35c-0.88-1.05-2.06-1.8-3.54-2.24
				c-1.48-0.45-3.14-0.67-4.99-0.67c-9.62,0.03-19.77,2.77-30.47,8.23c-10.7,5.46-19.58,12.39-26.63,20.81
				c-7.58,9.09-11.37,18.28-11.37,27.56c0,0.59-0.22,1.08-0.65,1.48c-0.43,0.4-0.96,0.6-1.57,0.6c-0.62,0-1.14-0.2-1.57-0.6
				c-0.43-0.4-0.65-0.89-0.65-1.48c0-5.18,1.12-10.23,3.35-15.14c2.23-4.92,5.29-9.57,9.18-13.96c3.88-4.39,8.32-8.42,13.32-12.07
				c4.99-3.65,10.29-6.81,15.88-9.48c5.59-2.67,11.24-4.73,16.92-6.2s11.1-2.2,16.25-2.2c2.31,0,4.39,0.32,6.24,0.95
				c1.85,0.63,3.32,1.66,4.42,3.08c1.09,1.42,1.64,3.31,1.64,5.69c0,2.62-0.32,5.58-0.97,8.88c-0.96,5.03-2.68,11.9-5.18,20.62
				c-5.36,18.53-8.04,32.32-8.04,41.38c0,1.29,0.17,2.72,0.51,4.28c0.34,1.56,0.94,2.89,1.8,4c0.86,1.11,2.05,1.67,3.56,1.67
				c3.17-0.06,6.87-2.6,11.1-7.61c4.22-5.01,8.54-11.45,12.95-19.33s8.49-16.19,12.25-24.95c3.91-9.12,7.1-17.63,9.55-25.52
				c2.45-7.89,3.75-14.01,3.91-18.36c0.03-0.65,0.25-1.19,0.67-1.64c0.42-0.45,0.95-0.67,1.59-0.67c0.68,0,1.21,0.23,1.6,0.69
				c0.38,0.46,0.58,1.02,0.58,1.67c-0.15,4.44-1.53,10.57-4.12,18.4c-2.59,7.83-5.95,16.31-10.08,25.43
				c-6.63,14.67-13.5,27.16-20.62,37.45C515.75,292.09,509.26,297.85,504.24,297.85z"/>
			<path class="st0" d="M550.89,282.59c-2.93,0-5.18-0.79-6.75-2.36s-2.36-3.73-2.36-6.47c0-1.73,0.33-3.58,0.99-5.55
				c0.66-1.97,1.6-3.82,2.8-5.55s2.64-3.14,4.3-4.23c1.67-1.09,3.51-1.64,5.55-1.64c1.73,0,3.2,0.52,4.42,1.55s1.83,2.38,1.83,4.05
				c0,2.25-0.86,4.03-2.59,5.34c-1.73,1.31-3.71,1.97-5.96,1.97c-2.47,0-4.5-0.97-6.1-2.91c-1.39,3.11-2.08,5.75-2.08,7.91
				c0,3.88,1.99,5.83,5.96,5.83c3.82,0,7.69-1.53,11.61-4.58c4.62-3.61,8.31-7.95,11.05-13.04c0.21-0.37,0.55-0.55,1.02-0.55
				c0.71,0,1.06,0.36,1.06,1.06c0,0.12-0.05,0.28-0.14,0.46c-0.89,1.63-1.87,3.19-2.91,4.67c-2.44,3.42-5.35,6.46-8.74,9.11
				C559.62,280.94,555.3,282.59,550.89,282.59z M553.11,267.57c1.76,0,3.25-0.45,4.49-1.34c1.23-0.89,1.85-2.17,1.85-3.84
				c0-0.96-0.31-1.75-0.92-2.38c-0.62-0.63-1.43-0.95-2.45-0.95c-1.79,0-3.36,0.58-4.72,1.73c-1.36,1.16-2.44,2.43-3.24,3.81
				C549.29,266.58,550.95,267.57,553.11,267.57z"/>
			<path class="st0" d="M582.98,282.59c-1.17,0-2.1-0.29-2.77-0.88c-0.68-0.58-1.16-1.34-1.43-2.27s-0.42-1.86-0.42-2.82
				c0-1.97,0.48-4.56,1.43-7.77c0.8-2.65,1.57-5.09,2.31-7.31c0.09-0.31,0.14-0.6,0.14-0.88c0-0.52-0.29-1-0.88-1.43
				c-1.08-0.71-1.8-1.7-2.17-2.96c-0.83,2.28-2.05,4.81-3.65,7.58c-0.22,0.37-0.55,0.55-1.02,0.55c-0.71,0-1.06-0.37-1.06-1.11
				c0-0.19,0.03-0.32,0.09-0.42c1.29-2.22,2.22-3.99,2.77-5.32c0.62-1.48,0.96-3.1,1.02-4.85c0-0.55,0.18-1.02,0.53-1.39
				c0.35-0.37,0.82-0.55,1.41-0.55c0.83,0,1.31,0.43,1.43,1.29c0.09,0.49,0.15,1.02,0.18,1.57c0.25,2.28,1.03,3.79,2.36,4.53
				c1.6,0.96,2.4,1.93,2.4,2.91c0,1.85-0.72,4.69-2.17,8.51c-0.55,1.48-1.04,2.91-1.46,4.3c-0.42,1.39-0.62,2.74-0.62,4.07
				c0,1.7,0.52,2.54,1.57,2.54c0.83,0,1.73-0.26,2.68-0.79c1.7-0.96,3.28-2.17,4.76-3.65c3.85-3.95,7.07-8.34,9.66-13.18
				c0.21-0.37,0.55-0.55,1.02-0.55c0.71,0,1.06,0.36,1.06,1.06c0,0.12-0.05,0.28-0.14,0.46c-2.68,5.02-6.03,9.57-10.03,13.64
				C588.64,280.9,585.63,282.59,582.98,282.59z"/>
			<path class="st0" d="M604.16,282.59c-4.96,0-7.44-2.85-7.44-8.55c0-2.96,0.72-5.94,2.17-8.95c1.45-3.01,3.45-5.51,6.01-7.51
				c2.68-2.06,5.72-3.1,9.11-3.1c0.43,0,0.82,0.13,1.18,0.39s0.53,0.67,0.53,1.22c0,0.25-0.06,0.48-0.19,0.69
				c1.45,0,2.45,0.23,3.01,0.69c0.99,0.86,1.48,2.28,1.48,4.25c0,2.84-0.99,6.23-2.96,10.17c0.55,0.09,1.09,0.14,1.62,0.14
				c1.42,0,2.95-0.38,4.6-1.13c1.65-0.75,3.24-1.9,4.79-3.42c1.54-1.53,2.74-3.06,3.61-4.6c0.21-0.37,0.55-0.55,1.02-0.55
				c0.71,0,1.06,0.36,1.06,1.06c0,0.31-0.39,1.02-1.16,2.13c-2.56,3.67-5.75,6.27-9.57,7.81c-1.39,0.55-2.81,0.83-4.25,0.83
				c-0.92,0-1.85-0.11-2.77-0.32c-0.68,1.36-1.74,2.82-3.19,4.39C610.13,281.14,607.24,282.59,604.16,282.59z M603.74,280.74
				c1.48,0,2.87-0.42,4.16-1.25c1.29-0.83,2.45-1.84,3.47-3.03c1.02-1.19,1.85-2.37,2.5-3.54c-2.53-1.67-3.79-4.38-3.79-8.14
				c0-3.14,1-5.49,3.01-7.03c-2.62,0.34-4.92,1.53-6.91,3.58c-1.99,2.05-3.54,4.44-4.65,7.17c-1.11,2.73-1.67,5.17-1.67,7.33
				C599.86,279.11,601.15,280.74,603.74,280.74z M609.29,253.6c-0.49,0-0.74-0.25-0.74-0.74c0-0.18,0.08-0.35,0.23-0.51
				c0.62-0.58,1.34-1.37,2.17-2.36c1.05-1.29,2.25-2.57,3.61-3.84c0.31-0.28,0.66-0.42,1.06-0.42c0.4,0.03,0.75,0.19,1.04,0.49
				c0.29,0.29,0.44,0.62,0.44,0.99c-0.06,0.77-1.6,2.19-4.62,4.25c-1.14,0.77-2.03,1.42-2.68,1.94
				C609.65,253.54,609.48,253.6,609.29,253.6z M614.89,271.03c1.26-2.71,1.9-5.53,1.9-8.46c0-2.22-0.43-3.33-1.29-3.33
				c-0.8,0-1.53,0.52-2.2,1.57c-0.66,1.05-0.99,2.39-0.99,4.02C612.3,267.68,613.16,269.74,614.89,271.03z"/>
			<path class="st0" d="M629.04,282.87c-0.58,0-1.05-0.18-1.39-0.53c-0.34-0.35-0.51-0.78-0.51-1.27c0-0.8,0.72-3.98,2.15-9.52
				c1.43-5.55,2.78-9.97,4.05-13.27c0.4-1.05,1.17-1.57,2.31-1.57c1.14,0,1.71,0.49,1.71,1.48c0,0.28-0.05,0.54-0.14,0.79
				c-1.36,3.64-2.59,7.29-3.7,10.96c4.75-8.75,9.63-13.13,14.66-13.13c1.11,0,1.98,0.25,2.61,0.74c0.63,0.49,1.08,1.15,1.34,1.96
				c0.26,0.82,0.39,1.69,0.39,2.61c0,2.13-0.65,5.02-1.94,8.69c-1.05,2.93-1.57,5.56-1.57,7.91c0,0.99,0.49,1.48,1.48,1.48
				c4.72,0,10.26-5.76,16.65-17.29c0.21-0.37,0.55-0.55,1.02-0.55c0.15,0,0.32,0.05,0.51,0.14c0.37,0.19,0.56,0.49,0.56,0.92
				c0,0.12-0.05,0.28-0.14,0.46c-2.59,4.84-5.49,9.06-8.69,12.67c-3.61,4.04-7.04,6.06-10.31,6.06c-2.9,0-4.35-1.7-4.35-5.09
				c0-1.2,0.14-2.43,0.42-3.68c0.28-1.25,0.58-2.52,0.92-3.81c0.34-1.29,0.65-2.6,0.95-3.93c0.29-1.32,0.44-2.65,0.44-3.98
				c0-2.04-0.43-3.05-1.29-3.05c-3.67,0-7.85,4.59-12.53,13.78c-2.16,4.25-3.31,6.98-3.47,8.18c-0.06,0.55-0.29,1-0.69,1.34
				C630.07,282.7,629.59,282.87,629.04,282.87z"/>
			<path class="st0" d="M668.89,282.59c-0.62,0-1.19-0.12-1.71-0.37c-1.97-0.92-2.96-2.74-2.96-5.46c0-4.47,1.56-10.74,4.67-18.82
				c0.34-0.92,1.03-1.39,2.08-1.39c0.65,0,1.19,0.22,1.62,0.65c0.22,0.22,0.32,0.49,0.32,0.83c0,0.15-0.05,0.35-0.14,0.6
				c-3.33,8.63-4.99,14.61-4.99,17.94c0,1.02,0.13,1.84,0.39,2.47S669.05,280,670,280c1.42,0,3.48-1.34,6.2-4.02
				c3.85-3.88,7.11-8.25,9.76-13.09c0.21-0.37,0.55-0.55,1.02-0.55c0.15,0,0.32,0.05,0.51,0.14c0.37,0.19,0.55,0.49,0.55,0.92
				c0,0.12-0.05,0.28-0.14,0.46c-2.59,4.93-5.93,9.49-10.03,13.69c-0.71,0.74-1.56,1.5-2.54,2.27
				C672.95,281.67,670.8,282.59,668.89,282.59z M672.13,254.25c-1.39,0-2.08-0.79-2.08-2.36c0-0.86,0.34-1.7,1.02-2.52
				c0.68-0.82,1.53-1.23,2.54-1.23c1.36,0,2.03,0.85,2.03,2.54c0,0.83-0.33,1.63-0.99,2.4
				C673.99,253.86,673.15,254.25,672.13,254.25z"/>
			<path class="st0" d="M691,282.82c-2.22,0-3.96-0.41-5.22-1.22s-2.18-1.91-2.75-3.28c-0.57-1.37-0.86-2.89-0.86-4.55
				c0.03-2.56,0.67-5.13,1.92-7.72c1.25-2.59,2.91-4.78,4.99-6.57s4.37-2.68,6.87-2.68c1.76,0,3.24,0.51,4.44,1.53
				s1.8,2.37,1.8,4.07c0,2-0.83,3.76-2.5,5.27c-0.22,0.19-0.45,0.28-0.69,0.28c-0.37,0-0.65-0.11-0.83-0.32
				c-0.19-0.21-0.28-0.43-0.28-0.65c0-0.4,0.11-0.69,0.32-0.88c1.17-1.05,1.76-2.28,1.76-3.7c0-0.83-0.25-1.56-0.74-2.2
				c-0.49-0.63-1.2-0.95-2.13-0.95c-1.85,0-3.67,0.84-5.46,2.52c-1.79,1.68-3.27,3.69-4.44,6.03c-1.26,2.53-1.9,4.83-1.9,6.89
				c0,3.88,2.05,5.83,6.15,5.83c3.79,0,7.64-1.53,11.56-4.58c4.62-3.61,8.31-7.95,11.05-13.04c0.21-0.37,0.57-0.55,1.06-0.55
				c0.15,0,0.31,0.03,0.46,0.09c0.4,0.15,0.6,0.46,0.6,0.92c0,0.15-0.05,0.32-0.14,0.51c-0.68,1.33-1.45,2.59-2.31,3.79
				c-2.56,3.76-5.67,7.09-9.34,9.99C699.87,281.1,695.4,282.82,691,282.82z"/>
			<path class="st0" d="M729.7,282.59c-0.59,0-1.14-0.11-1.67-0.32c-1.97-0.86-2.96-2.7-2.96-5.5c0-1.42,0.17-3.04,0.51-4.86
				c-4.29,7.12-8.37,10.68-12.25,10.68c-3.11,0-4.67-1.9-4.67-5.69c0-1.88,0.42-3.98,1.25-6.31c0.83-2.33,1.96-4.53,3.38-6.61
				c1.42-2.08,3.07-3.8,4.95-5.16s3.87-2.03,5.96-2.03c2.31,0,3.88,1.12,4.72,3.38l0.88-2.22c0.34-0.89,1.03-1.34,2.08-1.34
				c0.62,0,1.12,0.2,1.53,0.6c0.25,0.25,0.37,0.52,0.37,0.83c0,0.15-0.05,0.35-0.14,0.6c-3.36,8.82-5.04,14.8-5.04,17.94
				c0,1.02,0.14,1.84,0.42,2.47c0.28,0.63,0.89,0.95,1.85,0.95c1.42,0,3.47-1.34,6.15-4.02c3.95-3.88,7.21-8.25,9.8-13.09
				c0.19-0.37,0.52-0.55,1.02-0.55c0.71,0,1.06,0.36,1.06,1.06c0,0.12-0.05,0.28-0.14,0.46c-2.68,5.02-6.03,9.59-10.03,13.69
				c-0.74,0.74-1.6,1.5-2.59,2.27c-0.99,0.77-2.03,1.43-3.14,1.96C731.87,282.32,730.78,282.59,729.7,282.59z M713.65,280.65
				c1.45,0,2.97-0.74,4.58-2.22c3.02-2.77,5.58-6.44,7.68-11c0.86-1.91,1.29-3.39,1.29-4.44c0-2.56-0.82-3.84-2.45-3.84
				c-1.57,0-3.12,0.74-4.65,2.22c-1.53,1.48-2.91,3.29-4.14,5.43c-1.23,2.14-2.22,4.29-2.96,6.43s-1.11,3.86-1.11,5.16
				C711.9,279.9,712.48,280.65,713.65,280.65z"/>
			<path class="st0" d="M809.97,297.44c-8.2,0-13.93-2.21-17.2-6.63c-3.27-4.42-4.9-10.29-4.9-17.59c0-4.38,0.6-8.88,1.8-13.5
				c-11.93-1.76-21.02-6.04-27.28-12.85c-6.69-7.24-10.03-16.14-10.03-26.68c0-6.32,1.31-12.85,3.93-19.61
				c0.4-0.99,1.09-1.48,2.08-1.48c0.25,0,0.49,0.06,0.74,0.19c0.96,0.37,1.43,1,1.43,1.9c0,0.28-0.05,0.54-0.14,0.79
				c-2.8,7.34-4.21,14.3-4.21,20.9c0,9.06,2.8,16.66,8.39,22.8s14.17,10.02,25.73,11.65c2.56-8.48,6.04-16.21,10.45-23.21
				c5.24-8.32,11.39-15.26,18.45-20.81c8.35-6.57,16.98-9.85,25.89-9.85c2.53,0,4.83,0.43,6.91,1.29c2.08,0.86,3.74,2.15,4.97,3.86
				c1.23,1.71,1.85,3.83,1.85,6.36c0,2.25-0.28,4.48-0.83,6.7c-2.31,9.46-8.29,17.69-17.94,24.69c-4.38,3.17-8.94,5.8-13.69,7.86
				c-9.28,4.07-18.46,6.1-27.56,6.1c-1.45,0-2.9-0.05-4.35-0.14c-1.45,5.21-2.17,10.14-2.17,14.8c0,5.86,1.34,10.57,4.02,14.15
				c2.68,3.58,7.23,5.36,13.64,5.36c9.28,0,18.54-3.73,27.79-11.19c7.43-6.01,13.24-12.78,17.43-20.3c0.21-0.37,0.55-0.55,1.02-0.55
				c0.15,0,0.32,0.05,0.51,0.14c0.37,0.22,0.56,0.52,0.56,0.92c0,0.12-0.05,0.28-0.14,0.46c-4.35,7.83-10.31,14.91-17.89,21.22
				C829.43,293.35,819.68,297.44,809.97,297.44z M798.82,257.86c4.53,0,9.05-0.52,13.55-1.57c9.49-2.22,18.14-6.13,25.94-11.75
				c9.28-6.69,15.03-14.49,17.25-23.4c0.37-1.51,0.55-3.19,0.55-5.04c0-2.96-1.02-5.18-3.05-6.66s-4.35-2.22-6.94-2.22
				c-8.51,0-16.74,3.3-24.69,9.9c-6.69,5.52-12.44,12.32-17.25,20.39c-3.88,6.5-6.89,13.26-9.02,20.25
				C796.37,257.83,797.59,257.86,798.82,257.86z"/>
			<path class="st0" d="M860.64,282.59c-2.93,0-5.18-0.79-6.75-2.36s-2.36-3.73-2.36-6.47c0-1.73,0.33-3.58,0.99-5.55
				c0.66-1.97,1.6-3.82,2.8-5.55s2.64-3.14,4.3-4.23c1.67-1.09,3.51-1.64,5.55-1.64c1.73,0,3.2,0.52,4.42,1.55s1.83,2.38,1.83,4.05
				c0,2.25-0.86,4.03-2.59,5.34c-1.73,1.31-3.71,1.97-5.96,1.97c-2.47,0-4.5-0.97-6.1-2.91c-1.39,3.11-2.08,5.75-2.08,7.91
				c0,3.88,1.99,5.83,5.96,5.83c3.82,0,7.69-1.53,11.61-4.58c4.62-3.61,8.31-7.95,11.05-13.04c0.21-0.37,0.55-0.55,1.02-0.55
				c0.71,0,1.06,0.36,1.06,1.06c0,0.12-0.05,0.28-0.14,0.46c-0.89,1.63-1.87,3.19-2.91,4.67c-2.44,3.42-5.35,6.46-8.74,9.11
				C869.37,280.94,865.05,282.59,860.64,282.59z M862.86,267.57c1.76,0,3.25-0.45,4.49-1.34c1.23-0.89,1.85-2.17,1.85-3.84
				c0-0.96-0.31-1.75-0.92-2.38c-0.62-0.63-1.43-0.95-2.45-0.95c-1.79,0-3.36,0.58-4.72,1.73c-1.36,1.16-2.44,2.43-3.24,3.81
				C859.04,266.58,860.71,267.57,862.86,267.57z M865.13,253.6c-0.49,0-0.74-0.25-0.74-0.74c0-0.18,0.08-0.35,0.23-0.51
				c0.62-0.58,1.34-1.37,2.17-2.36c1.05-1.29,2.25-2.57,3.61-3.84c0.31-0.28,0.66-0.42,1.06-0.42c0.4,0.03,0.75,0.19,1.04,0.49
				c0.29,0.29,0.44,0.62,0.44,0.99c-0.06,0.77-1.6,2.19-4.62,4.25c-1.14,0.77-2.03,1.42-2.68,1.94
				C865.48,253.54,865.31,253.6,865.13,253.6z"/>
			<path class="st0" d="M887.55,283.15c-1.54,0-2.74-0.36-3.61-1.09c-0.86-0.72-1.29-1.61-1.29-2.66c0-0.89,0.35-1.81,1.06-2.75
				s1.83-1.72,3.38-2.34c1.54-0.62,3.1-1.2,4.67-1.76c-0.62-1.48-1.26-2.78-1.94-3.91c-0.68-1.12-1.27-2.32-1.78-3.58
				s-0.79-2.82-0.86-4.67l-1.94,3.47c-0.22,0.37-0.56,0.55-1.02,0.55c-0.18,0-0.34-0.03-0.46-0.09c-0.4-0.21-0.6-0.52-0.6-0.92
				c0-0.15,0.05-0.32,0.14-0.51c1.82-3.27,3.14-6.13,3.98-8.6c1.79-5.3,3.54-7.95,5.27-7.95c0.62,0,1.12,0.22,1.53,0.65
				c0.22,0.22,0.32,0.48,0.32,0.79c0,0.22-0.06,0.46-0.19,0.74c-0.92,1.94-1.65,3.79-2.17,5.55c-0.52,1.76-0.79,3.71-0.79,5.87
				c0,1.82,0.25,3.35,0.76,4.6c0.51,1.25,1.12,2.47,1.83,3.68c0.49,0.83,0.99,1.74,1.48,2.73c3.51-1.76,6.29-4.44,8.32-8.05
				c0.22-0.37,0.57-0.55,1.06-0.55c0.15,0,0.31,0.03,0.46,0.09c0.4,0.18,0.6,0.49,0.6,0.92c0,0.65-0.86,2-2.59,4.07
				c-1.94,2.34-4.32,4.19-7.12,5.55c0.12,0.49,0.18,0.99,0.18,1.48c0,1.91-0.46,3.51-1.36,4.81c-0.91,1.29-2.04,2.27-3.38,2.91
				C890.17,282.82,888.85,283.15,887.55,283.15z M886.86,280.47c3.54-0.06,5.32-1.73,5.32-4.99v-0.83l-1.02,0.32
				c-4.19,1.26-6.29,2.68-6.29,4.25C884.87,280.05,885.54,280.47,886.86,280.47z"/>
			<path class="st0" d="M893.7,317.55c-1.02,0-1.53-0.51-1.53-1.53c0-2.56,0.82-8.09,2.45-16.6c2.62-13.84,6.09-27.51,10.4-41.01
				c0.34-1.05,1.06-1.57,2.17-1.57c1.14,0,1.71,0.43,1.71,1.29c0,0.52-0.89,4.04-2.68,10.54c2.04-3.08,4.08-5.5,6.15-7.26
				c3.7-3.08,7.03-4.62,9.99-4.62c1.94,0,3.36,0.62,4.25,1.87c0.89,1.25,1.34,2.72,1.34,4.42c0,2.77-0.49,5.43-1.48,7.95
				c4.44-1.45,7.8-4.16,10.08-8.14c0.21-0.37,0.55-0.55,1.02-0.55c0.71,0,1.06,0.34,1.06,1.02c0,0.18-0.05,0.35-0.14,0.51
				c-2.96,5.18-7.43,8.46-13.41,9.85c-1.51,2.34-3.51,4.27-6.01,5.78c-2.5,1.51-5.24,2.28-8.23,2.31c-1.66,0-2.97-0.39-3.91-1.18
				c-0.94-0.79-1.41-1.9-1.41-3.35c0-1.14,0.46-2.12,1.36-2.94c0.91-0.82,2.27-1.24,4.09-1.27c4.84-0.09,8.32-0.32,10.45-0.69
				c1.63-2.93,2.45-6.03,2.45-9.29c0-0.62-0.05-1.23-0.16-1.83c-0.11-0.6-0.36-1.1-0.74-1.5c-0.39-0.4-0.99-0.6-1.83-0.6
				c-1.94,0-4.7,1.57-8.28,4.72c-1.63,1.45-3.33,3.59-5.09,6.43c-2.22,3.58-3.85,7.31-4.9,11.19c-5.12,17.23-7.67,28.76-7.67,34.59
				c0,0.43-0.15,0.79-0.44,1.06S894.14,317.55,893.7,317.55z M910.07,279.17c1.82,0,3.56-0.41,5.23-1.23
				c1.66-0.82,3.1-1.89,4.3-3.21c-0.96,0.09-3.88,0.22-8.79,0.37c-2,0.09-3.01,0.8-3.01,2.13
				C907.81,278.52,908.56,279.17,910.07,279.17z"/>
			<path class="st0" d="M942.02,282.59c-2.93,0-5.18-0.79-6.75-2.36s-2.36-3.73-2.36-6.47c0-1.73,0.33-3.58,0.99-5.55
				c0.66-1.97,1.6-3.82,2.8-5.55s2.64-3.14,4.3-4.23c1.67-1.09,3.51-1.64,5.55-1.64c1.73,0,3.2,0.52,4.42,1.55s1.83,2.38,1.83,4.05
				c0,2.25-0.86,4.03-2.59,5.34c-1.73,1.31-3.71,1.97-5.96,1.97c-2.47,0-4.5-0.97-6.1-2.91c-1.39,3.11-2.08,5.75-2.08,7.91
				c0,3.88,1.99,5.83,5.96,5.83c3.82,0,7.69-1.53,11.61-4.58c4.62-3.61,8.31-7.95,11.05-13.04c0.21-0.37,0.55-0.55,1.02-0.55
				c0.71,0,1.06,0.36,1.06,1.06c0,0.12-0.05,0.28-0.14,0.46c-0.89,1.63-1.87,3.19-2.91,4.67c-2.44,3.42-5.35,6.46-8.74,9.11
				C950.75,280.94,946.43,282.59,942.02,282.59z M944.24,267.57c1.76,0,3.25-0.45,4.49-1.34c1.23-0.89,1.85-2.17,1.85-3.84
				c0-0.96-0.31-1.75-0.92-2.38c-0.62-0.63-1.43-0.95-2.45-0.95c-1.79,0-3.36,0.58-4.72,1.73c-1.36,1.16-2.44,2.43-3.24,3.81
				C940.42,266.58,942.09,267.57,944.24,267.57z"/>
			<path class="st0" d="M982.67,282.59c-1.73,0-3.08-0.45-4.07-1.34c-1.73-1.51-2.62-3.95-2.68-7.31l-0.05-1.57
				c-4.13,6.81-8.12,10.22-11.98,10.22c-3.08,0-4.62-1.9-4.62-5.69c0-1.88,0.41-3.98,1.23-6.31c0.82-2.33,1.94-4.53,3.38-6.61
				c1.43-2.08,3.09-3.8,4.97-5.16s3.85-2.03,5.92-2.03c1.6,0,2.91,0.59,3.93,1.76c0.68-2.16,1.63-4.96,2.87-8.42
				c-2.03,0.19-4.1,0.28-6.2,0.28c-5.09,0-10.53-0.55-16.32-1.66c-7.03-1.33-12.79-3.36-17.29-6.1c-5.33-3.27-8-7.37-8-12.3
				c0-5.36,2.22-9.32,6.66-11.88c3.79-2.16,8.65-3.24,14.57-3.24c5.86,0,11.61,0.75,17.25,2.27c5.52,1.45,12.31,3.82,20.39,7.12
				c7.4-13.35,15.6-20.02,24.6-20.02c2.04,0,3.85,0.3,5.43,0.9c1.59,0.6,2.84,1.54,3.75,2.82c0.91,1.28,1.36,2.94,1.36,4.97
				c0,5.3-2.48,10.96-7.44,16.97c-1.05,1.29-2.16,2.51-3.33,3.65c2.25,0.68,4.51,1.31,6.8,1.9c6.44,1.6,12.98,2.4,19.6,2.4
				c7.86,0,14.2-2.34,19-7.03c1.79-1.73,3.24-3.74,4.37-6.03c1.12-2.3,1.69-4.65,1.69-7.05c0-4.75-1.66-8.52-4.99-11.33
				c-2.9-2.47-6.44-3.7-10.63-3.7c-2.99,0-5.47,0.59-7.44,1.76c-1.97,1.17-3.42,2.64-4.35,4.39c-0.74,1.42-1.11,2.87-1.11,4.35
				c0,1.85,0.48,3.47,1.43,4.86c1.82,2.62,4.81,3.93,8.97,3.93c0.62,0,1.14,0.21,1.57,0.62c0.43,0.42,0.65,0.9,0.65,1.46
				c0,0.59-0.22,1.09-0.65,1.5s-0.96,0.62-1.57,0.62c-5.64,0-9.57-1.79-11.79-5.36c-1.08-1.73-1.62-3.64-1.62-5.73
				c0-2.43,0.58-4.75,1.76-6.96c1.17-2.2,2.97-4.01,5.39-5.43c2.42-1.42,5.34-2.13,8.76-2.13c4.72,0,8.75,1.4,12.12,4.21
				c3.82,3.24,5.73,7.55,5.73,12.95c0,2.68-0.62,5.3-1.85,7.86c-1.23,2.56-2.85,4.79-4.86,6.71c-5.3,5.12-12.16,7.68-20.58,7.68
				c-8.82,0-18.2-1.57-28.16-4.72c-7.92,7.31-17.71,11.96-29.36,13.96c-1.11,3.05-2.11,6.07-3,9.06
				c-2.53,8.57-3.79,14.21-3.79,16.92c0,1.29,0.3,2.44,0.9,3.44c0.6,1,1.5,1.5,2.7,1.5c3.82,0,8.14-3.21,12.95-9.62
				c1.73-2.34,3.41-5.01,5.04-8c0.21-0.37,0.57-0.55,1.06-0.55c0.71,0,1.06,0.34,1.06,1.02c0,0.31-1,2.17-3.01,5.59
				c-1.48,2.53-3.85,5.41-7.12,8.65C989.26,280.93,985.93,282.59,982.67,282.59z M975.36,248.28c2.37,0,4.7-0.12,6.98-0.37
				c2.96-8.17,6.06-15.32,9.29-21.46l-3.33-1.34c-5.43-2.19-10.99-4.05-16.69-5.59c-5.46-1.45-11-2.17-16.65-2.17
				c-5.27,0-9.59,0.89-12.95,2.68c-4.04,2.13-6.06,5.56-6.06,10.31c0,4.41,2.59,8.08,7.77,11c4.32,2.44,9.83,4.25,16.55,5.46
				C965.77,247.79,970.8,248.28,975.36,248.28z M964.26,280.65c1.45,0,2.96-0.74,4.53-2.22c3.05-2.8,5.42-6.47,7.12-11
				c0.8-2.13,1.2-4.25,1.2-6.38c0-1.26-0.59-1.9-1.76-1.9c-1.57,0-3.12,0.74-4.65,2.22c-1.53,1.48-2.91,3.29-4.14,5.43
				c-1.23,2.14-2.22,4.29-2.96,6.43s-1.11,3.86-1.11,5.16C962.51,279.9,963.09,280.65,964.26,280.65z M986.69,247.27
				c10.29-2,19.02-6.15,26.17-12.44c-2.84-0.99-8.69-3.28-17.57-6.89C992.27,233.64,989.4,240.09,986.69,247.27z M1014.62,233.17
				c7.27-7.09,10.91-13.72,10.91-19.88c0-2.16-0.73-3.84-2.2-5.04c-1.46-1.2-3.29-1.8-5.48-1.8c-7.03,0-14.21,6.55-21.55,19.65
				C1004.63,229.54,1010.73,231.9,1014.62,233.17z"/>
			<path class="st0" d="M1006.11,282.59c-2.93,0-5.18-0.79-6.75-2.36s-2.36-3.73-2.36-6.47c0-1.73,0.33-3.58,0.99-5.55
				c0.66-1.97,1.6-3.82,2.8-5.55s2.64-3.14,4.3-4.23c1.67-1.09,3.51-1.64,5.55-1.64c1.73,0,3.2,0.52,4.42,1.55s1.83,2.38,1.83,4.05
				c0,2.25-0.86,4.03-2.59,5.34c-1.73,1.31-3.71,1.97-5.96,1.97c-2.47,0-4.5-0.97-6.1-2.91c-1.39,3.11-2.08,5.75-2.08,7.91
				c0,3.88,1.99,5.83,5.96,5.83c3.82,0,7.69-1.53,11.61-4.58c4.62-3.61,8.31-7.95,11.05-13.04c0.21-0.37,0.55-0.55,1.02-0.55
				c0.71,0,1.06,0.36,1.06,1.06c0,0.12-0.05,0.28-0.14,0.46c-0.89,1.63-1.87,3.19-2.91,4.67c-2.44,3.42-5.35,6.46-8.74,9.11
				C1014.83,280.94,1010.52,282.59,1006.11,282.59z M1008.33,267.57c1.76,0,3.25-0.45,4.49-1.34c1.23-0.89,1.85-2.17,1.85-3.84
				c0-0.96-0.31-1.75-0.92-2.38c-0.62-0.63-1.43-0.95-2.45-0.95c-1.79,0-3.36,0.58-4.72,1.73c-1.36,1.16-2.44,2.43-3.24,3.81
				C1004.51,266.58,1006.17,267.57,1008.33,267.57z"/>
			<path class="st0" d="M1033.02,283.15c-1.54,0-2.74-0.36-3.61-1.09c-0.86-0.72-1.29-1.61-1.29-2.66c0-0.89,0.35-1.81,1.06-2.75
				s1.83-1.72,3.38-2.34c1.54-0.62,3.1-1.2,4.67-1.76c-0.62-1.48-1.26-2.78-1.94-3.91c-0.68-1.12-1.27-2.32-1.78-3.58
				s-0.79-2.82-0.86-4.67l-1.94,3.47c-0.22,0.37-0.56,0.55-1.02,0.55c-0.18,0-0.34-0.03-0.46-0.09c-0.4-0.21-0.6-0.52-0.6-0.92
				c0-0.15,0.05-0.32,0.14-0.51c1.82-3.27,3.14-6.13,3.98-8.6c1.79-5.3,3.54-7.95,5.27-7.95c0.62,0,1.12,0.22,1.53,0.65
				c0.22,0.22,0.32,0.48,0.32,0.79c0,0.22-0.06,0.46-0.19,0.74c-0.92,1.94-1.65,3.79-2.17,5.55c-0.52,1.76-0.79,3.71-0.79,5.87
				c0,1.82,0.25,3.35,0.76,4.6c0.51,1.25,1.12,2.47,1.83,3.68c0.49,0.83,0.99,1.74,1.48,2.73c3.51-1.76,6.29-4.44,8.32-8.05
				c0.22-0.37,0.57-0.55,1.06-0.55c0.15,0,0.31,0.03,0.46,0.09c0.4,0.18,0.6,0.49,0.6,0.92c0,0.65-0.86,2-2.59,4.07
				c-1.94,2.34-4.32,4.19-7.12,5.55c0.12,0.49,0.18,0.99,0.18,1.48c0,1.91-0.46,3.51-1.36,4.81c-0.91,1.29-2.04,2.27-3.38,2.91
				C1035.63,282.82,1034.32,283.15,1033.02,283.15z M1032.33,280.47c3.54-0.06,5.32-1.73,5.32-4.99v-0.83l-1.02,0.32
				c-4.19,1.26-6.29,2.68-6.29,4.25C1030.34,280.05,1031,280.47,1032.33,280.47z"/>
			<path class="st0" d="M1205.67,282.59c-0.59,0-1.14-0.11-1.67-0.32c-1.97-0.86-2.96-2.7-2.96-5.5c0-1.42,0.17-3.04,0.51-4.86
				c-4.29,7.12-8.37,10.68-12.25,10.68c-3.11,0-4.67-1.9-4.67-5.69c0-1.88,0.42-3.98,1.25-6.31c0.83-2.33,1.96-4.53,3.38-6.61
				c1.42-2.08,3.07-3.8,4.95-5.16s3.87-2.03,5.96-2.03c2.31,0,3.88,1.12,4.72,3.38l0.88-2.22c0.34-0.89,1.03-1.34,2.08-1.34
				c0.62,0,1.12,0.2,1.53,0.6c0.25,0.25,0.37,0.52,0.37,0.83c0,0.15-0.05,0.35-0.14,0.6c-3.36,8.82-5.04,14.8-5.04,17.94
				c0,1.02,0.14,1.84,0.42,2.47c0.28,0.63,0.89,0.95,1.85,0.95c1.42,0,3.47-1.34,6.15-4.02c3.95-3.88,7.21-8.25,9.8-13.09
				c0.19-0.37,0.52-0.55,1.02-0.55c0.71,0,1.06,0.36,1.06,1.06c0,0.12-0.05,0.28-0.14,0.46c-2.68,5.02-6.03,9.59-10.03,13.69
				c-0.74,0.74-1.6,1.5-2.59,2.27c-0.99,0.77-2.03,1.43-3.14,1.96C1207.85,282.32,1206.75,282.59,1205.67,282.59z M1189.63,280.65
				c1.45,0,2.97-0.74,4.58-2.22c3.02-2.77,5.58-6.44,7.68-11c0.86-1.91,1.29-3.39,1.29-4.44c0-2.56-0.82-3.84-2.45-3.84
				c-1.57,0-3.12,0.74-4.65,2.22c-1.53,1.48-2.91,3.29-4.14,5.43c-1.23,2.14-2.22,4.29-2.96,6.43s-1.11,3.86-1.11,5.16
				C1187.87,279.9,1188.46,280.65,1189.63,280.65z"/>
			<path class="st0" d="M1232.21,282.59c-1.17,0-2.1-0.29-2.77-0.88c-0.68-0.58-1.16-1.34-1.43-2.27s-0.42-1.86-0.42-2.82
				c0-1.97,0.48-4.56,1.43-7.77c0.8-2.65,1.57-5.09,2.31-7.31c0.09-0.31,0.14-0.6,0.14-0.88c0-0.52-0.29-1-0.88-1.43
				c-1.08-0.71-1.8-1.7-2.17-2.96c-0.83,2.28-2.05,4.81-3.65,7.58c-0.22,0.37-0.55,0.55-1.02,0.55c-0.71,0-1.06-0.37-1.06-1.11
				c0-0.19,0.03-0.32,0.09-0.42c1.29-2.22,2.22-3.99,2.77-5.32c0.62-1.48,0.96-3.1,1.02-4.85c0-0.55,0.18-1.02,0.53-1.39
				c0.35-0.37,0.82-0.55,1.41-0.55c0.83,0,1.31,0.43,1.43,1.29c0.09,0.49,0.15,1.02,0.18,1.57c0.25,2.28,1.03,3.79,2.36,4.53
				c1.6,0.96,2.4,1.93,2.4,2.91c0,1.85-0.72,4.69-2.17,8.51c-0.55,1.48-1.04,2.91-1.46,4.3c-0.42,1.39-0.62,2.74-0.62,4.07
				c0,1.7,0.52,2.54,1.57,2.54c0.83,0,1.73-0.26,2.68-0.79c1.7-0.96,3.28-2.17,4.76-3.65c3.85-3.95,7.07-8.34,9.66-13.18
				c0.21-0.37,0.55-0.55,1.02-0.55c0.71,0,1.06,0.36,1.06,1.06c0,0.12-0.05,0.28-0.14,0.46c-2.68,5.02-6.03,9.57-10.03,13.64
				C1237.87,280.9,1234.87,282.59,1232.21,282.59z"/>
			<path class="st0" d="M1246.59,282.87c-0.58,0-1.05-0.18-1.39-0.53c-0.34-0.35-0.51-0.78-0.51-1.27c0-0.8,0.72-3.98,2.15-9.52
				c1.43-5.55,2.78-9.97,4.05-13.27c0.4-1.05,1.17-1.57,2.31-1.57s1.71,0.49,1.71,1.48c0,0.28-0.05,0.54-0.14,0.79
				c-1.66,4.5-2.97,8.38-3.93,11.65c4.59-9.22,8.89-13.83,12.9-13.83c2.65,0,3.98,1.77,3.98,5.32c0,1.17-0.23,2.91-0.69,5.22
				c3.85-7.03,8.06-10.54,12.62-10.54c1.05,0,1.86,0.26,2.43,0.79c0.57,0.53,0.96,1.2,1.18,2.01c0.22,0.82,0.32,1.66,0.32,2.52
				c0,1.26-0.14,2.59-0.42,3.98c-0.52,2.62-0.92,4.36-1.2,5.23c-1.02,3.36-1.53,5.86-1.53,7.49c0,1.05,0.37,1.57,1.11,1.57
				c0.89,0,1.85-0.28,2.87-0.83c4.62-2.43,9.32-7.98,14.1-16.65c0.22-0.37,0.56-0.55,1.02-0.55c0.71,0,1.06,0.36,1.06,1.06
				c0,0.16-0.05,0.31-0.14,0.46c-0.31,0.52-1.06,1.85-2.27,3.98s-3.01,4.64-5.41,7.54c-4.01,4.81-7.78,7.21-11.33,7.21
				c-1.6,0-2.73-0.51-3.38-1.53c-0.65-1.02-0.97-2.2-0.97-3.56c0-1.42,0.37-3.68,1.11-6.8c0.86-3.76,1.29-6.69,1.29-8.79
				c0-1.79-0.4-2.68-1.2-2.68c-1.97,0-4.02,1.43-6.13,4.3c-2.11,2.87-3.97,6.01-5.57,9.43c-1.6,3.42-2.44,6.04-2.5,7.86
				c-0.06,1.26-0.77,1.9-2.13,1.9c-1.2,0-1.8-0.51-1.8-1.53c0-0.74,0.55-3.44,1.66-8.11c1.11-4.67,1.67-8.15,1.67-10.43V261
				c-0.03-1.2-0.34-1.8-0.92-1.8c-2.1,0-4.84,3.22-8.23,9.66c-2.19,4.19-4.07,8.23-5.64,12.12c-0.21,0.59-0.49,1.05-0.81,1.39
				C1247.59,282.7,1247.15,282.87,1246.59,282.87z"/>
			<path class="st0" d="M1314.15,282.59c-0.59,0-1.14-0.11-1.67-0.32c-1.97-0.86-2.96-2.7-2.96-5.5c0-1.42,0.17-3.04,0.51-4.86
				c-4.29,7.12-8.37,10.68-12.25,10.68c-3.11,0-4.67-1.9-4.67-5.69c0-1.88,0.42-3.98,1.25-6.31c0.83-2.33,1.96-4.53,3.38-6.61
				c1.42-2.08,3.07-3.8,4.95-5.16s3.87-2.03,5.96-2.03c2.31,0,3.88,1.12,4.72,3.38l0.88-2.22c0.34-0.89,1.03-1.34,2.08-1.34
				c0.62,0,1.12,0.2,1.53,0.6c0.25,0.25,0.37,0.52,0.37,0.83c0,0.15-0.05,0.35-0.14,0.6c-3.36,8.82-5.04,14.8-5.04,17.94
				c0,1.02,0.14,1.84,0.42,2.47c0.28,0.63,0.89,0.95,1.85,0.95c1.42,0,3.47-1.34,6.15-4.02c3.95-3.88,7.21-8.25,9.8-13.09
				c0.19-0.37,0.52-0.55,1.02-0.55c0.71,0,1.06,0.36,1.06,1.06c0,0.12-0.05,0.28-0.14,0.46c-2.68,5.02-6.03,9.59-10.03,13.69
				c-0.74,0.74-1.6,1.5-2.59,2.27c-0.99,0.77-2.03,1.43-3.14,1.96C1316.32,282.32,1315.23,282.59,1314.15,282.59z M1298.1,280.65
				c1.45,0,2.97-0.74,4.58-2.22c3.02-2.77,5.58-6.44,7.68-11c0.86-1.91,1.29-3.39,1.29-4.44c0-2.56-0.82-3.84-2.45-3.84
				c-1.57,0-3.12,0.74-4.65,2.22c-1.53,1.48-2.91,3.29-4.14,5.43c-1.23,2.14-2.22,4.29-2.96,6.43s-1.11,3.86-1.11,5.16
				C1296.35,279.9,1296.93,280.65,1298.1,280.65z"/>
			<path class="st0" d="M1328.62,282.87c-0.58,0-1.05-0.18-1.39-0.53c-0.34-0.35-0.51-0.78-0.51-1.27c0-0.8,0.72-3.98,2.15-9.52
				c1.43-5.55,2.78-9.97,4.05-13.27c0.4-1.05,1.17-1.57,2.31-1.57c1.14,0,1.71,0.49,1.71,1.48c0,0.28-0.05,0.54-0.14,0.79
				c-1.36,3.64-2.59,7.29-3.7,10.96c4.75-8.75,9.63-13.13,14.66-13.13c1.11,0,1.98,0.25,2.61,0.74c0.63,0.49,1.08,1.15,1.34,1.96
				c0.26,0.82,0.39,1.69,0.39,2.61c0,2.13-0.65,5.02-1.94,8.69c-1.05,2.93-1.57,5.56-1.57,7.91c0,0.99,0.49,1.48,1.48,1.48
				c4.72,0,10.26-5.76,16.65-17.29c0.21-0.37,0.55-0.55,1.02-0.55c0.15,0,0.32,0.05,0.51,0.14c0.37,0.19,0.56,0.49,0.56,0.92
				c0,0.12-0.05,0.28-0.14,0.46c-2.59,4.84-5.49,9.06-8.69,12.67c-3.61,4.04-7.04,6.06-10.31,6.06c-2.9,0-4.35-1.7-4.35-5.09
				c0-1.2,0.14-2.43,0.42-3.68c0.28-1.25,0.58-2.52,0.92-3.81c0.34-1.29,0.65-2.6,0.95-3.93c0.29-1.32,0.44-2.65,0.44-3.98
				c0-2.04-0.43-3.05-1.29-3.05c-3.67,0-7.85,4.59-12.53,13.78c-2.16,4.25-3.31,6.98-3.47,8.18c-0.06,0.55-0.29,1-0.69,1.34
				C1329.65,282.7,1329.18,282.87,1328.62,282.87z"/>
			<path class="st0" d="M1356.83,337.89c-1.67,0-3.11-0.42-4.32-1.27c-1.22-0.85-2.16-1.94-2.82-3.28
				c-0.66-1.34-0.99-2.78-0.99-4.32c0-9.65,6.58-20.34,19.74-32.09c3.14-2.81,6.35-5.58,9.62-8.32c1.51-1.23,2.99-2.48,4.44-3.75
				c1.39-6.63,2.36-12.85,2.91-18.68c-1.57,3.36-3.42,6.49-5.55,9.39c-3.45,4.69-6.86,7.03-10.22,7.03c-1.39,0-2.48-0.31-3.28-0.92
				c-0.8-0.62-1.36-1.43-1.69-2.45c-0.32-1.02-0.49-2.11-0.49-3.28c0-4.28,1.5-10.11,4.49-17.48c0.46-1.11,1.22-1.66,2.27-1.66
				c0.68,0,1.17,0.23,1.48,0.69c0.18,0.28,0.28,0.59,0.28,0.92c0,0.22-0.06,0.46-0.18,0.74c-0.28,0.62-1.03,2.64-2.27,6.06
				c-1.94,5.3-2.91,9.46-2.91,12.48c0,0.96,0.15,1.66,0.46,2.13c0.31,0.46,0.92,0.69,1.85,0.69c1.54,0,3.07-0.66,4.58-1.99
				c2.68-2.34,5.26-5.86,7.72-10.54c1.69-3.21,2.96-6.17,3.79-8.88c0.09-0.25,0.14-0.57,0.14-0.97s0.21-0.75,0.62-1.06
				s0.9-0.46,1.46-0.46c0.52,0,0.99,0.16,1.39,0.49c0.4,0.32,0.6,0.76,0.6,1.32c-0.12,6.57-0.96,13.93-2.5,22.1
				c7.27-6.41,12.41-12.28,15.4-17.62c0.21-0.37,0.57-0.55,1.06-0.55c0.71,0,1.06,0.34,1.06,1.02c0,0.18-0.05,0.35-0.14,0.51
				c-3.18,5.64-9.19,12.35-18.03,20.11c-0.89,4.47-1.93,8.89-3.1,13.27c-3.85,14.58-8.43,25.42-13.73,32.51
				C1365.89,335.18,1361.51,337.89,1356.83,337.89z M1356.92,334.98c1.88,0,3.7-0.71,5.46-2.13c3.24-2.68,6.33-7.18,9.29-13.5
				c4.1-8.82,7.47-19.16,10.13-31.03c-5.86,4.96-9.83,8.37-11.93,10.22c-6.1,5.49-10.7,10.6-13.78,15.35
				c-3.45,5.27-5.18,10.31-5.18,15.12c0,1.85,0.57,3.31,1.71,4.37S1355.19,334.98,1356.92,334.98z"/>
		</g>
		<path class="st0" d="M1185.49,216.96c-2.08-4.28-5.19-7.64-9.32-10.05c-4.13-2.43-9.28-3.63-15.44-3.63
			c-11.44,0-21.44,5.53-30.01,16.59c-0.12-0.39-0.48-1.29-0.51-1.38c-0.48-1.24-1.02-2.45-1.6-3.64c-1.43-2.9-3.17-5.63-5.22-8.19
			c-0.36-0.46-0.84-0.7-1.43-0.75c-0.59-0.04-1.13,0.12-1.61,0.51c-0.48,0.39-0.76,0.87-0.85,1.46c-0.09,0.58,0.05,1.1,0.42,1.56
			c2.21,2.76,3.98,5.73,5.51,8.8c0.81,1.93,1.55,3.93,1.97,6.3c-5.73,8.94-9.94,18.99-12.62,30.15c-1.57,6.54-2.36,12.32-2.36,17.33
			c0,1.6,0.13,3.13,0.37,4.56c0.25,1.43,0.68,2.62,1.29,3.56s1.51,1.41,2.68,1.41c2.07,0,4.26-2.32,6.57-6.97
			c1.76-3.55,3.36-7.69,4.81-12.44c3.02-10.02,4.53-19.4,4.53-28.16c0-3.81-0.37-7.49-1.11-11c7.89-11.16,17.64-16.74,29.22-16.74
			c4.78,0,8.83,0.96,12.16,2.86c3.76,2.2,6.57,5.24,8.44,9.14c1.87,3.9,2.8,8.43,2.8,13.58c0,7.33-1.65,14.65-4.95,21.96
			c-3.3,7.3-7.77,13.94-13.41,19.91c-5.64,5.96-12.08,10.73-19.33,14.31c-7.37,3.66-15.07,5.5-23.11,5.5
			c-6.02,0-11.44-1.2-16.28-3.63c-4.84-2.42-8.7-5.85-11.58-10.3c-2.88-4.45-4.33-9.67-4.33-15.65c0-0.34-0.12-0.64-0.37-0.88
			c-0.25-0.25-0.56-0.38-0.93-0.38c-0.34,0-0.64,0.13-0.9,0.38c-0.26,0.24-0.39,0.54-0.39,0.88c0,6.03,1.56,11.54,4.69,16.5
			c3.13,4.97,7.3,8.93,12.53,11.88c5.23,2.97,11,4.44,17.32,4.44c12.27,0,23.63-3.49,34.08-10.5c4.93-3.3,9.42-7.22,13.46-11.79
			c8.41-9.43,13.98-19.95,16.69-31.57c0.84-3.67,1.25-7.35,1.25-11.05C1188.61,226.2,1187.58,221.24,1185.49,216.96z
			 M1123.05,262.88c-3.02,9.74-5.27,14.61-6.75,14.61c-0.84,0-1.25-1.57-1.25-4.72c0-5.39,0.74-11.23,2.22-17.53
			c2.4-9.95,5.96-18.87,10.68-26.72c0.19,2.28,0.28,4.45,0.28,6.51C1128.23,242.63,1126.5,251.9,1123.05,262.88z"/>
	</g>
	<g>
		<path class="st0" d="M286.12,273.68c15.55-3.63,29.71-10.05,42.48-19.23c15.19-10.95,24.61-23.72,28.24-38.31
			c0.61-2.47,0.91-5.22,0.91-8.25c0-4.85-1.67-8.48-5-10.9s-7.12-3.63-11.36-3.63c-13.93,0-27.41,5.4-40.43,16.2
			c-10.95,9.04-20.37,20.17-28.24,33.39c-6.36,10.65-11.28,21.71-14.76,33.16c1.97,0.1,3.96,0.15,5.98,0.15
			C271.35,276.26,278.75,275.4,286.12,273.68z"/>
		<path class="st0" d="M95.04,108.68V208.9c4.27-2.54,8.64-4.89,13.15-7.03c9.16-4.37,18.4-7.75,27.71-10.15
			c9.31-2.4,18.18-3.6,26.61-3.6c3.79,0,7.19,0.52,10.22,1.55c3.03,1.03,5.44,2.71,7.23,5.04c1.79,2.32,2.69,5.43,2.69,9.31
			c0,4.29-0.53,9.14-1.59,14.54c-1.56,8.23-4.39,19.48-8.48,33.77c-8.78,30.34-13.17,52.93-13.17,67.77c0,2.12,0.28,4.45,0.83,7
			c0.56,2.55,1.54,4.73,2.95,6.55c1.41,1.82,3.36,2.73,5.83,2.73c5.2-0.1,11.26-4.25,18.17-12.45c6.92-8.2,13.98-18.75,21.2-31.65
			c4.02-7.18,7.84-14.65,11.53-22.28c-5.99-3.24-11.33-7.04-15.66-11.76c-10.95-11.86-16.43-26.42-16.43-43.69
			c0-7.94,0.39-13.86,2.49-21.16c0,0-0.01-0.04-0.01-0.04s0.69-2.65,2.17-6.35c0.09-0.25,0.14-0.45,0.24-0.7
			c0.02-0.05,0.06-0.06,0.08-0.11c1.71-4.11,4.45-9.28,8.2-13.87c9.41-11.51,23.11-15.61,36.61-12.24
			c7.62,1.91,20.07,10.72,18.51,29.3c-0.07,1.34-0.18,2.56-0.34,3.71c-0.02,0.09-0.01,0.17-0.02,0.27c-0.02,0.1-0.04,0.18-0.06,0.28
			c-0.26,1.71-0.66,3.41-1.29,5.57c-0.08,0.28-0.16,0.53-0.24,0.78c-0.74,2.47-1.74,5.49-3.17,9.8
			c-4.24,12.82-9.74,26.7-16.51,41.64c-2.74,6.06-5.5,11.89-8.29,17.49c6.83,2.97,14.7,5.15,23.77,6.43
			c4.19-13.88,9.89-26.55,17.11-38.01c8.58-13.63,18.65-24.99,30.21-34.07c13.68-10.75,27.81-16.13,42.4-16.13
			c4.14,0,7.91,0.71,11.32,2.12c3.41,1.41,6.12,3.52,8.14,6.32c2.02,2.8,3.03,6.27,3.03,10.41c0,3.68-0.45,7.34-1.36,10.98
			c-3.79,15.5-13.58,28.97-29.38,40.43c-7.17,5.2-14.64,9.49-22.41,12.87c-15.19,6.66-30.24,9.99-45.13,9.99
			c-2.37,0-4.74-0.08-7.12-0.23c-2.37,8.53-3.56,16.61-3.56,24.23c0,9.59,2.2,17.31,6.59,23.17c4.39,5.86,11.84,8.78,22.34,8.78
			c15.19,0,30.36-6.11,45.51-18.32c12.17-9.84,21.68-20.92,28.55-33.24c0.35-0.61,0.91-0.91,1.67-0.91c0.25,0,0.53,0.08,0.83,0.23
			c0.61,0.35,0.91,0.86,0.91,1.51c0,0.2-0.08,0.45-0.23,0.76c-7.12,12.82-16.88,24.41-29.3,34.75
			c-16.05,13.38-32.03,20.06-47.93,20.06c-13.43,0-22.82-3.62-28.17-10.87s-8.03-16.85-8.03-28.81c0-7.17,0.98-14.54,2.95-22.11
			c-9.24-1.36-17.35-3.72-24.51-6.93c-7.7,15.15-15.59,28.7-23.68,40.4c-13.02,18.88-23.65,28.32-31.88,28.32
			c-6.06,0-10.5-2.65-13.33-7.95c-2.27-4.34-3.41-9.64-3.41-15.9c0-15.04,4.37-37.23,13.1-66.55c1.56-5.3,3.13-10.78,4.69-16.43
			c3.63-13.23,5.45-23.3,5.45-30.21c0-3.03-0.72-5.4-2.16-7.12c-1.44-1.72-3.37-2.94-5.79-3.67c-2.42-0.73-5.15-1.1-8.18-1.1
			c-15.75,0.05-32.38,4.54-49.9,13.48c-5.04,2.57-9.77,5.41-14.32,8.38v177.33h282.65V108.68H95.04z"/>
		<path class="st0" d="M246.56,207.22c3.11-10.02,4.2-13.32,4.64-17.66c0.92-11.24-5.68-21.55-16.31-23.46
			c-15.55-2.8-29.54,7.32-36.64,26.11c-3.37,9.91-4.12,17.11-4.12,26.73c0,14.84,4.58,27.28,13.74,37.33
			c3.7,4.05,8.4,7.34,13.69,10.19c2.35-4.96,4.7-9.9,6.91-15.04C234.87,236.48,242.54,220.14,246.56,207.22z"/>
	</g>
</g>
</svg>
