<svg id="Capa_1" data-name="Capa 1" xmlns="http://www.w3.org/2000/svg" viewBox="0 0 1500 500"><defs><style>.cls-1{fill:#6f6f6e;}.cls-2{fill:#1d1d1b;}.cls-3{fill:#00714d;}</style></defs><path class="cls-1" d="M459.6,362h2.88l10,23.44H468.8l-2.35-5.79H455.29L453,385.41h-3.71Zm5.69,14.87-4.37-10.76h-.06l-4.44,10.76Z"/><path class="cls-1" d="M477.87,362H486c4.07,0,7.12,1.89,7.12,5.86,0,2.68-1.66,4.37-4,5.17v.06a5.65,5.65,0,0,1,5.06,5.83c0,4.2-3.67,6.52-8.24,6.52h-8.05Zm3.18,9.73h4.34c2.41,0,4.37-1,4.37-3.51,0-1.85-1.16-3.44-3.71-3.44h-5Zm0,10.93h4.67c1.92,0,5.07-.66,5.07-4,0-2.78-2-4.17-5-4.17h-4.7Z"/><path class="cls-1" d="M499.59,373.69A12.22,12.22,0,1,1,511.81,386,11.93,11.93,0,0,1,499.59,373.69Zm21.06,0c0-5.13-3.48-9.34-8.84-9.34s-8.84,4.21-8.84,9.34,3.47,9.34,8.84,9.34S520.65,378.82,520.65,373.69Z"/><path class="cls-1" d="M550.87,372.3v11.56A19,19,0,0,1,542,386c-8,0-12.55-5.66-12.55-12.32a11.93,11.93,0,0,1,12.22-12.32c4.3,0,6.92,1.16,8.74,3.05l-2.25,2.42a8.87,8.87,0,0,0-6.49-2.49c-5.37,0-8.84,4.21-8.84,9.34a9.05,9.05,0,0,0,9.1,9.34,12.28,12.28,0,0,0,5.76-1.23v-6.52h-5.2v-3Z"/><path class="cls-1" d="M566.33,362h2.88l10,23.44h-3.7l-2.36-5.79H562l-2.32,5.79H556Zm5.7,14.87-4.38-10.76h-.06l-4.44,10.76Z"/><path class="cls-1" d="M584.07,362h8.18c9.9,0,12.32,7.38,12.32,11.72,0,6-4.47,11.72-12.85,11.72h-7.65Zm3.18,20.46h4c5.36,0,9.93-2.94,9.93-8.74,0-3-1.56-8.74-9.17-8.74h-4.77Z"/><path class="cls-1" d="M618.8,362h2.88l10,23.44H628l-2.35-5.79H614.5l-2.32,5.79h-3.71Zm5.7,14.87-4.37-10.76h-.07l-4.44,10.76Z"/><path class="cls-1" d="M650.55,360.58v33.11H648V360.58Z"/><path class="cls-1" d="M669.78,362h15.13v3H673v7h11.12v3H673v7.51h12.55v3H669.78Z"/><path class="cls-1" d="M693,380.51a5.86,5.86,0,0,0,5,2.52c2.08,0,4.67-1.33,4.67-3.91,0-5.4-11.56-2.05-11.56-11.19,0-2.75,2.32-6.56,7.95-6.56,2.55,0,5,.53,6.75,2.68l-2.58,2.36a4.92,4.92,0,0,0-4.17-2.06c-3.51,0-4.57,2.12-4.57,3.58,0,5.93,11.55,2.38,11.55,10.83,0,4.53-3.64,7.25-8.14,7.25-3,0-5.9-1-7.48-3.25Z"/><path class="cls-1" d="M729.37,367a7.18,7.18,0,0,0-5.66-2.69c-5.26,0-8.74,4.21-8.74,9.54,0,4.93,3.28,9.14,8.74,9.14a7.22,7.22,0,0,0,6.13-3.15l2.68,2a10.92,10.92,0,0,1-8.88,4.11,12.08,12.08,0,0,1-12-12.12c0-7.29,5-12.52,12.22-12.52A10.27,10.27,0,0,1,732,365Z"/><path class="cls-1" d="M738.67,362h8.25c6,0,7.51,3.61,7.51,6.56a6.29,6.29,0,0,1-5.76,6.19l6.66,10.69h-4l-6-10.33h-3.54v10.33h-3.18Zm3.18,10.33H746c2.52,0,5-.6,5-3.77s-2.52-3.78-5-3.78h-4.17Z"/><path class="cls-1" d="M761.22,362h3.18v23.44h-3.18Z"/><path class="cls-1" d="M772.74,362h8.14c4.08,0,7.12,1.89,7.12,5.86,0,2.68-1.65,4.37-4,5.17v.06a5.65,5.65,0,0,1,5.07,5.83c0,4.2-3.68,6.52-8.25,6.52h-8Zm3.18,9.73h4.33c2.42,0,4.37-1,4.37-3.51,0-1.85-1.15-3.44-3.7-3.44h-5Zm0,10.93h4.66c1.93,0,5.07-.66,5.07-4,0-2.78-1.95-4.17-5-4.17h-4.7Z"/><path class="cls-1" d="M803.26,362h2.88l10,23.44h-3.7l-2.35-5.79H799l-2.32,5.79h-3.71Zm5.7,14.87-4.37-10.76h-.07l-4.44,10.76Z"/><path class="cls-1" d="M821.53,362h4.18l12.91,19.27h.07V362h3.17v23.44h-4l-13-19.27h-.07v19.27h-3.18Z"/><path class="cls-1" d="M857.55,362h2.88l10,23.44h-3.71l-2.35-5.79H853.25l-2.32,5.79h-3.71Zm5.7,14.87-4.37-10.76h-.07l-4.44,10.76Z"/><path class="cls-1" d="M887.35,362h8.24c6,0,7.52,3.61,7.52,6.56s-1.53,6.55-7.52,6.55h-5.06v10.33h-3.18Zm3.18,10.33h4.17c2.51,0,5-.6,5-3.77s-2.52-3.78-5-3.78h-4.17Z"/><path class="cls-1" d="M912,362v14.37c0,2.91,1.46,6.69,5.9,6.69s5.89-3.78,5.89-6.69V362H927v14.87a9.07,9.07,0,1,1-18.14,0V362Zm7.16-6.09h4.23l-4.93,4.76h-2.75Z"/><path class="cls-1" d="M934.92,362h8.14c4.08,0,7.12,1.89,7.12,5.86,0,2.68-1.65,4.37-4,5.17v.06a5.65,5.65,0,0,1,5.07,5.83c0,4.2-3.68,6.52-8.25,6.52h-8Zm3.18,9.73h4.33c2.42,0,4.38-1,4.38-3.51,0-1.85-1.16-3.44-3.71-3.44h-5Zm0,10.93h4.67c1.92,0,5.06-.66,5.06-4,0-2.78-2-4.17-5-4.17h-4.7Z"/><path class="cls-1" d="M958.09,362h3.18v20.46H972v3H958.09Z"/><path class="cls-1" d="M977.59,362h3.18v23.44h-3.18Z"/><path class="cls-1" d="M1005.43,367a7.18,7.18,0,0,0-5.66-2.69c-5.26,0-8.74,4.21-8.74,9.54,0,4.93,3.28,9.14,8.74,9.14a7.22,7.22,0,0,0,6.13-3.15l2.68,2a10.91,10.91,0,0,1-8.87,4.11,12.08,12.08,0,0,1-12.06-12.12c0-7.29,5-12.52,12.22-12.52a10.26,10.26,0,0,1,8.21,3.65Z"/><path class="cls-1" d="M1022.09,362H1025l10,23.44h-3.71l-2.35-5.79h-11.16l-2.32,5.79h-3.71Zm5.69,14.87-4.37-10.76h-.07l-4.43,10.76Z"/><path class="cls-1" d="M1053.83,360.58v33.11h-2.58V360.58Z"/><path class="cls-1" d="M1073.06,362h8.25c6,0,7.52,3.61,7.52,6.56a6.29,6.29,0,0,1-5.77,6.19l6.66,10.69h-4l-6-10.33h-3.55v10.33h-3.18Zm3.18,10.33h4.18c2.51,0,5-.6,5-3.77s-2.52-3.78-5-3.78h-4.18Z"/><path class="cls-1" d="M1095.61,362h15.13v3h-12v7h11.12v3h-11.12v7.51h12.55v3h-15.73Z"/><path class="cls-1" d="M1138.12,372.3v11.56a19,19,0,0,1-8.87,2.15c-8,0-12.55-5.66-12.55-12.32a11.93,11.93,0,0,1,12.21-12.32c4.31,0,6.92,1.16,8.75,3.05l-2.25,2.42a8.89,8.89,0,0,0-6.5-2.49c-5.36,0-8.84,4.21-8.84,9.34a9.05,9.05,0,0,0,9.11,9.34,12.28,12.28,0,0,0,5.76-1.23v-6.52h-5.2v-3Z"/><path class="cls-1" d="M1146.23,362h3.18v23.44h-3.18Z"/><path class="cls-1" d="M1158.44,380.51a5.86,5.86,0,0,0,5,2.52c2.09,0,4.67-1.33,4.67-3.91,0-5.4-11.56-2.05-11.56-11.19,0-2.75,2.32-6.56,8-6.56,2.55,0,5,.53,6.75,2.68l-2.58,2.36a4.9,4.9,0,0,0-4.17-2.06c-3.51,0-4.57,2.12-4.57,3.58,0,5.93,11.56,2.38,11.56,10.83,0,4.53-3.65,7.25-8.15,7.25-3,0-5.89-1-7.48-3.25Z"/><path class="cls-1" d="M1183.37,365h-7.55v-3h18.28v3h-7.55v20.46h-3.18Z"/><path class="cls-1" d="M1199.79,362H1208c6,0,7.51,3.61,7.51,6.56a6.29,6.29,0,0,1-5.76,6.19l6.66,10.69h-4l-6-10.33H1203v10.33h-3.18ZM1203,372.3h4.17c2.52,0,5-.6,5-3.77s-2.51-3.78-5-3.78H1203Z"/><path class="cls-1" d="M1220.88,373.69A12.22,12.22,0,1,1,1233.1,386,11.93,11.93,0,0,1,1220.88,373.69Zm21.06,0c0-5.13-3.48-9.34-8.84-9.34s-8.84,4.21-8.84,9.34,3.47,9.34,8.84,9.34S1241.94,378.82,1241.94,373.69Z"/><path class="cls-1" d="M1263.72,362h4.17l12.91,19.27h.07V362h3.18v23.44h-4l-13-19.27h-.07v19.27h-3.17Z"/><path class="cls-1" d="M1296,361.57a4.94,4.94,0,1,1-4.93,4.94A5,5,0,0,1,1296,361.57Zm0,7.68a2.75,2.75,0,1,0-2.74-2.74A2.73,2.73,0,0,0,1296,369.25Z"/><path class="cls-1" d="M1325.39,365.61l-4.3,4-1.86-2.21,6.53-5.4h2.81v23.44h-3.18Z"/><path class="cls-1" d="M1338.73,378.69a5.85,5.85,0,0,1,4.47-5.73v-.1c-1.75-.46-3.67-2.22-3.67-5.46,0-3.54,3.17-5.83,6.85-5.83s6.86,2.29,6.86,5.83c0,3.24-1.93,5-3.68,5.46v.1a5.85,5.85,0,0,1,4.47,5.73c0,4.44-3.38,7.12-7.65,7.12S1338.73,383.13,1338.73,378.69Zm12.12,0c0-2.85-2-4.3-4.47-4.34a4.31,4.31,0,0,0-4.47,4.34,4.47,4.47,0,0,0,8.94,0Zm-4.47-7.12a3.71,3.71,0,0,0,0-7.42,3.71,3.71,0,0,0,0,7.42Z"/><path class="cls-1" d="M1359.42,382l9.41-9.34c1.29-1.26,2.58-2.88,2.58-4.8a3.76,3.76,0,0,0-4-3.75,4.11,4.11,0,0,0-4.27,3.61l-3.45-.29c.63-4.14,3.71-6.1,7.75-6.1s7.39,2.19,7.39,6.49c0,3.08-2,5.3-4.08,7.32l-7.71,7.45h11.79v2.78h-15.37Z"/><path class="cls-2" d="M504.24,294.43a8.61,8.61,0,0,1-8.14-4.86,20.71,20.71,0,0,1-2.08-9.71q0-13.77,8-40.64,1.43-4.86,2.87-10,3.33-12.1,3.32-18.44a6.57,6.57,0,0,0-1.31-4.35,7.14,7.14,0,0,0-3.54-2.24,17.12,17.12,0,0,0-5-.67q-14.43,0-30.47,8.23a84.08,84.08,0,0,0-26.64,20.8q-11.37,13.65-11.37,27.56a1.94,1.94,0,0,1-.65,1.48,2.35,2.35,0,0,1-3.14,0,1.91,1.91,0,0,1-.65-1.48,36.3,36.3,0,0,1,3.35-15.14A56.25,56.25,0,0,1,438,231,83,83,0,0,1,451.3,218.9a97.56,97.56,0,0,1,15.88-9.48,93.42,93.42,0,0,1,16.92-6.2A65.43,65.43,0,0,1,500.35,201a19.31,19.31,0,0,1,6.25.94,9.17,9.17,0,0,1,4.41,3.08,9,9,0,0,1,1.64,5.69,46.22,46.22,0,0,1-1,8.87q-1.43,7.54-5.18,20.63-8,27.78-8,41.38a20.26,20.26,0,0,0,.51,4.28,9.91,9.91,0,0,0,1.8,4,4.25,4.25,0,0,0,3.56,1.66q4.77-.09,11.1-7.61a124.47,124.47,0,0,0,12.94-19.32,279.13,279.13,0,0,0,21.81-50.47q3.68-11.83,3.9-18.36a2.53,2.53,0,0,1,.67-1.64,2.08,2.08,0,0,1,1.6-.67,2,2,0,0,1,1.59.69,2.5,2.5,0,0,1,.58,1.67q-.22,6.66-4.11,18.4a260.4,260.4,0,0,1-10.08,25.43,238.38,238.38,0,0,1-20.63,37.45Q511.78,294.43,504.24,294.43Z"/><path class="cls-2" d="M550.89,279.17q-4.39,0-6.75-2.36a8.75,8.75,0,0,1-2.36-6.47,17.54,17.54,0,0,1,1-5.55,21.61,21.61,0,0,1,2.8-5.55,15.68,15.68,0,0,1,4.29-4.23,10,10,0,0,1,5.55-1.64,6.57,6.57,0,0,1,4.42,1.55,5,5,0,0,1,1.83,4,6.36,6.36,0,0,1-2.59,5.34,9.63,9.63,0,0,1-6,2,7.58,7.58,0,0,1-6.1-2.91,20.12,20.12,0,0,0-2.08,7.9q0,5.83,6,5.83,5.73,0,11.61-4.58a41.17,41.17,0,0,0,11-13,1.08,1.08,0,0,1,1-.55.93.93,0,0,1,1.06,1.06,1.12,1.12,0,0,1-.14.46,45.83,45.83,0,0,1-2.91,4.67,43.82,43.82,0,0,1-8.74,9.11Q557.51,279.17,550.89,279.17Zm2.22-15a7.48,7.48,0,0,0,4.49-1.34,4.45,4.45,0,0,0,1.85-3.84,3.22,3.22,0,0,0-3.38-3.33,7,7,0,0,0-4.71,1.74,14.42,14.42,0,0,0-3.24,3.81A5.49,5.49,0,0,0,553.11,264.14Z"/><path class="cls-2" d="M583,279.17a4.07,4.07,0,0,1-2.77-.88,4.68,4.68,0,0,1-1.44-2.27,10,10,0,0,1-.41-2.82,28.81,28.81,0,0,1,1.43-7.76q1.2-4,2.31-7.31a2.83,2.83,0,0,0,.14-.88,1.8,1.8,0,0,0-.88-1.43,5.21,5.21,0,0,1-2.17-3,48.89,48.89,0,0,1-3.65,7.58,1.11,1.11,0,0,1-1,.56c-.71,0-1.06-.37-1.06-1.11a.77.77,0,0,1,.09-.42,48,48,0,0,0,2.77-5.32,13.62,13.62,0,0,0,1-4.85,1.94,1.94,0,0,1,.53-1.39,1.88,1.88,0,0,1,1.41-.55,1.33,1.33,0,0,1,1.44,1.29,12.53,12.53,0,0,1,.18,1.57c.25,2.28,1,3.79,2.36,4.53,1.6,1,2.4,1.93,2.4,2.92,0,1.85-.72,4.68-2.17,8.51-.55,1.48-1,2.91-1.46,4.3a14.26,14.26,0,0,0-.62,4.06c0,1.7.52,2.55,1.57,2.55a5.55,5.55,0,0,0,2.68-.79,21.78,21.78,0,0,0,4.77-3.65,58,58,0,0,0,9.66-13.18,1.1,1.1,0,0,1,1-.55.93.93,0,0,1,1.06,1.06,1.12,1.12,0,0,1-.14.46,58.56,58.56,0,0,1-10,13.64Q587,279.17,583,279.17Z"/><path class="cls-2" d="M604.16,279.17q-7.44,0-7.44-8.56a20.43,20.43,0,0,1,2.17-8.94,21,21,0,0,1,6-7.52,14.57,14.57,0,0,1,9.11-3.09,2,2,0,0,1,1.18.39,1.43,1.43,0,0,1,.53,1.22,1.34,1.34,0,0,1-.19.7,4.85,4.85,0,0,1,3,.69c1,.86,1.48,2.28,1.48,4.26q0,4.24-3,10.17a10.13,10.13,0,0,0,1.62.14,11.06,11.06,0,0,0,4.6-1.14,16.76,16.76,0,0,0,4.79-3.42,20.81,20.81,0,0,0,3.6-4.6,1.1,1.1,0,0,1,1-.55.93.93,0,0,1,1.06,1.06,5.91,5.91,0,0,1-1.15,2.13,21.23,21.23,0,0,1-9.57,7.81,11.29,11.29,0,0,1-4.26.83,11.9,11.9,0,0,1-2.77-.32,19.93,19.93,0,0,1-3.19,4.39Q608.78,279.17,604.16,279.17Zm-.42-1.85a7.62,7.62,0,0,0,4.17-1.25,15.57,15.57,0,0,0,3.46-3,20.74,20.74,0,0,0,2.5-3.54q-3.79-2.49-3.79-8.13,0-4.72,3-7a11.5,11.5,0,0,0-6.91,3.58,22.17,22.17,0,0,0-4.65,7.17,19.74,19.74,0,0,0-1.66,7.33Q599.86,277.33,603.74,277.32Zm5.55-27.14a.66.66,0,0,1-.74-.74.71.71,0,0,1,.23-.51,31,31,0,0,0,2.18-2.36,38.52,38.52,0,0,1,3.6-3.84,1.59,1.59,0,0,1,1.07-.41,1.63,1.63,0,0,1,1,.48,1.41,1.41,0,0,1,.44,1q-.11,1.15-4.63,4.25c-1.14.77-2,1.42-2.68,1.94A.75.75,0,0,1,609.29,250.18Zm5.6,17.43a19.84,19.84,0,0,0,1.89-8.46q0-3.33-1.29-3.33a2.73,2.73,0,0,0-2.2,1.57,7.44,7.44,0,0,0-1,4C612.3,264.25,613.16,266.31,614.89,267.61Z"/><path class="cls-2" d="M629,279.45a1.82,1.82,0,0,1-1.39-.54,1.75,1.75,0,0,1-.51-1.27q0-1.2,2.15-9.52a125.67,125.67,0,0,1,4.05-13.27,2.27,2.27,0,0,1,2.31-1.57q1.71,0,1.71,1.47a2.3,2.3,0,0,1-.14.79q-2,5.46-3.7,11,7.13-13.12,14.66-13.13a4.15,4.15,0,0,1,2.61.74,4,4,0,0,1,1.34,2,8.6,8.6,0,0,1,.39,2.62,27.92,27.92,0,0,1-1.94,8.69,23.69,23.69,0,0,0-1.57,7.91,1.3,1.3,0,0,0,1.48,1.47q7.08,0,16.65-17.29a1.07,1.07,0,0,1,1-.55,1.13,1.13,0,0,1,.51.13,1,1,0,0,1,.56.93,1.12,1.12,0,0,1-.14.46,65.38,65.38,0,0,1-8.7,12.67q-5.4,6.06-10.31,6.06-4.34,0-4.34-5.09a17.34,17.34,0,0,1,.41-3.67c.28-1.25.59-2.52.93-3.82s.65-2.6.95-3.93a18.49,18.49,0,0,0,.43-4q0-3.06-1.29-3.06-5.5,0-12.53,13.78c-2.16,4.26-3.31,7-3.47,8.19a2,2,0,0,1-.69,1.34A2.14,2.14,0,0,1,629,279.45Z"/><path class="cls-2" d="M668.89,279.17a4.1,4.1,0,0,1-1.71-.37c-2-.93-3-2.74-3-5.46q0-6.7,4.67-18.82a2,2,0,0,1,2.08-1.38,2.19,2.19,0,0,1,1.62.64,1.14,1.14,0,0,1,.33.84,1.92,1.92,0,0,1-.14.6q-5,12.95-5,17.94a6.38,6.38,0,0,0,.4,2.47,1.75,1.75,0,0,0,1.82.95q2.13,0,6.2-4A58.33,58.33,0,0,0,686,259.47a1.1,1.1,0,0,1,1-.55,1.13,1.13,0,0,1,.51.13,1,1,0,0,1,.56.93,1.12,1.12,0,0,1-.14.46,58.34,58.34,0,0,1-10,13.69,23.51,23.51,0,0,1-2.54,2.26C673,278.24,670.8,279.17,668.89,279.17Zm3.24-28.35c-1.39,0-2.08-.78-2.08-2.35a3.89,3.89,0,0,1,1-2.52,3.15,3.15,0,0,1,2.54-1.23c1.35,0,2,.85,2,2.54a3.66,3.66,0,0,1-1,2.41A3.17,3.17,0,0,1,672.13,250.82Z"/><path class="cls-2" d="M691,279.4a9.53,9.53,0,0,1-5.22-1.23,7,7,0,0,1-2.75-3.28,11.75,11.75,0,0,1-.86-4.55,18.13,18.13,0,0,1,1.92-7.72,19.92,19.92,0,0,1,5-6.57,10.29,10.29,0,0,1,6.86-2.68,6.66,6.66,0,0,1,4.44,1.52,5.08,5.08,0,0,1,1.8,4.07,6.92,6.92,0,0,1-2.49,5.27,1,1,0,0,1-.7.28,1.06,1.06,0,0,1-.83-.32,1,1,0,0,1-.28-.65,1.1,1.1,0,0,1,.33-.88A4.82,4.82,0,0,0,700,259a3.46,3.46,0,0,0-.73-2.19,2.54,2.54,0,0,0-2.13-.95,8,8,0,0,0-5.46,2.52,21.15,21.15,0,0,0-4.44,6,15.7,15.7,0,0,0-1.89,6.89q0,5.83,6.15,5.83,5.68,0,11.56-4.58a41.3,41.3,0,0,0,11.05-13,1.12,1.12,0,0,1,1.06-.55,1.22,1.22,0,0,1,.46.09.9.9,0,0,1,.61.92,1.16,1.16,0,0,1-.14.51,28.67,28.67,0,0,1-2.32,3.79,44.41,44.41,0,0,1-9.34,10Q697.61,279.4,691,279.4Z"/><path class="cls-2" d="M729.7,279.17a4.29,4.29,0,0,1-1.67-.33q-3-1.29-3-5.5a26.69,26.69,0,0,1,.51-4.85q-6.42,10.68-12.25,10.68-4.67,0-4.67-5.69a18.77,18.77,0,0,1,1.25-6.31,29.23,29.23,0,0,1,3.37-6.61,20.67,20.67,0,0,1,5-5.16,10.07,10.07,0,0,1,6-2,4.66,4.66,0,0,1,4.72,3.37l.88-2.22a2,2,0,0,1,2.08-1.34,2.09,2.09,0,0,1,1.53.6,1.2,1.2,0,0,1,.37.84,1.92,1.92,0,0,1-.14.6q-5,13.21-5,17.94a6.36,6.36,0,0,0,.41,2.47,1.81,1.81,0,0,0,1.85.95q2.13,0,6.15-4a53.81,53.81,0,0,0,9.8-13.09,1,1,0,0,1,1-.55.94.94,0,0,1,1.07,1.06,1.12,1.12,0,0,1-.14.46,59.52,59.52,0,0,1-10,13.69,27.75,27.75,0,0,1-2.59,2.26,16.87,16.87,0,0,1-3.14,2A7.45,7.45,0,0,1,729.7,279.17Zm-16.05-1.94a7,7,0,0,0,4.58-2.22,34.12,34.12,0,0,0,7.68-11,11.92,11.92,0,0,0,1.29-4.44c0-2.56-.82-3.83-2.45-3.83A6.75,6.75,0,0,0,720.1,258a24.79,24.79,0,0,0-4.14,5.43,37.24,37.24,0,0,0-3,6.43,16.7,16.7,0,0,0-1.1,5.15C711.9,276.47,712.48,277.23,713.65,277.23Z"/><path class="cls-2" d="M810,294q-12.3,0-17.2-6.63t-4.91-17.6a53.68,53.68,0,0,1,1.81-13.5q-17.89-2.64-27.28-12.85-10-10.87-10-26.68a54.07,54.07,0,0,1,3.93-19.61,2.13,2.13,0,0,1,2.08-1.48,1.54,1.54,0,0,1,.74.19,1.94,1.94,0,0,1,1.44,1.89,2.3,2.3,0,0,1-.14.79,58.46,58.46,0,0,0-4.21,20.9q0,13.59,8.39,22.79t25.74,11.66a94.34,94.34,0,0,1,10.44-23.21,81,81,0,0,1,18.45-20.81q12.54-9.86,25.9-9.85A17.94,17.94,0,0,1,852,201.3a11.36,11.36,0,0,1,5,3.86,10.65,10.65,0,0,1,1.85,6.36,27.83,27.83,0,0,1-.83,6.71q-3.46,14.19-17.94,24.69a73.19,73.19,0,0,1-13.69,7.86,68.18,68.18,0,0,1-27.56,6.1c-1.45,0-2.9,0-4.34-.14a55.25,55.25,0,0,0-2.18,14.8q0,8.79,4,14.15T810,291.05q13.9,0,27.79-11.19a70.23,70.23,0,0,0,17.43-20.3,1.07,1.07,0,0,1,1-.55,1,1,0,0,1,.51.14,1,1,0,0,1,.56.92,1.08,1.08,0,0,1-.14.46,75.08,75.08,0,0,1-17.89,21.23Q824.52,294,810,294Zm-11.15-39.58a59.46,59.46,0,0,0,13.55-1.57,72,72,0,0,0,25.94-11.75q13.92-10,17.25-23.39a21.21,21.21,0,0,0,.55-5,7.71,7.71,0,0,0-3.05-6.66,11.49,11.49,0,0,0-6.94-2.22q-12.75,0-24.69,9.9a77.15,77.15,0,0,0-17.24,20.39,90.78,90.78,0,0,0-9,20.25C796.37,254.4,797.59,254.43,798.82,254.43Z"/><path class="cls-2" d="M860.64,279.17q-4.39,0-6.75-2.36a8.75,8.75,0,0,1-2.35-6.47,17.51,17.51,0,0,1,1-5.55,21.61,21.61,0,0,1,2.8-5.55,15.58,15.58,0,0,1,4.3-4.23,9.89,9.89,0,0,1,5.54-1.64,6.57,6.57,0,0,1,4.42,1.55,5,5,0,0,1,1.83,4,6.36,6.36,0,0,1-2.59,5.34,9.63,9.63,0,0,1-6,2,7.58,7.58,0,0,1-6.1-2.91,20.12,20.12,0,0,0-2.08,7.9q0,5.83,6,5.83c3.83,0,7.69-1.53,11.61-4.58a41.17,41.17,0,0,0,11-13,1.1,1.1,0,0,1,1-.55.93.93,0,0,1,1.06,1.06,1.12,1.12,0,0,1-.14.46,45.83,45.83,0,0,1-2.91,4.67,43.82,43.82,0,0,1-8.74,9.11Q867.26,279.17,860.64,279.17Zm2.22-15a7.46,7.46,0,0,0,4.49-1.34A4.45,4.45,0,0,0,869.2,259a3.22,3.22,0,0,0-3.38-3.33,7,7,0,0,0-4.71,1.74,14.42,14.42,0,0,0-3.24,3.81A5.49,5.49,0,0,0,862.86,264.14Zm2.27-14a.66.66,0,0,1-.74-.74.71.71,0,0,1,.23-.51,29.21,29.21,0,0,0,2.17-2.36,38.67,38.67,0,0,1,3.61-3.84,1.57,1.57,0,0,1,1.06-.41,1.6,1.6,0,0,1,1,.48,1.37,1.37,0,0,1,.44,1q-.09,1.15-4.62,4.25c-1.14.77-2,1.42-2.68,1.94A.79.79,0,0,1,865.13,250.18Z"/><path class="cls-2" d="M887.55,279.72a5.45,5.45,0,0,1-3.6-1.08,3.37,3.37,0,0,1-1.3-2.66,4.58,4.58,0,0,1,1.07-2.75,7.7,7.7,0,0,1,3.37-2.34q2.31-.92,4.67-1.76a28.91,28.91,0,0,0-1.94-3.9,25,25,0,0,1-1.78-3.59,14,14,0,0,1-.86-4.67l-1.94,3.47a1.08,1.08,0,0,1-1,.56,1,1,0,0,1-.47-.1,1,1,0,0,1-.6-.92,1.23,1.23,0,0,1,.14-.51,52.89,52.89,0,0,0,4-8.6q2.67-8,5.27-8a2,2,0,0,1,1.52.65,1,1,0,0,1,.33.78,1.76,1.76,0,0,1-.19.74,38.56,38.56,0,0,0-2.17,5.55,20.63,20.63,0,0,0-.79,5.87,12.19,12.19,0,0,0,.77,4.6,27.93,27.93,0,0,0,1.82,3.68c.5.83,1,1.74,1.48,2.73a19.4,19.4,0,0,0,8.33-8,1.12,1.12,0,0,1,1.06-.55,1.25,1.25,0,0,1,.46.09.94.94,0,0,1,.6.92q0,1-2.59,4.07a20.77,20.77,0,0,1-7.12,5.55,5.78,5.78,0,0,1,.19,1.48,8.18,8.18,0,0,1-1.37,4.81,8.69,8.69,0,0,1-3.37,2.91A9,9,0,0,1,887.55,279.72Zm-.69-2.68q5.32-.09,5.32-5v-.83l-1,.32q-6.28,1.89-6.29,4.25C884.87,276.63,885.54,277,886.86,277Z"/><path class="cls-2" d="M893.7,314.13a1.35,1.35,0,0,1-1.52-1.53q0-3.84,2.45-16.6A346.87,346.87,0,0,1,905,255a2.1,2.1,0,0,1,2.18-1.58c1.14,0,1.71.44,1.71,1.3q0,.78-2.69,10.54a34.7,34.7,0,0,1,6.15-7.26q5.55-4.62,10-4.62a4.89,4.89,0,0,1,4.26,1.87,7.42,7.42,0,0,1,1.34,4.42,21.83,21.83,0,0,1-1.48,7.95,17.45,17.45,0,0,0,10.08-8.14,1.07,1.07,0,0,1,1-.55c.71,0,1.07.34,1.07,1a1,1,0,0,1-.14.51,20,20,0,0,1-13.41,9.85,18.28,18.28,0,0,1-6,5.78,15.93,15.93,0,0,1-8.23,2.31A5.89,5.89,0,0,1,907,277.2a4.11,4.11,0,0,1-1.41-3.35,3.8,3.8,0,0,1,1.37-2.93,6.07,6.07,0,0,1,4.09-1.28,77,77,0,0,0,10.45-.69,18.84,18.84,0,0,0,2.45-9.29,11.12,11.12,0,0,0-.16-1.83,2.88,2.88,0,0,0-.74-1.5,2.46,2.46,0,0,0-1.83-.6q-2.91,0-8.28,4.71a29,29,0,0,0-5.08,6.43,41.49,41.49,0,0,0-4.9,11.19q-7.68,25.85-7.68,34.59a1.41,1.41,0,0,1-.44,1.06A1.5,1.5,0,0,1,893.7,314.13Zm16.37-38.38a11.71,11.71,0,0,0,5.23-1.23,14.16,14.16,0,0,0,4.3-3.21q-1.44.13-8.79.37c-2,.09-3,.8-3,2.12S908.56,275.75,910.07,275.75Z"/><path class="cls-2" d="M942,279.17q-4.39,0-6.75-2.36a8.75,8.75,0,0,1-2.36-6.47,17.54,17.54,0,0,1,1-5.55,21.61,21.61,0,0,1,2.8-5.55A15.58,15.58,0,0,1,941,255a9.89,9.89,0,0,1,5.54-1.64,6.57,6.57,0,0,1,4.42,1.55,5,5,0,0,1,1.83,4,6.36,6.36,0,0,1-2.59,5.34,9.63,9.63,0,0,1-6,2,7.58,7.58,0,0,1-6.1-2.91,20.12,20.12,0,0,0-2.08,7.9q0,5.83,6,5.83c3.83,0,7.69-1.53,11.61-4.58a41.17,41.17,0,0,0,11-13,1.1,1.1,0,0,1,1-.55.93.93,0,0,1,1.06,1.06,1.12,1.12,0,0,1-.14.46,45.83,45.83,0,0,1-2.91,4.67,43.82,43.82,0,0,1-8.74,9.11Q948.64,279.17,942,279.17Zm2.22-15a7.48,7.48,0,0,0,4.49-1.34,4.45,4.45,0,0,0,1.85-3.84,3.22,3.22,0,0,0-3.38-3.33,7,7,0,0,0-4.71,1.74,14.42,14.42,0,0,0-3.24,3.81A5.49,5.49,0,0,0,944.24,264.14Z"/><path class="cls-2" d="M982.67,279.17a5.84,5.84,0,0,1-4.07-1.34q-2.6-2.26-2.68-7.31l0-1.57q-6.2,10.21-12,10.22-4.62,0-4.62-5.69a19.44,19.44,0,0,1,1.22-6.31,28.09,28.09,0,0,1,3.38-6.61,20.92,20.92,0,0,1,5-5.16,10,10,0,0,1,5.92-2,5,5,0,0,1,3.93,1.76c.68-2.16,1.63-5,2.87-8.42-2,.18-4.1.28-6.2.28A86.92,86.92,0,0,1,959,245.32q-10.54-2-17.3-6.1-8-4.91-8-12.3,0-8,6.65-11.88,5.7-3.24,14.57-3.24a66,66,0,0,1,17.25,2.27,169.36,169.36,0,0,1,20.39,7.12q11.1-20,24.6-20a15.08,15.08,0,0,1,5.43.9,7.81,7.81,0,0,1,3.74,2.82,8.37,8.37,0,0,1,1.37,5q0,7.95-7.45,17a41.21,41.21,0,0,1-3.32,3.65c2.24.68,4.51,1.31,6.79,1.9a81.05,81.05,0,0,0,19.61,2.4q11.79,0,19-7a21.44,21.44,0,0,0,4.37-6,15.82,15.82,0,0,0,1.69-7.05,14,14,0,0,0-5-11.33,15.81,15.81,0,0,0-10.63-3.7,14.28,14.28,0,0,0-7.44,1.76,11.1,11.1,0,0,0-4.35,4.39,9.3,9.3,0,0,0-1.11,4.34,8.41,8.41,0,0,0,1.43,4.86q2.73,3.93,9,3.93a2.19,2.19,0,0,1,1.57.62,2,2,0,0,1,0,3,2.16,2.16,0,0,1-1.57.63q-8.46,0-11.79-5.37a10.56,10.56,0,0,1-1.62-5.73,14.68,14.68,0,0,1,1.76-7,13.84,13.84,0,0,1,5.39-5.43,17,17,0,0,1,8.76-2.13,18.3,18.3,0,0,1,12.11,4.21,16.1,16.1,0,0,1,5.74,12.95,18,18,0,0,1-1.85,7.86,22.73,22.73,0,0,1-4.86,6.7q-8,7.68-20.57,7.68a93.76,93.76,0,0,1-28.16-4.72q-11.88,11-29.36,14-1.67,4.59-3,9.07-3.79,12.86-3.79,16.92a6.54,6.54,0,0,0,.9,3.44,2.94,2.94,0,0,0,2.71,1.51q5.73,0,12.94-9.62a69.1,69.1,0,0,0,5-8,1.14,1.14,0,0,1,1.07-.55c.71,0,1.06.34,1.06,1q0,.46-3,5.6a44.24,44.24,0,0,1-7.12,8.64Q987.57,279.16,982.67,279.17Zm-7.31-34.31a64.06,64.06,0,0,0,7-.37,170.19,170.19,0,0,1,9.3-21.45l-3.33-1.35a149.23,149.23,0,0,0-16.69-5.59A64.59,64.59,0,0,0,955,213.93q-7.9,0-13,2.68-6,3.19-6,10.31,0,6.62,7.76,11a52.55,52.55,0,0,0,16.56,5.46A85.32,85.32,0,0,0,975.36,244.86Zm-11.1,32.37a6.81,6.81,0,0,0,4.53-2.22,28,28,0,0,0,7.13-11,18,18,0,0,0,1.2-6.38c0-1.26-.59-1.89-1.76-1.89a6.75,6.75,0,0,0-4.65,2.22,24.46,24.46,0,0,0-4.13,5.43,36.51,36.51,0,0,0-3,6.43,16.77,16.77,0,0,0-1.11,5.15C962.51,276.47,963.09,277.23,964.26,277.23Zm22.43-33.39a54.53,54.53,0,0,0,26.17-12.44q-4.26-1.47-17.57-6.89A169.25,169.25,0,0,0,986.69,243.84Zm27.93-14.1q10.91-10.63,10.91-19.88a6.14,6.14,0,0,0-2.2-5,8.36,8.36,0,0,0-5.48-1.81q-10.53,0-21.54,19.66Q1008.79,227.85,1014.62,229.74Z"/><path class="cls-2" d="M1006.11,279.17q-4.4,0-6.75-2.36a8.75,8.75,0,0,1-2.36-6.47,17.51,17.51,0,0,1,1-5.55,22.27,22.27,0,0,1,2.8-5.55,15.71,15.71,0,0,1,4.3-4.23,10,10,0,0,1,5.55-1.64,6.57,6.57,0,0,1,4.42,1.55,5.06,5.06,0,0,1,1.82,4,6.34,6.34,0,0,1-2.59,5.34,9.58,9.58,0,0,1-6,2,7.56,7.56,0,0,1-6.1-2.91,20.16,20.16,0,0,0-2.09,7.9q0,5.83,6,5.83,5.73,0,11.6-4.58a41.21,41.21,0,0,0,11.06-13,1.07,1.07,0,0,1,1-.55.94.94,0,0,1,1.07,1.06,1.12,1.12,0,0,1-.14.46,47.73,47.73,0,0,1-2.92,4.67,43.52,43.52,0,0,1-8.73,9.11Q1012.72,279.17,1006.11,279.17Zm2.22-15a7.43,7.43,0,0,0,4.48-1.34,4.43,4.43,0,0,0,1.85-3.84,3.2,3.2,0,0,0-3.37-3.33,7.05,7.05,0,0,0-4.72,1.74,14.61,14.61,0,0,0-3.24,3.81A5.52,5.52,0,0,0,1008.33,264.14Z"/><path class="cls-2" d="M1033,279.72a5.49,5.49,0,0,1-3.61-1.08,3.36,3.36,0,0,1-1.29-2.66,4.57,4.57,0,0,1,1.06-2.75,7.74,7.74,0,0,1,3.38-2.34q2.31-.92,4.67-1.76a31.48,31.48,0,0,0-1.94-3.9,24,24,0,0,1-1.78-3.59,13.7,13.7,0,0,1-.86-4.67l-1.94,3.47a1.11,1.11,0,0,1-1,.56.92.92,0,0,1-.46-.1,1,1,0,0,1-.6-.92,1.09,1.09,0,0,1,.14-.51,53.61,53.61,0,0,0,4-8.6q2.68-8,5.27-8a2,2,0,0,1,1.53.65,1,1,0,0,1,.32.78,1.89,1.89,0,0,1-.18.74,37.42,37.42,0,0,0-2.17,5.55,20.28,20.28,0,0,0-.79,5.87,12.2,12.2,0,0,0,.76,4.6,28,28,0,0,0,1.83,3.68c.49.83,1,1.74,1.48,2.73a19.38,19.38,0,0,0,8.32-8,1.13,1.13,0,0,1,1.06-.55,1.31,1.31,0,0,1,.47.09.94.94,0,0,1,.6.92c0,.65-.87,2-2.59,4.07a20.87,20.87,0,0,1-7.12,5.55,6.24,6.24,0,0,1,.18,1.48,8.17,8.17,0,0,1-1.36,4.81,8.72,8.72,0,0,1-3.38,2.91A9,9,0,0,1,1033,279.72Zm-.69-2.68q5.31-.09,5.31-5v-.83l-1,.32c-4.2,1.26-6.29,2.68-6.29,4.25C1030.34,276.63,1031,277,1032.33,277Z"/><path class="cls-2" d="M1205.67,279.17a4.24,4.24,0,0,1-1.66-.33q-3-1.29-3-5.5a26.69,26.69,0,0,1,.51-4.85q-6.43,10.68-12.25,10.68c-3.12,0-4.67-1.9-4.67-5.69a19,19,0,0,1,1.24-6.31,29.27,29.27,0,0,1,3.38-6.61,20.67,20.67,0,0,1,5-5.16,10.07,10.07,0,0,1,6-2,4.67,4.67,0,0,1,4.72,3.37l.88-2.22a2,2,0,0,1,2.08-1.34,2.07,2.07,0,0,1,1.52.6,1.16,1.16,0,0,1,.37.84,1.67,1.67,0,0,1-.14.6q-5,13.21-5,17.94a6.16,6.16,0,0,0,.42,2.47,1.8,1.8,0,0,0,1.85.95q2.13,0,6.15-4a54.07,54.07,0,0,0,9.8-13.09,1,1,0,0,1,1-.55.93.93,0,0,1,1.06,1.06,1,1,0,0,1-.14.46,59.48,59.48,0,0,1-10,13.69,27.75,27.75,0,0,1-2.59,2.26,17.2,17.2,0,0,1-3.14,2A7.49,7.49,0,0,1,1205.67,279.17Zm-16-1.94a7,7,0,0,0,4.58-2.22,34,34,0,0,0,7.67-11,12,12,0,0,0,1.3-4.44c0-2.56-.82-3.83-2.45-3.83a6.75,6.75,0,0,0-4.65,2.22,24.19,24.19,0,0,0-4.14,5.43,37.24,37.24,0,0,0-3,6.43,16.77,16.77,0,0,0-1.11,5.15C1187.87,276.47,1188.46,277.23,1189.63,277.23Z"/><path class="cls-2" d="M1232.21,279.17a4.07,4.07,0,0,1-2.77-.88A4.6,4.6,0,0,1,1228,276a9.63,9.63,0,0,1-.42-2.82,28.81,28.81,0,0,1,1.43-7.76q1.21-4,2.32-7.31a3.13,3.13,0,0,0,.13-.88,1.81,1.81,0,0,0-.87-1.43,5.19,5.19,0,0,1-2.18-3,48.89,48.89,0,0,1-3.65,7.58,1.1,1.1,0,0,1-1,.56c-.71,0-1.06-.37-1.06-1.11a.77.77,0,0,1,.09-.42,48.35,48.35,0,0,0,2.78-5.32,13.84,13.84,0,0,0,1-4.85,1.91,1.91,0,0,1,.54-1.39,1.85,1.85,0,0,1,1.41-.55,1.32,1.32,0,0,1,1.43,1.29,12.53,12.53,0,0,1,.18,1.57q.38,3.42,2.36,4.53c1.6,1,2.41,1.93,2.41,2.92,0,1.85-.73,4.68-2.18,8.51-.55,1.48-1,2.91-1.45,4.3a13.93,13.93,0,0,0-.63,4.06c0,1.7.53,2.55,1.57,2.55a5.58,5.58,0,0,0,2.69-.79,22,22,0,0,0,4.76-3.65,58,58,0,0,0,9.66-13.18,1.1,1.1,0,0,1,1-.55.93.93,0,0,1,1.06,1.06,1,1,0,0,1-.14.46,58.56,58.56,0,0,1-10,13.64Q1236.19,279.17,1232.21,279.17Z"/><path class="cls-2" d="M1246.59,279.45a1.81,1.81,0,0,1-1.38-.54,1.75,1.75,0,0,1-.51-1.27q0-1.2,2.15-9.52a125.67,125.67,0,0,1,4.05-13.27,2.27,2.27,0,0,1,2.31-1.57q1.71,0,1.71,1.47a2.3,2.3,0,0,1-.14.79c-1.66,4.5-3,8.39-3.93,11.65q6.89-13.81,12.9-13.82,4,0,4,5.32a29.56,29.56,0,0,1-.7,5.22q5.79-10.55,12.63-10.54a3.47,3.47,0,0,1,2.42.78,4.07,4.07,0,0,1,1.18,2,9.57,9.57,0,0,1,.33,2.52,20.1,20.1,0,0,1-.42,4c-.52,2.62-.93,4.36-1.2,5.23a28.85,28.85,0,0,0-1.53,7.49c0,1.05.37,1.57,1.11,1.57a6.08,6.08,0,0,0,2.87-.83q6.93-3.66,14.1-16.65a1.1,1.1,0,0,1,1-.55.93.93,0,0,1,1.06,1.06.82.82,0,0,1-.14.46c-.31.53-1.06,1.85-2.26,4a54.89,54.89,0,0,1-5.41,7.54q-6,7.2-11.33,7.21a3.7,3.7,0,0,1-3.38-1.53,6.52,6.52,0,0,1-1-3.56,33.36,33.36,0,0,1,1.11-6.79,42.45,42.45,0,0,0,1.3-8.79c0-1.79-.4-2.68-1.21-2.68q-3,0-6.12,4.3a55.75,55.75,0,0,0-5.57,9.43q-2.41,5.13-2.5,7.86c-.06,1.27-.77,1.9-2.13,1.9q-1.8,0-1.8-1.53a66,66,0,0,1,1.66-8.11,50.25,50.25,0,0,0,1.67-10.43v-1.66c0-1.21-.34-1.81-.93-1.81q-3.13,0-8.23,9.67-3.28,6.29-5.64,12.11a3.78,3.78,0,0,1-.81,1.39A1.73,1.73,0,0,1,1246.59,279.45Z"/><path class="cls-2" d="M1314.15,279.17a4.29,4.29,0,0,1-1.67-.33q-3-1.29-3-5.5a26.6,26.6,0,0,1,.5-4.85q-6.42,10.68-12.25,10.68-4.66,0-4.67-5.69a19,19,0,0,1,1.25-6.31,29.23,29.23,0,0,1,3.37-6.61,20.67,20.67,0,0,1,5-5.16,10.07,10.07,0,0,1,6-2,4.66,4.66,0,0,1,4.71,3.37l.88-2.22a2,2,0,0,1,2.08-1.34,2.07,2.07,0,0,1,1.53.6,1.2,1.2,0,0,1,.37.84,1.92,1.92,0,0,1-.14.6q-5,13.21-5,17.94a6.36,6.36,0,0,0,.41,2.47,1.81,1.81,0,0,0,1.85.95q2.13,0,6.15-4a54.11,54.11,0,0,0,9.81-13.09,1,1,0,0,1,1-.55.94.94,0,0,1,1.07,1.06,1.12,1.12,0,0,1-.14.46,59.77,59.77,0,0,1-10,13.69,29.1,29.1,0,0,1-2.59,2.26,17.28,17.28,0,0,1-3.15,2A7.45,7.45,0,0,1,1314.15,279.17Zm-16.05-1.94a7,7,0,0,0,4.58-2.22,34.12,34.12,0,0,0,7.68-11,11.92,11.92,0,0,0,1.29-4.44c0-2.56-.82-3.83-2.45-3.83a6.75,6.75,0,0,0-4.65,2.22,24.46,24.46,0,0,0-4.13,5.43,36.51,36.51,0,0,0-3,6.43,16.77,16.77,0,0,0-1.11,5.15C1296.35,276.47,1296.93,277.23,1298.1,277.23Z"/><path class="cls-2" d="M1328.62,279.45a1.83,1.83,0,0,1-1.39-.54,1.78,1.78,0,0,1-.5-1.27c0-.8.71-4,2.15-9.52a128.43,128.43,0,0,1,4-13.27,2.27,2.27,0,0,1,2.31-1.57q1.71,0,1.71,1.47a2.3,2.3,0,0,1-.13.79q-2,5.46-3.7,11,7.11-13.12,14.65-13.13a4.2,4.2,0,0,1,2.62.74,4,4,0,0,1,1.34,2,8.6,8.6,0,0,1,.39,2.62,28.21,28.21,0,0,1-1.94,8.69,23.69,23.69,0,0,0-1.57,7.91,1.3,1.3,0,0,0,1.48,1.47q7.07,0,16.64-17.29a1.1,1.1,0,0,1,1-.55,1.2,1.2,0,0,1,.51.13,1,1,0,0,1,.55.93,1,1,0,0,1-.14.46,65.35,65.35,0,0,1-8.69,12.67q-5.42,6.06-10.31,6.06-4.35,0-4.35-5.09a16.74,16.74,0,0,1,.42-3.67c.28-1.25.58-2.52.92-3.82s.66-2.6.95-3.93a18.5,18.5,0,0,0,.44-4q0-3.06-1.29-3.06-5.51,0-12.53,13.78c-2.16,4.26-3.32,7-3.47,8.19a2,2,0,0,1-.7,1.34A2.12,2.12,0,0,1,1328.62,279.45Z"/><path class="cls-2" d="M1356.83,334.47a7.37,7.37,0,0,1-4.33-1.27,8.69,8.69,0,0,1-2.82-3.28,9.72,9.72,0,0,1-1-4.33q0-14.47,19.74-32.09,4.72-4.2,9.62-8.32,2.27-1.85,4.44-3.75a168.09,168.09,0,0,0,2.91-18.68,55.51,55.51,0,0,1-5.55,9.39q-5.17,7-10.22,7a5.24,5.24,0,0,1-3.28-.93,4.88,4.88,0,0,1-1.69-2.45,10.84,10.84,0,0,1-.48-3.28q0-6.42,4.48-17.48a2.36,2.36,0,0,1,2.27-1.66,1.65,1.65,0,0,1,1.48.69,1.69,1.69,0,0,1,.28.93,2,2,0,0,1-.19.74q-.42.91-2.26,6-2.92,8-2.92,12.49a3.85,3.85,0,0,0,.47,2.12,2,2,0,0,0,1.84.7,6.92,6.92,0,0,0,4.58-2,36.4,36.4,0,0,0,7.72-10.54,52.27,52.27,0,0,0,3.8-8.88,2.91,2.91,0,0,0,.13-1,1.3,1.3,0,0,1,.63-1.06,2.36,2.36,0,0,1,1.46-.47,2.1,2.1,0,0,1,1.38.49,1.6,1.6,0,0,1,.6,1.32,133.71,133.71,0,0,1-2.49,22.1q10.9-9.61,15.39-17.62a1.14,1.14,0,0,1,1.07-.55c.71,0,1.06.34,1.06,1a1,1,0,0,1-.14.51q-4.75,8.46-18,20.12-1.35,6.7-3.1,13.27-5.78,21.87-13.73,32.5Q1363.86,334.48,1356.83,334.47Zm.09-2.91a8.57,8.57,0,0,0,5.45-2.13q4.86-4,9.3-13.5a152.73,152.73,0,0,0,10.12-31q-8.77,7.46-11.92,10.22-9.16,8.24-13.78,15.35-5.19,7.9-5.18,15.12a5.68,5.68,0,0,0,1.71,4.37A6,6,0,0,0,1356.92,331.56Z"/><path class="cls-2" d="M1185.49,213.54a23,23,0,0,0-9.31-10.06q-6.2-3.63-15.45-3.63-17.16,0-30,16.59c-.12-.38-.48-1.28-.52-1.38-.48-1.24-1-2.45-1.6-3.63a44.69,44.69,0,0,0-5.22-8.19,1.93,1.93,0,0,0-1.42-.75,2.35,2.35,0,0,0-2.46,2,1.92,1.92,0,0,0,.41,1.55,48.71,48.71,0,0,1,5.51,8.81,28.28,28.28,0,0,1,2,6.29,98,98,0,0,0-12.62,30.16,75.42,75.42,0,0,0-2.36,17.33,26.55,26.55,0,0,0,.38,4.56,9.18,9.18,0,0,0,1.29,3.56,3,3,0,0,0,2.68,1.41q3.1,0,6.56-7a82.62,82.62,0,0,0,4.82-12.44,97.81,97.81,0,0,0,4.53-28.16,53.23,53.23,0,0,0-1.11-11q11.84-16.76,29.22-16.74a24.17,24.17,0,0,1,12.16,2.86,20.77,20.77,0,0,1,8.44,9.14,31.18,31.18,0,0,1,2.8,13.57,52.94,52.94,0,0,1-5,22,71.78,71.78,0,0,1-13.41,19.91,67.7,67.7,0,0,1-19.33,14.31,51.32,51.32,0,0,1-23.11,5.5,35.88,35.88,0,0,1-16.28-3.63,28.87,28.87,0,0,1-11.58-10.31,28.09,28.09,0,0,1-4.33-15.65,1.18,1.18,0,0,0-.37-.88,1.23,1.23,0,0,0-.92-.38,1.25,1.25,0,0,0-.9.38,1.14,1.14,0,0,0-.4.88,30.21,30.21,0,0,0,4.7,16.5,35,35,0,0,0,29.84,16.33,60,60,0,0,0,34.08-10.5A69.5,69.5,0,0,0,1170.67,271a71.34,71.34,0,0,0,16.7-31.58,49.92,49.92,0,0,0,1.24-11.05A33.43,33.43,0,0,0,1185.49,213.54Zm-62.44,45.91q-4.53,14.63-6.75,14.61c-.83,0-1.25-1.57-1.25-4.71a76.82,76.82,0,0,1,2.22-17.53A94.56,94.56,0,0,1,1128,225.1q.29,3.42.28,6.51Q1128.23,243,1123.05,259.45Z"/><path class="cls-3" d="M286.12,270.26A118.06,118.06,0,0,0,328.59,251q22.8-16.43,28.24-38.31a34.45,34.45,0,0,0,.91-8.25q0-7.28-5-10.9a18.81,18.81,0,0,0-11.36-3.64q-20.89,0-40.43,16.21a126.81,126.81,0,0,0-28.25,33.39A148.88,148.88,0,0,0,258,272.68q3,.15,6,.15A97.91,97.91,0,0,0,286.12,270.26Z"/><path class="cls-3" d="M95,105.25V205.47q6.39-3.79,13.15-7a152.73,152.73,0,0,1,27.71-10.15,107.07,107.07,0,0,1,26.61-3.59,31.3,31.3,0,0,1,10.22,1.55,15,15,0,0,1,7.24,5q2.68,3.5,2.68,9.32a76.39,76.39,0,0,1-1.59,14.54q-2.34,12.33-8.48,33.76-13.17,45.51-13.17,67.77a33.35,33.35,0,0,0,.83,7,16.13,16.13,0,0,0,2.95,6.55A7,7,0,0,0,169,333q7.8-.15,18.18-12.46t21.2-31.64c4-7.19,7.83-14.65,11.53-22.28a59.08,59.08,0,0,1-15.66-11.76Q187.83,237,187.84,211.12c0-7.94.39-13.85,2.49-21.16l0,0a58,58,0,0,1,2.18-6.35c.09-.25.13-.44.23-.7,0-.05.06-.06.09-.11a56.94,56.94,0,0,1,8.2-13.87,35.1,35.1,0,0,1,36.61-12.24c7.63,1.9,20.08,10.72,18.52,29.3-.08,1.34-.18,2.56-.34,3.71,0,.09,0,.17,0,.26s0,.18-.05.28a43.57,43.57,0,0,1-1.29,5.57c-.08.28-.16.53-.24.78-.74,2.47-1.74,5.49-3.16,9.8A431.38,431.38,0,0,1,234.52,248q-4.11,9.09-8.29,17.49A91.26,91.26,0,0,0,250,271.92a154.84,154.84,0,0,1,17.11-38,132.76,132.76,0,0,1,30.21-34.07q20.52-16.12,42.4-16.13A29.34,29.34,0,0,1,351,185.83a18.53,18.53,0,0,1,8.14,6.33,17.33,17.33,0,0,1,3,10.41,45.11,45.11,0,0,1-1.36,11q-5.69,23.23-29.38,40.43a118.94,118.94,0,0,1-22.41,12.87q-22.8,10-45.13,10-3.56,0-7.12-.22a90.59,90.59,0,0,0-3.56,24.23q0,14.38,6.59,23.17t22.34,8.78q22.79,0,45.5-18.32a114.78,114.78,0,0,0,28.55-33.24,1.78,1.78,0,0,1,1.66-.91,1.91,1.91,0,0,1,.84.22,1.69,1.69,0,0,1,.91,1.52,1.87,1.87,0,0,1-.23.76,123.17,123.17,0,0,1-29.3,34.75Q306,337.65,282.18,337.64q-20.15,0-28.17-10.86T246,298a87.64,87.64,0,0,1,3-22.11,92.44,92.44,0,0,1-24.51-6.93,351,351,0,0,1-23.68,40.4q-19.53,28.32-31.88,28.31a14.09,14.09,0,0,1-13.32-7.95q-3.41-6.51-3.41-15.9,0-22.56,13.1-66.55,2.34-8,4.69-16.43,5.46-19.84,5.45-30.21a10.81,10.81,0,0,0-2.15-7.12,11.74,11.74,0,0,0-5.8-3.67,28.24,28.24,0,0,0-8.17-1.1q-23.62.07-49.9,13.48A152.69,152.69,0,0,0,95,210.57V387.9H377.68V105.25Z"/><path class="cls-3" d="M246.56,203.8c3.11-10,4.2-13.32,4.63-17.66.92-11.24-5.68-21.55-16.31-23.47-15.55-2.8-29.54,7.33-36.64,26.12-3.37,9.9-4.12,17.11-4.12,26.72q0,22.26,13.74,37.33A51.35,51.35,0,0,0,221.55,263c2.34-5,4.7-9.9,6.91-15C234.87,233.05,242.54,216.72,246.56,203.8Z"/></svg>