<svg id="Capa_1" data-name="Capa 1" xmlns="http://www.w3.org/2000/svg" xmlns:xlink="http://www.w3.org/1999/xlink" viewBox="0 0 130 70"><defs><style>.cls-1{fill:none;}.cls-2{clip-path:url(#clip-path);}.cls-3{fill:#fff;}.cls-4{fill:#3e4248;}</style><clipPath id="clip-path"><rect class="cls-1" x="9.18" y="8.48" width="111.64" height="53.04"/></clipPath></defs><g class="cls-2"><image width="1182" height="584" transform="translate(-2.14 2.86) scale(0.11)" xlink:href="../elementos/logocsj_dgrp2020.png"/><rect class="cls-3" x="9.23" y="52.17" width="111.55" height="7.05"/><path class="cls-4" d="M9.91,54.15A8.31,8.31,0,0,1,11,54.08a2.28,2.28,0,0,1,1.46.38,1.59,1.59,0,0,1,.61,1.35,1.84,1.84,0,0,1-.59,1.45,2.61,2.61,0,0,1-1.65.46,6.35,6.35,0,0,1-.92,0Zm.8,2.92a1.28,1.28,0,0,0,.29,0,1.12,1.12,0,0,0,1.21-1.26,1,1,0,0,0-1.13-1.13,1.58,1.58,0,0,0-.37,0Z"/><path class="cls-4" d="M14.49,54.1v3.58h-.81V54.1Z"/><path class="cls-4" d="M15.27,54.15a7.58,7.58,0,0,1,1.08-.07,1.86,1.86,0,0,1,1.16.28.92.92,0,0,1,.33.75,1,1,0,0,1-.64.88v0a.88.88,0,0,1,.48.66,9.83,9.83,0,0,0,.29,1h-.83a4.9,4.9,0,0,1-.24-.83c-.1-.45-.25-.57-.59-.57h-.24v1.4h-.8Zm.8,1.54h.32c.4,0,.64-.2.64-.51s-.22-.5-.59-.5a1.36,1.36,0,0,0-.37,0Z"/><path class="cls-4" d="M20.62,56.17H19.31V57h1.47v.66H18.5V54.1h2.2v.67H19.31v.74h1.31Z"/><path class="cls-4" d="M24,57.58a2.22,2.22,0,0,1-.92.16A1.71,1.71,0,0,1,21.24,56a1.83,1.83,0,0,1,2-1.9,2,2,0,0,1,.88.16l-.16.64a1.77,1.77,0,0,0-.68-.14A1.08,1.08,0,0,0,22.1,55.9a1.06,1.06,0,0,0,1.14,1.17,1.88,1.88,0,0,0,.68-.12Z"/><path class="cls-4" d="M27.12,57.58a2.22,2.22,0,0,1-.92.16A1.71,1.71,0,0,1,24.32,56a1.83,1.83,0,0,1,2-1.9,2,2,0,0,1,.88.16l-.17.64a1.69,1.69,0,0,0-.68-.14,1.08,1.08,0,0,0-1.13,1.19,1.06,1.06,0,0,0,1.14,1.17A1.92,1.92,0,0,0,27,57Z"/><path class="cls-4" d="M28.54,54.1v3.58h-.81V54.1Z"/><path class="cls-4" d="M32.59,55.86a1.7,1.7,0,0,1-1.75,1.88,1.67,1.67,0,0,1-1.69-1.82,1.73,1.73,0,0,1,1.75-1.87A1.66,1.66,0,0,1,32.59,55.86ZM30,55.9c0,.7.33,1.2.87,1.2s.86-.52.86-1.21-.31-1.2-.86-1.2S30,55.21,30,55.9Zm1.79-2.65-.65.66H30.5l.45-.66Z"/><path class="cls-4" d="M33.21,57.68V54.1h.94l.74,1.32a10,10,0,0,1,.59,1.23h0a13.93,13.93,0,0,1-.07-1.49v-1h.75v3.58h-.85l-.77-1.37A13.57,13.57,0,0,1,33.93,55h0c0,.48,0,1,0,1.57v1.07Z"/><path class="cls-4" d="M38.1,54.15a8.43,8.43,0,0,1,1.09-.07,2.33,2.33,0,0,1,1.47.38,1.58,1.58,0,0,1,.6,1.35,1.84,1.84,0,0,1-.59,1.45,2.59,2.59,0,0,1-1.65.46,6.55,6.55,0,0,1-.92,0Zm.81,2.92a1.19,1.19,0,0,0,.28,0,1.12,1.12,0,0,0,1.21-1.26,1,1,0,0,0-1.13-1.13,1.48,1.48,0,0,0-.36,0Z"/><path class="cls-4" d="M44,56.17H42.68V57h1.47v.66H41.87V54.1h2.21v.67h-1.4v.74H44Z"/><path class="cls-4" d="M44.79,54.1h.81V57H47v.67H44.79Z"/><path class="cls-4" d="M48.73,54.15a7.47,7.47,0,0,1,1.08-.07,1.81,1.81,0,0,1,1.15.28.89.89,0,0,1,.33.75,1,1,0,0,1-.63.88v0a.88.88,0,0,1,.48.66,9.83,9.83,0,0,0,.29,1H50.6a5.63,5.63,0,0,1-.25-.83c-.09-.45-.25-.57-.58-.57h-.24v1.4h-.8Zm.8,1.54h.32c.4,0,.64-.2.64-.51s-.22-.5-.59-.5a1.36,1.36,0,0,0-.37,0Z"/><path class="cls-4" d="M54.08,56.17H52.77V57h1.47v.66H52V54.1h2.2v.67H52.77v.74h1.31Z"/><path class="cls-4" d="M57.86,57.52a3.86,3.86,0,0,1-1.2.2,2,2,0,0,1-1.45-.48,1.76,1.76,0,0,1-.51-1.3,1.85,1.85,0,0,1,2-1.87,2.59,2.59,0,0,1,1,.17l-.17.65a1.92,1.92,0,0,0-.83-.15,1.17,1.17,0,0,0-.06,2.33,1.21,1.21,0,0,0,.4,0v-.76h-.56v-.63h1.34Z"/><path class="cls-4" d="M59.38,54.1v3.58h-.81V54.1Z"/><path class="cls-4" d="M60.19,56.85a2.05,2.05,0,0,0,.9.22c.37,0,.56-.15.56-.39s-.17-.35-.59-.5c-.6-.21-1-.53-1-1.06s.51-1.07,1.35-1.07a2.16,2.16,0,0,1,.92.18l-.18.65a1.68,1.68,0,0,0-.75-.17c-.35,0-.52.16-.52.34s.2.33.66.51c.64.23.93.56.93,1.07S62,57.74,61,57.74a2.38,2.38,0,0,1-1-.22Z"/><path class="cls-4" d="M63.8,54.78h-1V54.1h2.76v.68h-1v2.9H63.8Z"/><path class="cls-4" d="M66.1,54.15a7.42,7.42,0,0,1,1.07-.07,1.86,1.86,0,0,1,1.16.28.92.92,0,0,1,.33.75A1,1,0,0,1,68,56v0a.88.88,0,0,1,.48.66,9.83,9.83,0,0,0,.29,1H68a3.85,3.85,0,0,1-.25-.83c-.1-.45-.25-.57-.58-.57H66.9v1.4h-.8Zm.8,1.54h.31c.41,0,.65-.2.65-.51s-.23-.5-.6-.5a1.27,1.27,0,0,0-.36,0Z"/><path class="cls-4" d="M72.57,55.86a1.7,1.7,0,0,1-1.75,1.88,1.67,1.67,0,0,1-1.69-1.82,1.73,1.73,0,0,1,1.75-1.87A1.66,1.66,0,0,1,72.57,55.86ZM70,55.9c0,.7.33,1.2.87,1.2s.86-.52.86-1.21-.31-1.2-.86-1.2S70,55.21,70,55.9Z"/><path class="cls-4" d="M74.34,54.15a8.43,8.43,0,0,1,1.09-.07,2.33,2.33,0,0,1,1.47.38,1.58,1.58,0,0,1,.6,1.35,1.84,1.84,0,0,1-.59,1.45,2.61,2.61,0,0,1-1.65.46,6.55,6.55,0,0,1-.92,0Zm.81,2.92a1.19,1.19,0,0,0,.28,0,1.12,1.12,0,0,0,1.21-1.26,1,1,0,0,0-1.13-1.13,1.48,1.48,0,0,0-.36,0Z"/><path class="cls-4" d="M80.24,56.17H78.92V57h1.47v.66H78.11V54.1h2.21v.67h-1.4v.74h1.32Z"/><path class="cls-4" d="M83,56.76l-.26.92h-.83L83,54.1h1.06l1.11,3.58h-.87L84,56.76Zm.91-.6-.23-.76c-.06-.21-.12-.48-.18-.69h0c0,.21-.1.48-.16.69l-.22.76Z"/><path class="cls-4" d="M86.36,54.1v2.06c0,.62.23.94.65.94s.65-.3.65-.94V54.1h.81v2c0,1.11-.56,1.63-1.49,1.63s-1.43-.5-1.43-1.64v-2Z"/><path class="cls-4" d="M89.94,54.78H89V54.1h2.75v.68h-1v2.9h-.81Z"/><path class="cls-4" d="M95.36,55.86a1.7,1.7,0,0,1-1.76,1.88,1.67,1.67,0,0,1-1.68-1.82,1.73,1.73,0,0,1,1.74-1.87A1.67,1.67,0,0,1,95.36,55.86Zm-2.59,0c0,.7.33,1.2.87,1.2s.86-.52.86-1.21-.3-1.2-.86-1.2S92.77,55.21,92.77,55.9Z"/><path class="cls-4" d="M99,56.32c0-.44,0-1,0-1.48h0c-.11.46-.26,1-.4,1.39l-.44,1.39h-.63l-.38-1.38a13.72,13.72,0,0,1-.32-1.4h0c0,.49,0,1-.06,1.49l-.07,1.35h-.75l.23-3.58H97.2l.35,1.2c.11.41.22.86.3,1.28h0c.1-.41.22-.89.34-1.28l.38-1.2h1.06l.19,3.58h-.79Z"/><path class="cls-4" d="M103.81,55.86a1.7,1.7,0,0,1-1.75,1.88,1.67,1.67,0,0,1-1.69-1.82,1.73,1.73,0,0,1,1.75-1.87A1.66,1.66,0,0,1,103.81,55.86Zm-2.58,0c0,.7.33,1.2.87,1.2s.86-.52.86-1.21-.31-1.2-.86-1.2S101.23,55.21,101.23,55.9Z"/><path class="cls-4" d="M105,54.78h-1V54.1h2.76v.68h-1v2.9H105Z"/><path class="cls-4" d="M110.38,55.86a1.7,1.7,0,0,1-1.75,1.88,1.67,1.67,0,0,1-1.69-1.82,1.73,1.73,0,0,1,1.75-1.87A1.66,1.66,0,0,1,110.38,55.86Zm-2.58,0c0,.7.33,1.2.87,1.2s.86-.52.86-1.21-.31-1.2-.86-1.2S107.8,55.21,107.8,55.9Z"/><path class="cls-4" d="M111,54.15a7.42,7.42,0,0,1,1.07-.07,1.84,1.84,0,0,1,1.16.28.92.92,0,0,1,.33.75,1,1,0,0,1-.63.88v0a.88.88,0,0,1,.48.66,9.83,9.83,0,0,0,.29,1h-.83a3.85,3.85,0,0,1-.25-.83c-.1-.45-.25-.57-.58-.57h-.24v1.4H111Zm.8,1.54h.32c.4,0,.64-.2.64-.51s-.23-.5-.6-.5a1.32,1.32,0,0,0-.36,0Z"/><path class="cls-4" d="M116.35,56.17H115V57h1.48v.66h-2.29V54.1h2.21v.67H115v.74h1.32Z"/><path class="cls-4" d="M117.16,56.85a2.13,2.13,0,0,0,.9.22c.37,0,.57-.15.57-.39s-.17-.35-.6-.5c-.6-.21-1-.53-1-1.06s.52-1.07,1.36-1.07a2.08,2.08,0,0,1,.91.18l-.18.65a1.67,1.67,0,0,0-.74-.17c-.36,0-.53.16-.53.34s.2.33.67.51c.63.23.92.56.92,1.07S119,57.74,118,57.74a2.37,2.37,0,0,1-1-.22Z"/></g></svg>