<svg id="Capa_1" data-name="Capa 1" xmlns="http://www.w3.org/2000/svg" viewBox="0 0 20 20"><defs><style>.cls-1{fill:#7fb8a7;}</style></defs><path class="cls-1" d="M13.06,6.29a.68.68,0,1,0,.67.67A.67.67,0,0,0,13.06,6.29Z"/><path class="cls-1" d="M10.05,7.16A2.84,2.84,0,1,0,12.89,10,2.85,2.85,0,0,0,10.05,7.16Zm0,4.66A1.82,1.82,0,1,1,11.87,10,1.82,1.82,0,0,1,10.05,11.82Z"/><path class="cls-1" d="M12.31,15.77H7.69a3.46,3.46,0,0,1-3.46-3.46V7.69A3.46,3.46,0,0,1,7.69,4.23h4.62a3.46,3.46,0,0,1,3.46,3.46v4.62A3.46,3.46,0,0,1,12.31,15.77ZM7.69,5.31A2.39,2.39,0,0,0,5.31,7.69v4.62a2.39,2.39,0,0,0,2.38,2.38h4.62a2.39,2.39,0,0,0,2.38-2.38V7.69a2.39,2.39,0,0,0-2.38-2.38Z"/></svg>