<svg id="Capa_1" data-name="Capa 1" xmlns="http://www.w3.org/2000/svg" viewBox="0 0 60 80"><defs><style>.cls-1,.cls-3{fill:#1d1d1b;}.cls-1,.cls-2,.cls-4,.cls-5{fill-rule:evenodd;}.cls-2{fill:#fff;}.cls-4{fill:#fffffd;}.cls-5{fill:#eeefef;}</style></defs><path class="cls-1" d="M30,8.2C44.52,8.2,56.29,22.43,56.29,40S44.52,71.8,30,71.8,3.71,57.57,3.71,40,15.48,8.2,30,8.2Z"/><path class="cls-2" d="M30,9.16C44.08,9.16,55.49,23,55.49,40S44.08,70.84,30,70.84,4.51,57,4.51,40,15.92,9.16,30,9.16Z"/><path class="cls-1" d="M30,13.29c11.72,0,21.23,12,21.23,26.71S41.72,66.71,30,66.71,8.77,54.75,8.77,40,18.28,13.29,30,13.29Z"/><path class="cls-2" d="M30,14.32c11.22,0,20.31,11.52,20.31,25.72S41.22,65.76,30,65.76,9.69,54.25,9.69,40,18.78,14.32,30,14.32Z"/><path class="cls-3" d="M15.25,26l.42.31L15,27.49l0,0,0,0a.22.22,0,0,0,0-.1.13.13,0,0,0,0-.07.49.49,0,0,0-.11-.08L14,26.69a.33.33,0,0,0-.13-.06.11.11,0,0,0-.07,0,.22.22,0,0,0-.06.07l0,0,0,0,.4-.68,0,0,0,.05a.49.49,0,0,0,0,.11.09.09,0,0,0,0,.06s.05,0,.11.08l.82.48a.35.35,0,0,0,.14.06.07.07,0,0,0,.06,0s0,0,.08-.11l.06-.11a.38.38,0,0,0,.06-.19.34.34,0,0,0,0-.19.79.79,0,0,0-.18-.22l0,0Z"/><path class="cls-3" d="M14.88,24.94l.51.33v0a.23.23,0,0,0,0-.22.56.56,0,0,0-.18-.21l0,0,.65.43,0,0a.74.74,0,0,0-.21-.07.26.26,0,0,0-.14,0,.34.34,0,0,0-.12.12l.36.23a.57.57,0,0,0,.13.07H16a.14.14,0,0,0,.06-.07l.05-.07a.5.5,0,0,0,.1-.33.52.52,0,0,0-.15-.32l0,0,.36.31-.7,1.09,0,0,0,0,0-.1a.14.14,0,0,0,0-.06.39.39,0,0,0-.11-.09l-.83-.53-.1-.07h-.08a.2.2,0,0,0-.08.08l0,0,0,0,.67-1,.37.24,0,0a.49.49,0,0,0-.24-.05.36.36,0,0,0-.18.08,1.26,1.26,0,0,0-.14.18l-.08.13Z"/><path class="cls-3" d="M16.38,23.68h.73a.75.75,0,0,0,.24,0,.24.24,0,0,0,.09-.06l0,0-.41.6,0,0a.29.29,0,0,0,.05-.1s0,0,0-.05l0,0h-.54l.1.35a.51.51,0,0,0,.08.18h.07a.13.13,0,0,0,.07,0,.22.22,0,0,0,.06-.07l0,0-.33.47,0,0a.33.33,0,0,0,.05-.15,1.13,1.13,0,0,0-.06-.29L16.39,24h-.86l-.08,0-.06.05,0,0,.43-.61,0,0,0,0s0,.07,0,.09a.08.08,0,0,0,0,0l0,0h.48l-.07-.24a.65.65,0,0,0-.1-.22l-.06,0-.06,0a.3.3,0,0,0-.07.08l0,0,.31-.45,0,0a.2.2,0,0,0-.05.09.17.17,0,0,0,0,.1,1.33,1.33,0,0,0,.05.21l.12.43Z"/><path class="cls-3" d="M17.2,21.82l.46.4,0,0a.24.24,0,0,0,.06-.22.53.53,0,0,0-.14-.23l0,0,.59.51,0,0a.75.75,0,0,0-.2-.1.21.21,0,0,0-.14,0,.29.29,0,0,0-.13.1l.32.28.12.09h.06l.07-.06.06-.07a.51.51,0,0,0,.14-.32.57.57,0,0,0-.1-.33l0,0,.31.36-.84,1,0,0,0,0a.19.19,0,0,0,.05-.1s0,0,0-.07a.84.84,0,0,0-.1-.1l-.74-.64c-.05,0-.08-.07-.1-.07a.09.09,0,0,0-.07,0,.2.2,0,0,0-.1.07l0,0,0,0,.81-.95.34.29,0,0a.53.53,0,0,0-.23-.08.34.34,0,0,0-.19.05,1.44,1.44,0,0,0-.16.17l-.1.11Z"/><path class="cls-3" d="M18.54,20.22l.35.35,0,0a.54.54,0,0,0-.32-.11.41.41,0,0,0-.27.11.33.33,0,0,0-.09.16.2.2,0,0,0,0,.15l.08.05h.14l.26-.07a1.13,1.13,0,0,1,.43-.07.41.41,0,0,1,.24.13.4.4,0,0,1,.12.33.52.52,0,0,1-.18.35.81.81,0,0,1-.1.09l-.15.06-.08,0a.16.16,0,0,0,0,.06A.25.25,0,0,0,19,22l0,0-.39-.41,0,0a.62.62,0,0,0,.39.14.45.45,0,0,0,.3-.12.24.24,0,0,0,.09-.18.21.21,0,0,0-.05-.17l-.09-.05h-.13a1.3,1.3,0,0,0-.23.06l-.32.08a.68.68,0,0,1-.21,0,.39.39,0,0,1-.17-.11.4.4,0,0,1-.11-.31.42.42,0,0,1,.15-.32l.11-.08a.32.32,0,0,1,.13,0l.1-.05a.08.08,0,0,0,0,0,.16.16,0,0,0,0-.09l0,0Z"/><path class="cls-3" d="M19.83,19.12l.26.31,0,0a.7.7,0,0,0-.19-.1.38.38,0,0,0-.15,0l-.13.08-.08.07.75.88a.43.43,0,0,0,.1.1h.07l.09,0,0,0,0,0-.59.5,0,0,0,0a.24.24,0,0,0,.06-.09.08.08,0,0,0,0-.07L20,20.61l-.74-.87-.08.07A.29.29,0,0,0,19,20a.42.42,0,0,0,.07.27l0,0-.26-.3,1-.87Z"/><path class="cls-3" d="M22.14,19.25a.56.56,0,0,0,.26.1.48.48,0,0,0,.26-.09l.07-.06,0,.05a1.28,1.28,0,0,1-.22.2.75.75,0,0,1-.36.13.64.64,0,0,1-.37-.11.75.75,0,0,1-.51,0,.8.8,0,0,1-.41-.32.75.75,0,0,1-.13-.59.79.79,0,0,1,.35-.5.75.75,0,0,1,1.09.2.79.79,0,0,1,.14.51.68.68,0,0,1-.21.45Zm-1-1.09a.32.32,0,0,0-.13.34,1,1,0,0,0,.2.46.91.91,0,0,0,.43.39.31.31,0,0,0,.29,0,.3.3,0,0,0,.14-.25.93.93,0,0,0-.19-.53,1.21,1.21,0,0,0-.37-.38.33.33,0,0,0-.37,0Z"/><path class="cls-3" d="M22,17.56l.67-.38,0,0,0,0c-.05,0-.09.05-.1.07s0,.05,0,.07a.41.41,0,0,0,.07.15l.36.63a.9.9,0,0,0,.16.21.34.34,0,0,0,.14.05.41.41,0,0,0,.17-.05.45.45,0,0,0,.15-.16.26.26,0,0,0,0-.19,1,1,0,0,0-.13-.31l-.31-.52a.31.31,0,0,0-.09-.12A.1.1,0,0,0,23,17a.27.27,0,0,0-.13.05l0,0,.44-.26,0,0h0a.15.15,0,0,0-.08.08.13.13,0,0,0,0,.09.51.51,0,0,0,.05.12l.29.49a1.55,1.55,0,0,1,.16.34.45.45,0,0,1,0,.27.54.54,0,0,1-.27.27.67.67,0,0,1-.28.11.39.39,0,0,1-.27-.06.62.62,0,0,1-.2-.22l-.36-.63a.87.87,0,0,0-.1-.14h-.07a.24.24,0,0,0-.12.05l0,0Z"/><path class="cls-3" d="M24.34,16.33a.74.74,0,0,1,1,.39.78.78,0,0,1,.05.52.83.83,0,0,1-1.14.5.71.71,0,0,1-.36-.4.74.74,0,0,1,0-.6.73.73,0,0,1,.43-.41Zm0,.06a.34.34,0,0,0-.21.32,1.05,1.05,0,0,0,.12.49.91.91,0,0,0,.34.46.3.3,0,0,0,.29,0,.28.28,0,0,0,.15-.13.44.44,0,0,0,.05-.26,1.22,1.22,0,0,0-.1-.4,1.33,1.33,0,0,0-.23-.38.43.43,0,0,0-.21-.14.46.46,0,0,0-.2,0Z"/><path class="cls-3" d="M25.77,17.38v0h0l.09,0a.25.25,0,0,0,0-.07.87.87,0,0,0,0-.14l-.25-.95a.7.7,0,0,0-.05-.13.09.09,0,0,0-.06,0H25.4v0l.65-.17a1,1,0,0,1,.43,0,.57.57,0,0,1,.36.18.8.8,0,0,1,.21.37,1,1,0,0,1,0,.29.61.61,0,0,1-.07.25.49.49,0,0,1-.14.18,1,1,0,0,1-.23.14.88.88,0,0,1-.2.07l-.65.17Zm.19-1.5.3,1.12a.53.53,0,0,0,0,.11.05.05,0,0,0,0,0,.11.11,0,0,0,.08,0,.35.35,0,0,0,.24-.2.82.82,0,0,0,0-.54,1,1,0,0,0-.21-.42.39.39,0,0,0-.22-.13.6.6,0,0,0-.27,0Z"/><path class="cls-3" d="M28.61,15.25l.07.51h-.05a.51.51,0,0,0-.21-.28.43.43,0,0,0-.31-.07.41.41,0,0,0-.25.11.49.49,0,0,0-.14.23.91.91,0,0,0,0,.37,1.06,1.06,0,0,0,.09.36.46.46,0,0,0,.19.22.37.37,0,0,0,.28.05.5.5,0,0,0,.25-.09.87.87,0,0,0,.22-.24l0,.13a.82.82,0,0,1-.24.22.87.87,0,0,1-.31.1,1,1,0,0,1-.43-.05.72.72,0,0,1-.46-.6.77.77,0,0,1,.06-.42.93.93,0,0,1,.26-.33.82.82,0,0,1,.39-.15.79.79,0,0,1,.34,0l.13,0s0,0,.06,0a.2.2,0,0,0,0-.09Z"/><path class="cls-3" d="M28.9,15.24l.77,0v0h0l-.12,0-.05.05a.79.79,0,0,0,0,.16l0,.73a.51.51,0,0,0,0,.26.21.21,0,0,0,.1.11.34.34,0,0,0,.18,0,.32.32,0,0,0,.2-.06.29.29,0,0,0,.12-.15.79.79,0,0,0,0-.34l0-.61a.42.42,0,0,0,0-.14.1.1,0,0,0-.05-.06l-.15,0v0l.52,0v0h0l-.1,0a.16.16,0,0,0-.06.08.45.45,0,0,0,0,.13l0,.57a1.36,1.36,0,0,1,0,.38.44.44,0,0,1-.16.22.62.62,0,0,1-.36.11.8.8,0,0,1-.3,0,.41.41,0,0,1-.21-.17.6.6,0,0,1-.07-.3l0-.73a.4.4,0,0,0,0-.15.08.08,0,0,0-.05,0l-.13,0v0Z"/><path class="cls-3" d="M31.67,16.32l.52-.93.6.08v0h-.15a.08.08,0,0,0-.05.05.4.4,0,0,0,0,.13l-.12,1a1,1,0,0,0,0,.14.13.13,0,0,0,0,.06l.09,0h0v0l-.78-.1v0H32l0,0a.71.71,0,0,0,0-.14l.14-1.09-.73,1.28h0L31,15.39l-.13,1.05a.85.85,0,0,0,0,.13.14.14,0,0,0,.05.1.38.38,0,0,0,.14,0v0l-.51-.06v0h.11a.15.15,0,0,0,.07,0,.59.59,0,0,0,0-.08s0,0,0-.11l.11-.94a1,1,0,0,0,0-.14.08.08,0,0,0-.05,0,.19.19,0,0,0-.09,0h0v0l.61.07.3,1Z"/><path class="cls-3" d="M33.7,17.23a.4.4,0,0,0,.1.25.36.36,0,0,0,.23.14l.1,0,0,.06a1.39,1.39,0,0,1-.3,0,.69.69,0,0,1-.32-.19.63.63,0,0,1-.16-.35.72.72,0,0,1-.36-.37.82.82,0,0,1,.33-1,.85.85,0,0,1,.61-.07.75.75,0,0,1,.49.37.71.71,0,0,1,.07.59.76.76,0,0,1-.3.44.64.64,0,0,1-.47.14Zm.19-1.46a.35.35,0,0,0-.35.12,1,1,0,0,0-.21.46.9.9,0,0,0,0,.58.33.33,0,0,0,.5.14.91.91,0,0,0,.27-.5,1.17,1.17,0,0,0,.06-.52.36.36,0,0,0-.25-.28Z"/><path class="cls-3" d="M35,16l.71.3v0h0a.24.24,0,0,0-.12,0l-.06,0a.58.58,0,0,0-.07.14l-.29.67a1,1,0,0,0-.08.26.27.27,0,0,0,0,.14.37.37,0,0,0,.15.11.39.39,0,0,0,.21,0,.32.32,0,0,0,.17-.09.87.87,0,0,0,.17-.29l.24-.56a.33.33,0,0,0,0-.14.08.08,0,0,0,0-.07.24.24,0,0,0-.11-.08v0l.47.2v0h0a.22.22,0,0,0-.11,0,.14.14,0,0,0-.08.05s0,.05-.06.11l-.23.52a1.17,1.17,0,0,1-.18.33.35.35,0,0,1-.24.13.56.56,0,0,1-.37-.05.78.78,0,0,1-.26-.17.43.43,0,0,1-.11-.24.61.61,0,0,1,.06-.3l.29-.67a.79.79,0,0,0,0-.15.13.13,0,0,0,0-.07.27.27,0,0,0-.11-.06v0Z"/><path class="cls-3" d="M37,17.07l-.27.54h0a.22.22,0,0,0,.22,0,.57.57,0,0,0,.19-.19h0l-.35.7,0,0a.59.59,0,0,0,0-.21.2.2,0,0,0,0-.14.29.29,0,0,0-.13-.1l-.19.38-.06.14a.17.17,0,0,0,0,.05.22.22,0,0,0,.07.06l.08,0a.55.55,0,0,0,.34.06.48.48,0,0,0,.3-.18l0,0-.28.39-1.15-.58,0,0,0,0,.11,0a.09.09,0,0,0,.06,0s0-.05.07-.12l.45-.87c0-.06,0-.1,0-.12a.17.17,0,0,0,0-.07.24.24,0,0,0-.09-.08l0,0v0l1.12.57-.2.39,0,0a.62.62,0,0,0,0-.25.39.39,0,0,0-.1-.16.92.92,0,0,0-.2-.12L37,17.07Z"/><path class="cls-3" d="M39,18.14l.09,1.18.36-.53c.05-.07.08-.13.07-.17a.18.18,0,0,0-.11-.15l0,0,.41.28,0,0-.12-.05-.08,0a.44.44,0,0,0-.1.12l-.7,1,0,0-.13-1.59-.54.78a.23.23,0,0,0,0,.18.31.31,0,0,0,.09.11l0,0,0,0-.43-.29,0,0a.22.22,0,0,0,.17.06A.24.24,0,0,0,38,19l.6-.86v-.06a.31.31,0,0,0,0-.11.19.19,0,0,0-.08-.07l0,0,.43.3Z"/><path class="cls-3" d="M40.64,19.4a.68.68,0,0,1,.3.53.72.72,0,0,1-.19.57.81.81,0,0,1-.45.27.74.74,0,0,1-.66-.19.75.75,0,0,1-.29-.61.82.82,0,0,1,.73-.78.74.74,0,0,1,.56.21Zm0,.06a.33.33,0,0,0-.37,0,1.12,1.12,0,0,0-.39.31,1,1,0,0,0-.26.52.34.34,0,0,0,.3.35.6.6,0,0,0,.26-.07,1.48,1.48,0,0,0,.3-.28,1.12,1.12,0,0,0,.24-.37.38.38,0,0,0,0-.25.3.3,0,0,0-.11-.17Z"/><path class="cls-3" d="M42.35,21l-.28.29,0,0a.91.91,0,0,0,.08-.2.26.26,0,0,0,0-.15.36.36,0,0,0-.09-.12l-.08-.07-.8.83a.53.53,0,0,0-.09.11v.07a.24.24,0,0,0,.06.09l0,0,0,0-.56-.54,0,0,0,0a.24.24,0,0,0,.09.06.09.09,0,0,0,.07,0s0,0,.1-.09l.8-.83-.08-.07a.31.31,0,0,0-.2-.11.41.41,0,0,0-.26.1l0,0,.28-.29,1,.93Z"/><path class="cls-3" d="M42.18,22.51l-.34-.4-.15.05a.23.23,0,0,0-.11.05.09.09,0,0,0,0,.1.42.42,0,0,0,.07.13l0,0-.32-.38,0,0a.2.2,0,0,0,.14.06.81.81,0,0,0,.25-.05l1.25-.37v0l-.57,1.2a.6.6,0,0,0-.09.24.21.21,0,0,0,0,.1l0,0-.47-.55,0,0,0,0a.31.31,0,0,0,.1.08s0,0,.05,0l0,0,0-.08.09-.18Zm0-.08.24-.5-.54.16.3.34Z"/><path class="cls-3" d="M43.37,23.86l1-.27.37.48,0,0,0,0s-.05-.06-.08-.07h-.07a.41.41,0,0,0-.12.07l-.78.6a.39.39,0,0,0-.11.09.15.15,0,0,0,0,.07.2.2,0,0,0,0,.09l0,0,0,0-.47-.62,0,0,0,0a.18.18,0,0,0,.09.07h.07l.11-.07.88-.67-1.43.37v0l.72-1.28-.83.63-.11.09a.17.17,0,0,0,0,.1.24.24,0,0,0,.06.14l0,0-.31-.41,0,0h0a.13.13,0,0,0,.07.06.13.13,0,0,0,.08,0l.08,0,.09-.07.75-.57a.59.59,0,0,0,.11-.1s0,0,0-.07a.44.44,0,0,0,0-.09l0,0,0,0,.37.49-.53.92Z"/><path class="cls-3" d="M44.86,24.26l.42.65,0,0,0,0a.24.24,0,0,0-.08-.09.09.09,0,0,0-.07,0l-.14.07-.61.4a.58.58,0,0,0-.21.17.23.23,0,0,0,0,.14.32.32,0,0,0,.06.17.35.35,0,0,0,.16.14.32.32,0,0,0,.19,0,.92.92,0,0,0,.31-.15l.51-.33a.35.35,0,0,0,.11-.09.24.24,0,0,0,0-.08.36.36,0,0,0-.06-.13l0,0,.28.43,0,0v0a.17.17,0,0,0-.08-.07.11.11,0,0,0-.1,0l-.11.05-.48.31a2.38,2.38,0,0,1-.33.18.47.47,0,0,1-.28,0,.64.64,0,0,1-.28-.25.71.71,0,0,1-.12-.28.46.46,0,0,1,0-.27.74.74,0,0,1,.22-.21l.61-.4a.31.31,0,0,0,.13-.1.14.14,0,0,0,0-.07l-.06-.11,0,0Z"/><path class="cls-3" d="M46.3,26.56l-.43.25,0,0a.51.51,0,0,0,.18-.29.4.4,0,0,0,0-.29.22.22,0,0,0-.14-.13.2.2,0,0,0-.15,0,.12.12,0,0,0-.06.06.29.29,0,0,0,0,.14,1.38,1.38,0,0,0,0,.27,1,1,0,0,1,0,.43.37.37,0,0,1-.18.21.42.42,0,0,1-.35,0,.49.49,0,0,1-.3-.25.67.67,0,0,1-.06-.12s0-.1,0-.16a.2.2,0,0,0,0-.09.1.1,0,0,0-.05,0,.13.13,0,0,0-.09,0l0,0,.49-.28,0,0a.71.71,0,0,0-.22.35.43.43,0,0,0,0,.32.26.26,0,0,0,.16.13.2.2,0,0,0,.17,0A.14.14,0,0,0,45.2,27a.21.21,0,0,0,0-.12.85.85,0,0,0,0-.23,1.88,1.88,0,0,1,0-.34.68.68,0,0,1,.07-.2.44.44,0,0,1,.14-.13.39.39,0,0,1,.33,0,.47.47,0,0,1,.28.22.69.69,0,0,1,0,.13.51.51,0,0,1,0,.13.42.42,0,0,0,0,.11s0,0,0,0,.05,0,.09,0l0,0Z"/><path class="cls-3" d="M8.86,49.51l-.72.19,0-.06a.76.76,0,0,0,.37-.36.66.66,0,0,0-.17-.79A.66.66,0,0,0,8,48.33a1.44,1.44,0,0,0-.54,0,1.75,1.75,0,0,0-.48.21.61.61,0,0,0-.31.73,1,1,0,0,0,.18.34,1.39,1.39,0,0,0,.39.26L7,50a1.34,1.34,0,0,1-.36-.29,1.37,1.37,0,0,1-.22-1.05,1,1,0,0,1,.28-.5,1.05,1.05,0,0,1,.49-.28,1.15,1.15,0,0,1,.61,0,1.07,1.07,0,0,1,.52.31,1.19,1.19,0,0,1,.3.52,1.56,1.56,0,0,1,0,.49.56.56,0,0,0,0,.19.08.08,0,0,0,.05.07.18.18,0,0,0,.13,0l0,.06Z"/><path class="cls-3" d="M9.27,50.7a1.06,1.06,0,0,1,0,.89,1,1,0,0,1-.65.56,1.14,1.14,0,0,1-.75,0,1.07,1.07,0,0,1-.68-.72,1.06,1.06,0,0,1,.08-1A1.11,1.11,0,0,1,7.87,50a1.07,1.07,0,0,1,.86,0,1.05,1.05,0,0,1,.54.66Zm-.09,0a.48.48,0,0,0-.43-.32,1.54,1.54,0,0,0-.71.11,1.3,1.3,0,0,0-.71.44.45.45,0,0,0,0,.42.44.44,0,0,0,.16.23.61.61,0,0,0,.38.1,2,2,0,0,0,.57-.11A2.08,2.08,0,0,0,9,51.34a.67.67,0,0,0,.22-.29.51.51,0,0,0,0-.3Z"/><path class="cls-3" d="M9.16,54.18l-.72.22-.75-1.76.06,0,0,.07a.23.23,0,0,0,.09.12.12.12,0,0,0,.09,0l.19-.06,1.3-.55a.51.51,0,0,0,.19-.1.12.12,0,0,0,0-.09.24.24,0,0,0,0-.14l0-.07.05,0,.45,1,0,0,0-.09a.48.48,0,0,0-.09-.13l-.1,0a.63.63,0,0,0-.19.07l-1.26.53a.44.44,0,0,0-.18.1.1.1,0,0,0,0,.09,1.87,1.87,0,0,0,.07.18l.06.17a.74.74,0,0,0,.17.24.64.64,0,0,0,.25.11,2.06,2.06,0,0,0,.42,0l0,.06Z"/><path class="cls-3" d="M10.74,54.43l-.78.4,0,0a.34.34,0,0,0,.25.2.72.72,0,0,0,.39-.06l0,.05-1,.51,0,0a.8.8,0,0,0,.23-.21.3.3,0,0,0,.08-.2.46.46,0,0,0-.07-.22l-.54.27a.76.76,0,0,0-.19.11.11.11,0,0,0,0,.08.27.27,0,0,0,0,.13l.06.12a.71.71,0,0,0,.34.36.76.76,0,0,0,.5,0l0,0-.66.23-.84-1.65,0,0,0,.06a.25.25,0,0,0,.1.12.12.12,0,0,0,.1,0A.53.53,0,0,0,9,54.73l1.26-.65.16-.08a.31.31,0,0,0,.05-.1.37.37,0,0,0,0-.16l0-.07.05,0,.82,1.6-.57.29,0-.06a.8.8,0,0,0,.24-.26.52.52,0,0,0,0-.28,1.2,1.2,0,0,0-.13-.31l-.1-.2Z"/><path class="cls-3" d="M12.61,57.24l-.65.4,0,0a1,1,0,0,0,.24-.52.74.74,0,0,0-.11-.48.64.64,0,0,0-.32-.27.82.82,0,0,0-.44,0,2.11,2.11,0,0,0-.46.21,1.68,1.68,0,0,0-.42.34.59.59,0,0,0-.17.38.65.65,0,0,0,.11.39.47.47,0,0,0,.09.12.74.74,0,0,0,.13.12l.38-.23a.4.4,0,0,0,.13-.1.15.15,0,0,0,0-.1.24.24,0,0,0,0-.13l0,0,.05,0,.54.89-.05,0a.38.38,0,0,0-.11-.13.18.18,0,0,0-.11,0l-.13.07-.38.23a1.87,1.87,0,0,1-.34-.29,2,2,0,0,1-.28-.37,1.37,1.37,0,0,1-.2-.48,1.48,1.48,0,0,1,0-.42,1.13,1.13,0,0,1,.14-.36.93.93,0,0,1,.36-.35,1.07,1.07,0,0,1,.87-.14,1.21,1.21,0,0,1,.74.56,2,2,0,0,1,.12.26,1,1,0,0,1,.06.23.86.86,0,0,0,0,.19.13.13,0,0,0,.07.05h.14l0,0Z"/><path class="cls-3" d="M11.63,59.55l0,0-.66-.91.05,0,0,.06a.21.21,0,0,0,.11.1.11.11,0,0,0,.1,0,.68.68,0,0,0,.17-.1l1.15-.83c.09-.07.14-.11.15-.14a.11.11,0,0,0,0-.1.22.22,0,0,0-.06-.13l0-.06.05,0,.66.91-.05,0,0-.06a.35.35,0,0,0-.12-.1H13a1,1,0,0,0-.17.11l-1.14.83c-.09.06-.15.1-.16.13a.3.3,0,0,0,0,.1.53.53,0,0,0,.06.14l0,0Z"/><path class="cls-3" d="M14.08,59.25a1,1,0,0,1,.3.83,1.09,1.09,0,0,1-.41.75,1.13,1.13,0,0,1-.71.28,1.19,1.19,0,0,1-1.15-1.37,1.14,1.14,0,0,1,.41-.67,1.08,1.08,0,0,1,.82-.25,1,1,0,0,1,.74.43Zm-.07.07a.47.47,0,0,0-.51-.15,1.62,1.62,0,0,0-.63.35,1.51,1.51,0,0,0-.51.67.48.48,0,0,0,.1.41.47.47,0,0,0,.24.16.65.65,0,0,0,.38,0,1.9,1.9,0,0,0,.5-.31,1.8,1.8,0,0,0,.44-.47.55.55,0,0,0,.1-.34.45.45,0,0,0-.11-.28Z"/><path class="cls-3" d="M13.8,62.23l0,0,.05.06a.28.28,0,0,0,.12.08.14.14,0,0,0,.11,0s.07-.05.15-.12l1-1a.87.87,0,0,0,.13-.16.17.17,0,0,0,0-.1.25.25,0,0,0-.07-.12l0,0,0,0,.67.68a1.63,1.63,0,0,1,.36.52.89.89,0,0,1,0,.58,1.06,1.06,0,0,1-.32.52.92.92,0,0,1-.35.24.93.93,0,0,1-.35.08A.72.72,0,0,1,15,63.3a1.25,1.25,0,0,1-.34-.18,1.82,1.82,0,0,1-.23-.21l-.67-.68Zm2-.83-1.2,1.17-.11.12a.06.06,0,0,0,0,.06.28.28,0,0,0,.07.11A.48.48,0,0,0,15,63a1.21,1.21,0,0,0,.68-.39,1.56,1.56,0,0,0,.38-.55.61.61,0,0,0,0-.38.94.94,0,0,0-.23-.3Z"/><path class="cls-3" d="M17.47,62.9l-.58.65,0,0a.33.33,0,0,0,.31.1.83.83,0,0,0,.34-.2l0,0-.75.84,0,0A.91.91,0,0,0,17,64a.37.37,0,0,0,0-.21.48.48,0,0,0-.15-.19l-.4.45-.14.17a.14.14,0,0,0,0,.09.48.48,0,0,0,.08.11l.1.08a.73.73,0,0,0,.45.22.85.85,0,0,0,.48-.14l0,0-.53.44-1.38-1.24,0,0,0,0a.25.25,0,0,0,.14.08.18.18,0,0,0,.1,0,.83.83,0,0,0,.14-.14l.95-1L17,62.6a.12.12,0,0,0,0-.1.3.3,0,0,0-.09-.15l-.05-.05,0,0,1.34,1.2-.43.48,0,0a.73.73,0,0,0,.12-.34.46.46,0,0,0-.07-.27,1.49,1.49,0,0,0-.23-.24l-.17-.15Z"/><path class="cls-3" d="M19.59,64.47l-.47.74,0,0a.35.35,0,0,0,.32,0,.83.83,0,0,0,.3-.26l0,0-.61.94,0,0a.83.83,0,0,0,.1-.29.33.33,0,0,0,0-.21.44.44,0,0,0-.17-.16l-.33.51a.68.68,0,0,0-.1.19.12.12,0,0,0,0,.08s.05.06.1.1l.11.06a.79.79,0,0,0,.48.15.86.86,0,0,0,.45-.22l0,0-.45.52-1.57-1,0,0,.06,0a.36.36,0,0,0,.15.06.16.16,0,0,0,.09,0,.49.49,0,0,0,.12-.16L19,64.4l.09-.16a.11.11,0,0,0,0-.1A.27.27,0,0,0,19,64l-.06,0,0,0,1.51,1-.34.54-.05,0a.78.78,0,0,0,.07-.36.48.48,0,0,0-.12-.25,1.16,1.16,0,0,0-.26-.2l-.19-.12Z"/><path class="cls-3" d="M22,65.61l-.31.64-.06,0a.75.75,0,0,0,0-.49.51.51,0,0,0-.27-.32.35.35,0,0,0-.26,0,.26.26,0,0,0-.18.14.27.27,0,0,0,0,.12.6.6,0,0,0,.07.2s.1.16.22.32a1.54,1.54,0,0,1,.29.55.54.54,0,0,1-.06.39.6.6,0,0,1-.39.32.77.77,0,0,1-.57-.07.91.91,0,0,1-.16-.11l-.16-.17L20,67h-.09a.22.22,0,0,0-.11.05l-.06,0,.37-.72.06,0a.85.85,0,0,0,0,.59.61.61,0,0,0,.3.36.43.43,0,0,0,.29,0,.35.35,0,0,0,.2-.15A.4.4,0,0,0,21,67a.41.41,0,0,0,0-.18,2,2,0,0,0-.18-.28,2.3,2.3,0,0,1-.26-.41.65.65,0,0,1-.07-.29.46.46,0,0,1,.06-.28.59.59,0,0,1,.37-.3.68.68,0,0,1,.5.05.66.66,0,0,1,.17.12.92.92,0,0,1,.13.14.44.44,0,0,0,.11.12.09.09,0,0,0,.07,0s.05,0,.09-.08l.05,0Z"/><path class="cls-3" d="M24,66.54l-.29.69-.05,0a.89.89,0,0,0-.07-.52.66.66,0,0,0-.34-.3.58.58,0,0,0-.39,0,.68.68,0,0,0-.34.19,1.48,1.48,0,0,0-.3.45,2.13,2.13,0,0,0-.13.51.69.69,0,0,0,.07.42.64.64,0,0,0,.33.27.82.82,0,0,0,.38.06,1.2,1.2,0,0,0,.44-.15l-.07.17a1.14,1.14,0,0,1-.45.11,1.38,1.38,0,0,1-.46-.09,1.3,1.3,0,0,1-.51-.37,1,1,0,0,1-.23-.52,1.18,1.18,0,0,1,.08-.56,1.15,1.15,0,0,1,.37-.48,1.1,1.1,0,0,1,.57-.23,1.2,1.2,0,0,1,.59.08,1.3,1.3,0,0,1,.41.28.53.53,0,0,0,.15.12.14.14,0,0,0,.09,0,.19.19,0,0,0,.09-.09l.06,0Z"/><path class="cls-3" d="M24.47,68l-.18.57a.59.59,0,0,0,0,.22.14.14,0,0,0,.05.09.51.51,0,0,0,.18.08l0,.06-1.05-.33,0-.06.2,0a.31.31,0,0,0,.1-.05.59.59,0,0,0,.08-.2L24.23,67a.68.68,0,0,0,.05-.22.2.2,0,0,0-.05-.09.5.5,0,0,0-.19-.08l0-.06,1,.3a2.2,2.2,0,0,1,.53.22.54.54,0,0,1,.22.28.54.54,0,0,1-.27.68.7.7,0,0,1-.34.05l.27.85a1.23,1.23,0,0,0,.09.21.22.22,0,0,0,.13.1l0,0-.65-.2L24.61,68l-.14,0Zm.32-1-.28.9.08,0a1.29,1.29,0,0,0,.33.06.4.4,0,0,0,.21-.09.51.51,0,0,0,.14-.24.49.49,0,0,0,0-.38A.51.51,0,0,0,25,67l-.16,0Z"/><path class="cls-3" d="M26.74,69.5v.06l-1.1-.24,0-.06h.07a.19.19,0,0,0,.15,0,.16.16,0,0,0,.08-.06A.67.67,0,0,0,26,69l.3-1.38a1.57,1.57,0,0,0,0-.2.24.24,0,0,0-.06-.09.23.23,0,0,0-.13-.06l-.07,0v0l1.1.24v.05h-.07a.43.43,0,0,0-.16,0,.21.21,0,0,0-.08.06s0,.09-.06.19l-.3,1.38a.61.61,0,0,0,0,.21s0,0,.05.08a.26.26,0,0,0,.13.06l.07,0Z"/><path class="cls-3" d="M28.39,68.66a1.35,1.35,0,0,1,.4.23.49.49,0,0,1,.12.4.48.48,0,0,1-.25.37,1.11,1.11,0,0,1-.71.09l-1.08-.15v-.06a.47.47,0,0,0,.2,0s.07,0,.08-.07a.52.52,0,0,0,.06-.21l.19-1.38a.92.92,0,0,0,0-.22.18.18,0,0,0-.07-.08.7.7,0,0,0-.19-.06v0l1,.14a1.51,1.51,0,0,1,.51.13.6.6,0,0,1,.22.23.59.59,0,0,1,.05.29.46.46,0,0,1-.15.26.83.83,0,0,1-.42.13Zm-.57-.12a1,1,0,0,0,.34,0,.57.57,0,0,0,.18-.12.4.4,0,0,0,.09-.23.42.42,0,0,0,0-.23.27.27,0,0,0-.14-.16.8.8,0,0,0-.32-.1l-.12.84Zm0,.12-.1.69v.08a.18.18,0,0,0,0,.13.23.23,0,0,0,.12.06.62.62,0,0,0,.24,0,.45.45,0,0,0,.19-.14.46.46,0,0,0,.09-.23.65.65,0,0,0,0-.28.39.39,0,0,0-.17-.19,1.51,1.51,0,0,0-.35-.1Z"/><path class="cls-3" d="M30.34,69.29l-.76,0-.1.21a.51.51,0,0,0-.05.17.15.15,0,0,0,.07.14.94.94,0,0,0,.21,0v.06l-.71,0v0a.34.34,0,0,0,.2-.09,1.45,1.45,0,0,0,.19-.32l.83-1.68h0L31,69.5a1.38,1.38,0,0,0,.17.32.34.34,0,0,0,.15.06v.06l-1,0v-.06h.05a.27.27,0,0,0,.17,0,.08.08,0,0,0,0-.08.09.09,0,0,0,0,0,.63.63,0,0,0,0-.13l-.1-.27Zm-.05-.12L30,68.42l-.36.73.65,0Z"/><path class="cls-3" d="M32,67.69,33.12,69,33.06,68a.44.44,0,0,0-.08-.26.29.29,0,0,0-.26-.07v-.06l.71,0v.06l-.18.06a.15.15,0,0,0-.06.09.62.62,0,0,0,0,.22l.12,1.78h0l-1.57-1.69.09,1.36c0,.12,0,.21.1.24a.36.36,0,0,0,.2.06h0v.06l-.76,0v-.06a.27.27,0,0,0,.24-.09.33.33,0,0,0,.06-.24L31.55,68l-.05-.06a.45.45,0,0,0-.13-.1.34.34,0,0,0-.15,0v-.06l.76,0Z"/><path class="cls-3" d="M34.34,67.34a1,1,0,0,1,.88.09,1.07,1.07,0,0,1,.51.69,1.23,1.23,0,0,1-.06.76,1.08,1.08,0,0,1-.77.61,1.06,1.06,0,0,1-1-.16,1.12,1.12,0,0,1-.43-.65,1.16,1.16,0,0,1,.12-.86,1,1,0,0,1,.71-.48Zm0,.09a.48.48,0,0,0-.36.4,1.7,1.7,0,0,0,0,.72,1.35,1.35,0,0,0,.39.74.43.43,0,0,0,.41.09.48.48,0,0,0,.24-.14.59.59,0,0,0,.13-.37,1.56,1.56,0,0,0-.06-.58,2,2,0,0,0-.23-.6.59.59,0,0,0-.27-.24.51.51,0,0,0-.3,0Z"/><path class="cls-3" d="M36.77,66.55l.27.66-.06,0a.72.72,0,0,0-.36-.33.58.58,0,0,0-.43,0,.35.35,0,0,0-.2.17.25.25,0,0,0,0,.22.21.21,0,0,0,.07.11.68.68,0,0,0,.19.08,2.27,2.27,0,0,0,.39.06,1.61,1.61,0,0,1,.6.15.56.56,0,0,1,.25.31.59.59,0,0,1,0,.5.72.72,0,0,1-.43.37.61.61,0,0,1-.18,0h-.24a.25.25,0,0,0-.13,0,.13.13,0,0,0-.07.06.21.21,0,0,0,0,.12l-.05,0L36,68.37l.06,0a.93.93,0,0,0,.43.39.64.64,0,0,0,.47,0,.4.4,0,0,0,.23-.19.31.31,0,0,0,0-.25.47.47,0,0,0-.09-.12.6.6,0,0,0-.16-.08,1.51,1.51,0,0,0-.33-.06,2.91,2.91,0,0,1-.49-.08.74.74,0,0,1-.26-.15.63.63,0,0,1-.16-.23.62.62,0,0,1,0-.48.72.72,0,0,1,.39-.33l.2-.05h.35a.1.1,0,0,0,0,0,.28.28,0,0,0,0-.13l0,0Z"/><path class="cls-3" d="M38.57,68.18l0-.05.06,0a.31.31,0,0,0,.12-.09.2.2,0,0,0,0-.11,1.32,1.32,0,0,0-.07-.18l-.62-1.28a.51.51,0,0,0-.1-.17.13.13,0,0,0-.09,0,.44.44,0,0,0-.15,0l-.06,0,0-.06.87-.41a1.66,1.66,0,0,1,.6-.18,1,1,0,0,1,.56.16,1.12,1.12,0,0,1,.39.47,1.28,1.28,0,0,1,.12.41.83.83,0,0,1,0,.36.85.85,0,0,1-.15.3,1.41,1.41,0,0,1-.28.26l-.27.15-.87.42ZM38.43,66l.73,1.51.08.14a.07.07,0,0,0,.06,0,.15.15,0,0,0,.12,0,.47.47,0,0,0,.29-.34,1.24,1.24,0,0,0-.16-.76,1.41,1.41,0,0,0-.4-.54.51.51,0,0,0-.35-.12.91.91,0,0,0-.37.12Z"/><path class="cls-3" d="M40.31,64.94l.46.74,0,0A.34.34,0,0,0,41,65.4a.93.93,0,0,0-.1-.39l0,0,.59,1-.05,0a.73.73,0,0,0-.23-.21.27.27,0,0,0-.2-.06.42.42,0,0,0-.22.09l.32.51a1.28,1.28,0,0,0,.12.18l.08,0a.2.2,0,0,0,.13,0l.11-.06a.69.69,0,0,0,.34-.87l0,0,.27.63-1.58,1,0,0,.06,0a.29.29,0,0,0,.11-.11.16.16,0,0,0,0-.1,1.4,1.4,0,0,0-.09-.18L40,65.42l-.11-.15a.15.15,0,0,0-.09,0,.27.27,0,0,0-.16,0l-.06,0,0,0,1.53-1,.34.54,0,0a.89.89,0,0,0-.29-.21.52.52,0,0,0-.28,0,1.61,1.61,0,0,0-.29.15l-.19.12Z"/><path class="cls-3" d="M43.62,64.13l.39.65-1.54,1.14,0,0,.06,0a.26.26,0,0,0,.1-.11.17.17,0,0,0,0-.1.46.46,0,0,0-.1-.17l-.85-1.14a.53.53,0,0,0-.13-.15.16.16,0,0,0-.1,0l-.14.06-.05,0,0,0,.92-.69,0,.05-.08.06a.26.26,0,0,0-.1.11.17.17,0,0,0,0,.1.55.55,0,0,0,.11.17l.82,1.1a.6.6,0,0,0,.14.16.11.11,0,0,0,.1,0,1,1,0,0,0,.16-.1l.14-.11a.68.68,0,0,0,.2-.22.59.59,0,0,0,0-.27,1.65,1.65,0,0,0-.1-.4l0,0Z"/><path class="cls-3" d="M44.51,62.9l.44.41a.7.7,0,0,0,.18.13.12.12,0,0,0,.1,0,.49.49,0,0,0,.16-.13l0,0-.74.81,0,0a.53.53,0,0,0,.12-.17.11.11,0,0,0,0-.1s-.06-.09-.14-.17l-1-.94a.56.56,0,0,0-.17-.13h-.11a.7.7,0,0,0-.15.13l0,0,.64-.69a1.06,1.06,0,0,1,.57-.37.53.53,0,0,1,.61.47.67.67,0,0,1-.09.4,2.43,2.43,0,0,1-.33.4Zm-.77-.71.68.63a.17.17,0,0,0,.06-.06.36.36,0,0,0,.12-.29.55.55,0,0,0-.19-.32.51.51,0,0,0-.33-.16.4.4,0,0,0-.29.15l0,0Z"/><path class="cls-3" d="M46.29,61.53l-.51.56.09.21a.36.36,0,0,0,.1.15.15.15,0,0,0,.14,0,.8.8,0,0,0,.18-.13l0,0-.48.52-.05,0a.25.25,0,0,0,.06-.2,1.19,1.19,0,0,0-.11-.36L45,60.6l0,0,1.82.62a1.3,1.3,0,0,0,.36.08.23.23,0,0,0,.14-.08l0,0-.7.77,0,0,0,0a.26.26,0,0,0,.09-.16.06.06,0,0,0,0-.07l0,0-.12,0-.27-.1Zm-.12,0-.76-.26.32.74.44-.48Z"/><path class="cls-3" d="M47.12,59.87l.47.37a.57.57,0,0,0,.19.12.17.17,0,0,0,.1,0A.51.51,0,0,0,48,60.2l0,0-.67.87,0,0c.06-.08.1-.13.1-.17a.14.14,0,0,0,0-.11.58.58,0,0,0-.16-.15l-1.1-.86a.48.48,0,0,0-.18-.11.14.14,0,0,0-.11,0l-.14.14,0,0,.62-.79a2.83,2.83,0,0,1,.39-.42.58.58,0,0,1,.34-.11.52.52,0,0,1,.33.12.51.51,0,0,1,.21.38.7.7,0,0,1-.07.33l.89,0h.23a.26.26,0,0,0,.13-.08l0,0-.42.54-1.2-.06-.08.11Zm-.83-.64.74.57,0-.07a.9.9,0,0,0,.17-.28.31.31,0,0,0,0-.23.5.5,0,0,0-.18-.21.49.49,0,0,0-.36-.14.53.53,0,0,0-.32.22l-.1.14Z"/><path class="cls-3" d="M49,57.81l-.42.63.12.19a.43.43,0,0,0,.12.14.16.16,0,0,0,.15,0,.66.66,0,0,0,.15-.15l0,0-.4.59,0,0a.31.31,0,0,0,0-.21,1.28,1.28,0,0,0-.17-.33l-1-1.59,0,0,1.89.32a1.37,1.37,0,0,0,.36,0,.33.33,0,0,0,.14-.1l0,0-.58.87,0,0,0,0a.35.35,0,0,0,.06-.17.06.06,0,0,0,0-.06s0,0,0,0l-.13,0-.28,0Zm-.13,0-.79-.14.43.68.36-.54Z"/><path class="cls-3" d="M49.12,54.28l.67.36,0,0a1,1,0,0,0-.57.05.72.72,0,0,0-.36.33.58.58,0,0,0-.08.42.79.79,0,0,0,.22.38,2.55,2.55,0,0,0,.41.3,1.69,1.69,0,0,0,.51.19.62.62,0,0,0,.41,0,.63.63,0,0,0,.28-.28.47.47,0,0,0,.06-.15.85.85,0,0,0,0-.17l-.39-.22a.37.37,0,0,0-.15-.06l-.09,0a.32.32,0,0,0-.1.1l0,0,0,0,.5-.91,0,0a.47.47,0,0,0,0,.16.14.14,0,0,0,0,.1.26.26,0,0,0,.12.08l.39.22a2.26,2.26,0,0,1-.08.44,2.35,2.35,0,0,1-.19.43,1.21,1.21,0,0,1-.31.4,1.53,1.53,0,0,1-.37.21.84.84,0,0,1-.38.06,1.08,1.08,0,0,1-.48-.13,1.12,1.12,0,0,1-.56-.7,1.22,1.22,0,0,1,.12-.91,2.5,2.5,0,0,1,.16-.24,1.07,1.07,0,0,1,.18-.16.83.83,0,0,0,.14-.14.19.19,0,0,0,0-.08.21.21,0,0,0-.08-.12l0,0Z"/><path class="cls-3" d="M49.24,54.09l.46-1,.06,0,0,0a.33.33,0,0,0,0,.17.16.16,0,0,0,0,.09,1.31,1.31,0,0,0,.2.11l1,.44a1.13,1.13,0,0,0,.37.12.44.44,0,0,0,.2-.07.47.47,0,0,0,.16-.2.56.56,0,0,0,0-.3.42.42,0,0,0-.12-.26,1.31,1.31,0,0,0-.41-.26l-.8-.36a.53.53,0,0,0-.2-.06.15.15,0,0,0-.11,0,.34.34,0,0,0-.11.16l-.06,0,.31-.68.05,0v0a.21.21,0,0,0,0,.15.14.14,0,0,0,.06.12.49.49,0,0,0,.16.1l.74.34a1.65,1.65,0,0,1,.47.27.59.59,0,0,1,.18.35.79.79,0,0,1-.09.54,1,1,0,0,1-.24.36.64.64,0,0,1-.36.16,1.06,1.06,0,0,1-.42-.1l-1-.44a.74.74,0,0,0-.22-.08.18.18,0,0,0-.09,0,.36.36,0,0,0-.1.16l-.06,0Z"/><path class="cls-3" d="M52,51.43l-.27.71.16.16a.48.48,0,0,0,.15.1.12.12,0,0,0,.15,0,.56.56,0,0,0,.11-.18l0,0-.25.67,0,0a.3.3,0,0,0,0-.21,1.32,1.32,0,0,0-.23-.29L50.48,51v0l1.92-.1a1.07,1.07,0,0,0,.36-.06.23.23,0,0,0,.1-.13l.06,0-.37,1-.05,0v0a.33.33,0,0,0,0-.18s0-.05,0-.06H52Zm-.13,0-.81,0,.58.57.23-.61Z"/><path class="cls-3" d="M51.53,48.19h.06a.34.34,0,0,0,0,.18,1.68,1.68,0,0,0,.27.35l.6.67.5.16a.51.51,0,0,0,.2,0,.12.12,0,0,0,.09,0,.35.35,0,0,0,.07-.12l0-.12.05,0-.36,1.15-.05,0,0-.1a.3.3,0,0,0,0-.16.1.1,0,0,0,0-.08.5.5,0,0,0-.19-.08l-.41-.13-1,.21a1.38,1.38,0,0,0-.37.11.24.24,0,0,0-.09.14l-.06,0,.31-1,.05,0v0a.2.2,0,0,0,0,.13.09.09,0,0,0,0,.06.89.89,0,0,0,.31,0l.8-.16-.51-.56c-.12-.14-.2-.22-.25-.23a.08.08,0,0,0-.08,0s-.07.08-.11.17l0,0,.19-.62Z"/><path class="cls-1" d="M20.17,55.76c0,.08,0,0-.05.07s.08,0,0,.15a.65.65,0,0,1-.37.31l-.23.29c-.13.16-.29.44-.44.51a2.44,2.44,0,0,1-.43-.35,2.32,2.32,0,0,0-1-.54,2.22,2.22,0,0,0-1,.11c-.13,0-.33-.21-.51-.28a1.78,1.78,0,0,0-1,0c-.28,0-.13,0-.27.11s0,0-.13.06l-.1.08c-.15.29-.06.34.1.65a2.85,2.85,0,0,0,.33.58c.07.09.1.2.16.28a18.86,18.86,0,0,0,1.44,1.73l.77.59a.59.59,0,0,0,.16.06l.12,0,.06,0a4.56,4.56,0,0,1,.74,0c.22,0,.28.2.42.36.42.5.63.89,1.24,1.1a2.33,2.33,0,0,0,1.36,0,3.66,3.66,0,0,1,.58-.2c.06.09.16.24.28.28a9.33,9.33,0,0,1,.69-.71,4,4,0,0,0,.35-.36l.3-.24c.09-.09.11-.2.35,0l.19.14.1.06.35.18a2.83,2.83,0,0,0,1.21.17,2.72,2.72,0,0,0,.6-.08,1.89,1.89,0,0,0,1.07-.62c.21-.25.19-.29.47,0a2.13,2.13,0,0,0,.26.26l1.05,1a1.77,1.77,0,0,0,.65.42l.09-.12c.08-.13.21-.25.28-.37.18-.28.28-.5.49-.79a7.93,7.93,0,0,1,.5-.79c.09,0,.39.2.49.26l.48.3a2.8,2.8,0,0,1,.54.24,3.36,3.36,0,0,0,1.56.26,7.1,7.1,0,0,0,1.15-.13,2.55,2.55,0,0,1,.73-.06.65.65,0,0,1,.38.15c.28.25.28.5.41.89,0,.11,0,.12.09.17s.35-.3.42-.39.13-.12.21-.21.19-.2.42-.06a2.31,2.31,0,0,0,1.82-.17l.22-.14h0l.27-.19a3,3,0,0,0,.58-.55.76.76,0,0,1,.11-.14c.2-.19.31-.46.47-.63l.1-.11h0l0,0a.76.76,0,0,1,.26-.16l.11,0c.16,0,.31,0,.46-.09l.46-.11a1.29,1.29,0,0,1,.21-.05,1.19,1.19,0,0,1,.2-.08l.49-.08a2.15,2.15,0,0,0,.82-.36,1.69,1.69,0,0,0,.56-.83c0-.11,0,0,.06-.14s0-.29,0-.41c.31,0,.35.18.64.17a1.1,1.1,0,0,0,.2-1.05c-.08-.31-.06-.2-.21-.44s-.27-.26-.32-.36-.13-.11-.22-.16a1,1,0,0,0-.3-.09,1.29,1.29,0,0,0-.69.07c-.19.11-.1.07-.46,0-.16,0,0,0-.09,0a1.2,1.2,0,0,0-.65,0l-.21.13-.1.08c-.07.06,0,0-.12.06l-.15.14c-.3.22-.7.71-.84.79l-.17.1a.65.65,0,0,1-.47,0,.68.68,0,0,1-.3-.24c-.2-.24-.21-.16-.37-.42L39.15,54a5.72,5.72,0,0,1-.48-.6,2.66,2.66,0,0,1-.26-.31,1.6,1.6,0,0,1-.23-.3,2.55,2.55,0,0,1-.45-.52l-.06-.07c-.18-.23,0-.59.15-.74s.44,0,.68,0a2.22,2.22,0,0,0,.62-.06A4.38,4.38,0,0,0,40.45,51l.22-.11a1.19,1.19,0,0,0,.22-.12s0,0,.09-.08a4.68,4.68,0,0,0,.45-.39.69.69,0,0,0,.16-.18c.09-.1.09-.12.19-.17a7.34,7.34,0,0,0,1.11-2l.72-2c0-.08,0-.17,0-.24l.14-.48c0-.09.05-.16.07-.24l.29-1.22a1.83,1.83,0,0,1,.06-.25,2.83,2.83,0,0,1,0-.3c0-.11,0-.12,0-.27a2.11,2.11,0,0,1,0-.26l.15-1.06c0-.6.15-1.08.19-1.67,0-.19.06-.32.06-.52s.06-.36.07-.55a4.93,4.93,0,0,1,0-.57c.07-.34,0-.76.1-1.12A10.86,10.86,0,0,0,45,36c0-.43-.07-.76-.08-1.15a5.72,5.72,0,0,0,0-.6c0-.43-.14-1.32-.15-1.69a6.33,6.33,0,0,0-.14-1.07l-.2-1.35a.65.65,0,0,0-.06-.24l-.09-.52c-.06-.42-.21-.81-.31-1.22a4.84,4.84,0,0,0-.14-.49,1.8,1.8,0,0,1-.08-.21.72.72,0,0,0-.08-.22c0-.09,0-.15-.09-.23l-.67-1.15c0-.09-.06-.13-.1-.21a1,1,0,0,1-.13-.18c-.08-.15-.16-.22-.24-.36l-.28-.34a10,10,0,0,0-.84-.78L41,23.76a.62.62,0,0,0-.19-.12,1.35,1.35,0,0,1-.24-.08,2.38,2.38,0,0,0-.68-.23,2.81,2.81,0,0,0-2.12.36l-.15.14s0,0-.06.06a4,4,0,0,0-.38.57c0,.08-.05.13-.13.15,0-.3.05-.52.06-.78A4.08,4.08,0,0,0,37,22.67c0-.09,0,0-.05-.14a1.35,1.35,0,0,1,0-.18,4.72,4.72,0,0,0-.29-1l0-.07a5.14,5.14,0,0,0-.38-.74,1.1,1.1,0,0,1-.17-.25,1.54,1.54,0,0,0-.27-.36l0-.05-.22-.28c-.4-.4-.5-.42-.66-.59a1.26,1.26,0,0,0-.36-.24l-.38-.25-.28-.13-.14-.07a6.78,6.78,0,0,0-.72-.29,6.09,6.09,0,0,0-2.22-.22,5.24,5.24,0,0,0-.88.16.44.44,0,0,1-.15.05,3.1,3.1,0,0,0-.84.29l-.36.16c-.17.08-.31.22-.49.32l-.69.54a3.78,3.78,0,0,0-.4.4l-.52.7a3.1,3.1,0,0,0-.31.52l-.39,1.05c0,.08,0,.08-.06.15s0,.23-.05.35a7.16,7.16,0,0,0,0,1.92,9.82,9.82,0,0,1,.2,1s0,0,0-.07l0,0c-.07-.11-.09-.29-.16-.4s0,0-.07-.1L25,24.06a2.36,2.36,0,0,0-1.37-.81,3,3,0,0,0-1.3.05l-.26.1-.78.32a2.8,2.8,0,0,0-.53.37,4.87,4.87,0,0,0-.68.6c-.11.13-.24.23-.35.38l-.31.41c-.16.19-.43.69-.59.95s-.25.53-.38.79l0,.08c-.12.22-.2.45-.3.66a.39.39,0,0,0-.05.13c-.06.17-.17.36-.21.53s-.19.43-.27.83-.26.74-.33,1.09-.12.36-.15.58a1.37,1.37,0,0,1-.07.29,2.45,2.45,0,0,1-.08.29c0,.11,0,.2-.05.31s-.12.83-.15,1-.06.41-.11.62l-.12,1c0,.11,0,.22,0,.33l-.14,1.32c0,.35,0,1.75,0,2.18,0,.22,0,.43.05.68s.11,1.83.15,2,0,.44.07.66c.05.41.17.85.2,1.25a8.54,8.54,0,0,0,.17.93l.09.26c0,.07.23,1,.29,1.15a3.42,3.42,0,0,1,.18.54l.14.42a.89.89,0,0,1,.05.13,1.71,1.71,0,0,0,.09.27c.1.21,0,.06.09.28s.32.8.42,1c0,0,0,.08.06.13a.61.61,0,0,0,.05.12l.87,1.48,0,.05v0l.09.14a5.48,5.48,0,0,0,1,1l.27.1a2.54,2.54,0,0,0,.43.12l.42.13a5.52,5.52,0,0,0,1.33,0,2.18,2.18,0,0,1-.25.65l-.34.57a2.46,2.46,0,0,1-.25.45,11.06,11.06,0,0,1-.61.95l-1.31,1.82Z"/><path class="cls-2" d="M29.92,22.5c0,.13-.17.18-.27.26a3.63,3.63,0,0,0-.76.62l-.27.41a5.85,5.85,0,0,0-.4,1.13l-.15.69c0,.08,0,.15,0,.22A1,1,0,0,0,28,26c0,.3-.13.64-.17.95a1.6,1.6,0,0,1,0,.23,2.17,2.17,0,0,0,0,.25l-.13.41c-.07.24-.14.59-.38.74a1.07,1.07,0,0,1-1.08,0,1.3,1.3,0,0,1-.32-.53c-.16-.46-.23-1.07-.36-1.58,0-.09-.05-.13-.07-.2a2.62,2.62,0,0,0-.31-.8l-.41-.7a1.81,1.81,0,0,0-.25-.3.62.62,0,0,0-.14-.14c-.45-.3-.24-.15-.57-.27a3,3,0,0,0-2.33.52,2.92,2.92,0,0,0-.32.28L20.9,25a4.18,4.18,0,0,0-.72.79,4.93,4.93,0,0,0-.51.68c-.05.08,0,.12-.1.2l-.11.19-.5,1c0,.06-.05.16-.08.23s-.11.31-.18.42a6.29,6.29,0,0,0-.47,1.3,2.06,2.06,0,0,0-.16.43c0,.12-.05.08-.07.22s-.14.44-.2.71-.1.3-.12.48a2.64,2.64,0,0,1,0,.28l-.07.24c0,.14,0,0-.07.2s0,.19,0,.29,0,.15,0,.23,0,.19,0,.29l-.06.23a6.31,6.31,0,0,0-.1.79c0,.22-.05.32-.06.55q0,.59-.06,1.14c-.07.68,0,1.73,0,2.43s.17,2.63.26,3.27l.07.5c0,.36.1.69.15,1.06l.24,1.21a.78.78,0,0,1,.08.23c.06.31.37,1.23.49,1.57a1.55,1.55,0,0,1,.08.23c.05.15.12.28.17.43l.17.43c.05.12,0,0,.08.14l.68,1.41.12.17A4,4,0,0,0,21,50.36l.6.26a2,2,0,0,0,.86.15l.82-.1c.12,0,.55-.05.6-.21s0-.1-.07-.11h-.1c-1.29,0-1.14-.36-1.58-.74a2.27,2.27,0,0,1-.26-.35l-.11-.15c-.12-.23-.28-.47-.38-.71a.83.83,0,0,1,0-.15c-.06-.15-.19-.28-.25-.45l-.18-.55a13.76,13.76,0,0,1-.36-1.38,1.47,1.47,0,0,1-.08-.28,1.22,1.22,0,0,0-.06-.32,2.87,2.87,0,0,0-.05-.31,6.14,6.14,0,0,1-.22-1.21,4.2,4.2,0,0,1-.09-.61A6,6,0,0,1,20,42.5a4.08,4.08,0,0,1,1.57.79,4.56,4.56,0,0,1,.14.9L22,45.63c0,.1.07.17.09.26l.49,1.59a5.48,5.48,0,0,0,.56,1.14c.2.26.7.82.9.81s.11-.1.12-.17,0-.14,0-.21a5.13,5.13,0,0,1-.57-.84l-.17-.3a4.62,4.62,0,0,1-.5-1.16l-.1-.38a5.83,5.83,0,0,1-.25-.94c0-.17,0-.09,0-.18s-.17-1.45-.17-1.53c.35.05,1.1.47,1.34.46a1.81,1.81,0,0,0-.05-.31c0-.13,0-.18-.14-.22a2.19,2.19,0,0,1-.41-.14c-.13-.09-.27-.13-.4-.22s-.26-.14-.38-.22l-.29-.13c0-.18,0-.37,0-.53s0-.32-.05-.49,0-.37,0-.54-.05-.33-.06-.48c0-.33,0-.71,0-1.07s0-.3,0-.49a14.33,14.33,0,0,1,.12-2.28c0-.14,0-.26,0-.4l.08-.6a1.18,1.18,0,0,1,.09-.38l.05,0c.08,0,.05,0,0,0a6.23,6.23,0,0,1,.21-1.22c.05-.17.07-.43.12-.59s0-.05.05-.11,0-.11,0-.16a5.85,5.85,0,0,1,.31-.92c.06-.11.1-.26.24-.29.35-.08.88.34,1.13.58s.08.56,0,.79a2,2,0,0,0-.08.26c-.07.19-.08.39-.13.58l-.21,1a9.06,9.06,0,0,0-.16,1.78,2.41,2.41,0,0,0,.37-.25c.36-.23.16-.54.27-1a1.53,1.53,0,0,1,.14-.5c.45,0,.91,0,1.35,0,.2,0,.27-.05.5-.05a1.53,1.53,0,0,1-.07.41,1,1,0,0,1,0,.18c-.07.3.13.18.33.14a.93.93,0,0,0,.32-.09c.13-.09,0-.45.17-.66a6,6,0,0,0,1.33.24c.14,0,.34-.07.44,0s.11.31.79.09a1.06,1.06,0,0,0,.19-.06c.12-.07,0-.05.21-.07s.6-.14.92-.16.28,0,.4-.14l.2-.31a5.16,5.16,0,0,0-1.12,0c-.22,0-.14-.15-.1-.33s.06-.3.1-.42c.35-1.12-.24-.74,1.77-.83a3.75,3.75,0,0,1,.48,0c0,.08,0,.18.15.11s.16-.19.23-.24,0,0,.08-.08a7.79,7.79,0,0,0,.69-.84c0-.12-.12-.13-.2-.21s-.1-.93-.13-1.18-.23-1.32-.23-1.49a2.65,2.65,0,0,1,.72-.11c.12,0,.23-.06.35-.07.39-.06.51-.29.54.9,0,.32-.12.64-.11,1,.15,0,.28-.18.38-.3s.33-.25.22-.58a2.35,2.35,0,0,1-.14-.38c0-.21-.13-.38,0-.57a1.78,1.78,0,0,0,1.23-.28,2.11,2.11,0,0,0,.75-.91c.17-.28.58-1.78.7-2.14a3.68,3.68,0,0,1,.34-.78,1.42,1.42,0,0,1,.38-.46,2,2,0,0,1,1.57-.3l.18.07.19.1a4.42,4.42,0,0,1,.84.74c.08.1.16.21.25.31l.34.46c.17.21,0,.32-.16.49l-.56.52a2.34,2.34,0,0,0-.3.25,5.26,5.26,0,0,1-1.36.8,1,1,0,0,1-.05.32c-.2.47,0,.63-.14.95l-.47,1.07c-.15.25-.32.15-.08.44a1.78,1.78,0,0,1,.16,1.5,3.71,3.71,0,0,1-.56,1,4.83,4.83,0,0,1-.51.5l-.16.11c-.63.41-.46.41-.33,1.06,0,.14,0,.32,0,.47s0,.34,0,.5c0,.33.07.65.08,1v1.25c0,.43,0,2-.06,2.36a3.32,3.32,0,0,1-.26,1.25,1.31,1.31,0,0,0-.1.21.82.82,0,0,0,.08.54c.1,0,.17-.23.21-.33l.16-.38a6.61,6.61,0,0,0,.43-1.78c0-1,0-2.49,0-3.46q0-.42,0-.81a2.21,2.21,0,0,0,0-.37c-.06-.2-.24-.89-.12-1s.37-.21.53-.32l.23-.19a4.45,4.45,0,0,0,.54-.52c.07-.08.05-.09.14-.1A9.81,9.81,0,0,1,39.24,35c0,.18,0,.33,0,.49a29.86,29.86,0,0,1-.05,4.73A14.22,14.22,0,0,1,39,41.76c0,.1,0,.08-.07.19a4.09,4.09,0,0,1-1.07,2,2.69,2.69,0,0,1-.51.5.52.52,0,0,0,0,.25v0l0,.06a1.05,1.05,0,0,0,.36-.08l.51-.15a1,1,0,0,0,.16-.07,1.42,1.42,0,0,0,.2,0c.09,0,0-.08.15,0a2,2,0,0,1,0,.63l-.1.66c0,.1,0,.24,0,.32s0,.05-.06.13l-.19.74a3.85,3.85,0,0,1-.27.81,2.11,2.11,0,0,0-.1.3c-.25.55-.14.37-.12.9,0,.13,0,.26.09.32s.07-.08.11-.16a.83.83,0,0,1,.11-.17,3.36,3.36,0,0,0,.16-.42c.11-.28.18-.56.29-.85l.26-.87a1.84,1.84,0,0,1,.07-.37,2.64,2.64,0,0,0,.14-.57,1.17,1.17,0,0,0,.07-.47,1.56,1.56,0,0,1,0-.26,1.11,1.11,0,0,0,0-.24,3.8,3.8,0,0,1,.07-.77.45.45,0,0,1,.16-.12l0,0,.87-.47.09,0,.11,0,.19-.09c.35-.16.15.18.15.49a3.57,3.57,0,0,1-.07.56,2,2,0,0,1,0,.27c0,.08-.06.13-.09.22l-.23,1A14.9,14.9,0,0,1,40,47.32c-.12.25-.27.73-.36.91a4.11,4.11,0,0,0-.21.42l-.1.21a1.63,1.63,0,0,1-.11.23c-.12.18-.21.42-.34.6s-.07.12-.13.21l-.06.09-.16.31c-.08.15-.21.27-.22.45a3.49,3.49,0,0,0,.56,0,1.78,1.78,0,0,1,.26,0l.55-.09c.21,0,0,0,.23-.07a.79.79,0,0,0,.23-.09,1.47,1.47,0,0,0,.6-.33,4.13,4.13,0,0,0,.74-.82c0-.1.07-.09.13-.17l.12-.2.24-.36a6.75,6.75,0,0,0,.39-.85l.18-.44a10.53,10.53,0,0,0,.38-1.16c.07-.25.16-.46.22-.73l.26-.95a20.53,20.53,0,0,0,.39-2.08c0-.19,0-.37.06-.57s0-.19,0-.29,0-.17.05-.25a5.27,5.27,0,0,0,0-.56l.07-.56s0,0,0-.1a.81.81,0,0,0,0-.15c0-.09,0-.2,0-.27.05-.44.09-1.31.1-1.76s0-1.12,0-1.67c0-.79,0-1.58-.07-2.34,0-.18,0-.32,0-.49s-.05-.29-.07-.45S44,31.12,44,31s0,0-.07-.17a5.73,5.73,0,0,0-.2-1.11l-.36-1.2a1.59,1.59,0,0,0-.08-.18c0-.07,0-.13,0-.21L42.75,27l-.18-.33a2.35,2.35,0,0,0-.29-.49l-.55-.76a4.09,4.09,0,0,0-.76-.79,2.48,2.48,0,0,0-.64-.41,3,3,0,0,0-.39-.13,1.38,1.38,0,0,0-.56-.08,1.42,1.42,0,0,0-.77.15c-.76.34-.71.59-.93.89a2.08,2.08,0,0,0-.22.45,8.26,8.26,0,0,0-.33.82c-.07.25-.12.47-.17.74a3.8,3.8,0,0,1-.21.7c0,.1-.07.23-.12.33l-.17.29a1.49,1.49,0,0,1-1.08.76.72.72,0,0,1-.64-.32l-.18-.24a6.09,6.09,0,0,1-.44-.93l-.21-.7a1.85,1.85,0,0,1-.07-.38c0-.16-.06-.24-.07-.39A2.24,2.24,0,0,1,34,24.42a1.3,1.3,0,0,1,1.17-.27c.37.15.29.05.63.31.08.06,0,.05.15,0a2.18,2.18,0,0,0-.38-1.79A2.9,2.9,0,0,0,35,22.2c-.45-.28-.49-.15-.49-.56a2,2,0,0,0,0-.36,1.33,1.33,0,0,0-1.09-.89,1.78,1.78,0,0,0-.7-.09,5.81,5.81,0,0,0-1.34.25c-.1,0-.2,0-.31.08a3.57,3.57,0,0,1-1.78.09,2.47,2.47,0,0,1-.65-.16l-.42-.15c-.05,0-.09-.07-.14,0s.1.53.14.62.21.32.3.47a2.27,2.27,0,0,0,.9.72l.25.14a.63.63,0,0,1,.24.16Z"/><path class="cls-1" d="M41.78,49.94c-.1.05-.1.07-.19.17a.69.69,0,0,1-.16.18,4.68,4.68,0,0,1-.45.39c-.06,0,0,0-.09.08a1.19,1.19,0,0,1-.22.12l-.22.11a4.38,4.38,0,0,1-1.33.41,2.22,2.22,0,0,1-.62.06c-.24,0-.47,0-.68,0s-.33.51-.15.74l.06.07a2.55,2.55,0,0,0,.45.52c-.11-.32-.77-.61-.37-1.2.11-.17.45,0,.93,0,.15,0,.28,0,.43-.05a1.77,1.77,0,0,0,.17-.06c.08,0,.14,0,.22,0s0,0,.17-.06l.52-.17c.35-.14.41-.28.69-.31a.38.38,0,0,1-.08.22l-.53,1.45a2.51,2.51,0,0,0-.11,1c0,.22.16.87.13.94h-.19c-.19,0-.2.07-.21.18s0,.1,0,.16-1.12-1.33-1.29-1.43a5.72,5.72,0,0,0,.48.6l1.63,1.89c.16.26.17.18.37.42a.68.68,0,0,0,.3.24.65.65,0,0,0,.47,0l.17-.1c.14-.08.54-.57.84-.79l.15-.14c.09,0,.05,0,.12-.06l.1-.08.21-.13a1.2,1.2,0,0,1,.65,0c.09,0-.07,0,.09,0,.36.07.27.11.46,0a1.29,1.29,0,0,1,.69-.07l-.12,0c-.07,0,0,0-.09-.07a6.69,6.69,0,0,0,.69-.42c.17-.14.44-.38.42-.67s-.34-.1-.49-.1c0-.24.25-.3.21-.81a1.76,1.76,0,0,0-.58.11l-.31,0a1.11,1.11,0,0,1-.33,0l0-.31c.21-.05.47-.05.68-.1a6.62,6.62,0,0,0,1.16-.4A3.09,3.09,0,0,0,48,51.37a2.07,2.07,0,0,0,.51-1c-.22-.1-.46,0-.73,0,0-.17.1-.15.17-.31a2.2,2.2,0,0,1,.16-.31,1.46,1.46,0,0,0,.14-.31c0-.17.16-.45-.14-.33s-.38.1-.55.17a.71.71,0,0,1-.18.08,1.33,1.33,0,0,1-.19.05c-.16.06-.2.13-.39.14,0-.12.1-.15.23-.19s.13-.08.23-.12l.47-.26a4.92,4.92,0,0,0,.82-.63A3.3,3.3,0,0,0,49.35,47a1,1,0,0,0,0-.61c-.14-.08-.16,0-.32,0a.55.55,0,0,1,.06-.26c0-.08,0-.15.07-.25a5.48,5.48,0,0,0,0-1.85c-.14,0-.08,0-.17.15a2.86,2.86,0,0,1-.4.45c-.13.12-.47.51-.63.53a1.66,1.66,0,0,1-.07-.53,1.51,1.51,0,0,1,.37-.76l.23-.32a8.11,8.11,0,0,0,1.05-1.76,4.08,4.08,0,0,0,.23-1.45,3.49,3.49,0,0,0-.08-.5l-.19-.91a2,2,0,0,1-.09-.46.29.29,0,0,0-.24.17c0,.08-.07.13-.12.22l-.26.44c-.05.08-.08.16-.12.24l-.12.22-.16.38c0,.12,0,0-.07.1s-.09-.14-.13-.23a2.08,2.08,0,0,0-.2-.36c-.11-.14-.11-.28-.24-.35,0,.55.23.66.37,1.16a16.15,16.15,0,0,1,.18,2.79c0,.27,0,.32-.15.51s-.19.37-.3.42a2.32,2.32,0,0,1,0-.61l-.14-.07a.29.29,0,0,1-.08-.13c-.22-.6-.46-1.18-.63-1.8a1.25,1.25,0,0,1,0-.35,5.28,5.28,0,0,1,0-.8l.13-.5a1.09,1.09,0,0,1,.21-.38l.23-.37c.06-.06,0-.3-.06-.22l-.07,0h0l-.09-.06h0v0c-.05-.08,0,0-.08-.08a3.9,3.9,0,0,1-.74-1.28,5.51,5.51,0,0,1-.17-2.25c.09,0,.12.1.18.2l.14.23.68,1,.08.1c.12.15.2.2.27.11l0,.05c.38-1.09,1.09-1.62,1.17-2.56.72,1.29.34,3.08-.75,4.64-.3-.69-.5-1.55-1.19-1.9.41.82.7,1.53,1.06,2.43,1.63-2.07,2.09-4.13.75-5.59a2.5,2.5,0,0,1-.54,1.55l-.35.46a1.5,1.5,0,0,1-.11-.67,8.6,8.6,0,0,0,.45-1.51c0-.8,0,0,.24-.85a5.36,5.36,0,0,0,.1-.6c0-.21,0-.5,0-.71a2.29,2.29,0,0,0-.34-1.05c0-.08-.1-.14-.13-.21l-.27-.62a5.34,5.34,0,0,1-.16-.53c0-.16-.13-.08-.17,0a.54.54,0,0,0,0,.19c.11.06.09-.05.1.08s0,.1,0,.2a3.76,3.76,0,0,0,.2.46l.29.87a3.76,3.76,0,0,1,.15.86,2.64,2.64,0,0,1-.06,1c-.19,0-.33-.52-.42-.68a1,1,0,0,1-.1-.18c-.15-.28-.5-.58-.5-.9a2.55,2.55,0,0,1,.14-1l0-.13a.46.46,0,0,1,0-.09c.13-.24,0-.23,0-.23l-.08.06s0,0,0,.08l-.13.41a1.64,1.64,0,0,1-.09.35v0a.72.72,0,0,1,0,.21c-.08,0-.1-.09-.11-.18s0-.16-.15-.2a8.07,8.07,0,0,0-.52,1.55,4.18,4.18,0,0,0,0,1,4,4,0,0,0,.76,1.69l.05.08a4.29,4.29,0,0,1,.57.94.89.89,0,0,1,.06.64c0,.08,0,.09-.12.12s-.45-.64-.5-.7l0,0,0,0a2.24,2.24,0,0,1-.38-.61l0-.1v0c0-.06-.09-.24-.2-.26a5.81,5.81,0,0,0-.2,1.27,4.78,4.78,0,0,0,0,1.07,1.55,1.55,0,0,1,.06.31,3.61,3.61,0,0,0,.16.42l.45.84a2.43,2.43,0,0,0,.48.53c.12.1,0,.27-.1.38l-.28.65a.33.33,0,0,0-.05.16c0,.11,0,.17-.08.23l-.11-.18-.08-.17c-.05-.08-.07,0-.12-.15a6,6,0,0,1-.2-.6c0-.11,0-.31-.17-.35a3.12,3.12,0,0,0-.3.66,1.13,1.13,0,0,1-.07.18c-.07.16-.08.4-.14.57a5.76,5.76,0,0,0-.1.88,4.33,4.33,0,0,0,.64,2.23,4.24,4.24,0,0,0,.4.56c.41.51.58.46.28.83-.08.1-.12.2-.23.24l-.14-.5a2.67,2.67,0,0,0-.47-.84c-.1-.12-.17-.27-.4-.27a1.84,1.84,0,0,1-.26,1.17,4.08,4.08,0,0,0-.26.69c0,.1,0,.1-.06.18l-.19.76c0,.09,0,0-.05.18a7.6,7.6,0,0,0,0,1.35l.11.62a.53.53,0,0,1,0,.19,2,2,0,0,0,.32.69l.06.09c.12.18.08.16,0,.27l0,.06v0L45,50a2.1,2.1,0,0,0-.22.3l-.36-.93c-.08-.19-.3-.74-.47-.81-.1.2-.27.71-.39,1l-.12.22a3,3,0,0,0-.24.77,3.1,3.1,0,0,0,.27,1.76c.09.12.29.2.32.32a2.15,2.15,0,0,1-.27.23c-.09.08-.14.19-.31.2,0-.13,0-.28,0-.38s0-.08,0-.14a1,1,0,0,1,0-.17c0-.14,0,0-.05-.11a4.16,4.16,0,0,1-.12-.44l-.3-.61h0l0-.07c-.29-.49-.26,0-.4.27l-.57.91,0,0A1.55,1.55,0,0,1,41.6,52c-.1-.32-.22-.69-.35-1a1.3,1.3,0,0,1-.14-.26c0-.11,0-.14.11-.18a2,2,0,0,0,.29-.29,1.22,1.22,0,0,0,.27-.36ZM46,54a8.18,8.18,0,0,0-1.21.5l-.15.35c0,.07-.51.66.36.1.08-.06.18-.1.24-.15.26-.19.83-.55.76-.8Z"/><path class="cls-2" d="M24.14,54.67a1.57,1.57,0,0,0-.15.43c-.14.43,0,.29-.51.64-.12.08-.13.23-.28.24a.38.38,0,0,1,0-.31c0-.14.1-.16.12-.33-.08,0-.23.36-.42.51s-.51.53-.8.73a6.23,6.23,0,0,1-1.08.75,2.37,2.37,0,0,0-.64.58.94.94,0,0,0,.05,1.3,3.09,3.09,0,0,0,.89.62l.47.16a1.09,1.09,0,0,1,.24.07,1,1,0,0,1-.28.52.93.93,0,0,1-.52.29,1.44,1.44,0,0,1-.87-.08c-.58-.31-.72-.7-1.1-1.14-.22-.25-.72-.12-1.05-.18-.12,0,0,0-.14,0a1.09,1.09,0,0,0-.17-.05,2.42,2.42,0,0,1-.62-.28L17.13,59a2.25,2.25,0,0,1-.43-.38c-.07-.1-.14-.12-.2-.21a.76.76,0,0,1-.08-.71l0-.07a1,1,0,0,1,.23-.39,1.13,1.13,0,0,1,.68-.11c.31,0,.49.36.64.58.54.79,1.15.76,1.74.07a5.73,5.73,0,0,0,.39-.45c.14-.2.3-.36.42-.56l.64-1,0-.06c.18-.27.4-.49.56-.77l.31-.5s0,0,.08-.09a.35.35,0,0,0,.08-.13l.24-.39.06-.15c.05-.09.18-.23.25-.35l.55-.88c.29-.57.44-.61.42-1.24-.09,0-.1.08-.14.15s-.07.08-.11.14l-.21.34c-.14.2-.25.47-.39.67a6.58,6.58,0,0,0-.4.67c0,.06-.05.11-.09.17l-.22.32a1.18,1.18,0,0,1-.11.19l-.42.64c-.14.24-.14.17-.31.48s-.4.58-.55.8-.48.77-.75,1.12a2.36,2.36,0,0,1-.33.42c-.18.15-.49.8-1,.54-.23-.12-.36-.37-.54-.56L18,57c-.68-.58-.88-.19-1.26-.22s-.63-.74-1.6-.27a4,4,0,0,0,.57,1,7.29,7.29,0,0,0,.49.74,4.26,4.26,0,0,0,1,1l.21.18.23.15.19.1c.34.18.81,0,1.15.15s.76,1,1.4,1.35a1.72,1.72,0,0,0,1,.2,2.1,2.1,0,0,0,.33-.06c.29-.07.58-.52.7-.51s0,0,.09.08.26,0,.42-.15.54-.49.87-.74a.6.6,0,0,1,.77-.08,2,2,0,0,0,.63.44,2.1,2.1,0,0,0,1.75-.07,2.27,2.27,0,0,0,.84-.78c.09-.11.13-.24.3-.24l.19.29a9.82,9.82,0,0,0,1.21,1.3c.13.11.38.45.55.45s.1-.16.17-.24.11-.17.18-.26l.71-1.21a1.22,1.22,0,0,1,.07-.17c.12-.19.16-.35.37-.16a1,1,0,0,0,.17.1,8.19,8.19,0,0,0,1,.63c.41.18.57.22,1,.36a.71.71,0,0,0,.22,0,3.28,3.28,0,0,0,.49.06,6.58,6.58,0,0,0,1-.07.83.83,0,0,0,.2,0,2,2,0,0,1,.25,0c.11,0,.08,0,.19-.06l.24,0a.83.83,0,0,1,.8.17c.1.1.2.18.28.27.28.33.21.44.56.08s.29-.28.61,0l.1.11a1.23,1.23,0,0,0,.72.08,3.9,3.9,0,0,0,.46-.12,2.59,2.59,0,0,0,1-.51l.36-.37c.06-.08.11-.16.18-.24.2-.27.42-.76.72-.89a1.41,1.41,0,0,1,.31-.08l.59-.18.17,0c.29-.08.52-.09.84-.18a3.63,3.63,0,0,0,.61-.2,1.35,1.35,0,0,0,.42-.37c.31-.44.08-.53.24-1,.07-.18.39-.21.59-.21s.25,0,.39,0a1,1,0,0,0-.26-.66.51.51,0,0,0-.26-.19.85.85,0,0,0-.37-.11,3.09,3.09,0,0,0-.43,0c-.14,0-.25.11-.37.1s-.2-.25-.73-.09-.84.62-1.25,1a1.1,1.1,0,0,1-1.06.29,2,2,0,0,1-.5-.41c-.12-.12-.26-.19-.37-.32l-.07-.08h0c-.22-.25-.47-.47-.67-.74s-.31-.32-.44-.47-.11-.15-.2-.26-.15-.15-.22-.23l-.42-.49c-.16-.23-.35-.42-.53-.64l-.05-.05,0,0c-.05,0,0,0-.05,0,0,.26.41.66.57.91l.06.09,1,1.2c.12.14.23.31.36.44l.27.26.14.14c.24.2.46.46.71.65s.08.15.47.34a1.5,1.5,0,0,0,1.3-.13c.29-.17,1-1.34,1.59-1a.45.45,0,0,1,.24.31c.06.19.12.16.12.42,0,1-.56.91-1.17,1.11l-1.29.21c-.93.09-1.27,1.34-2,1.79L40,60a2,2,0,0,1-.52.31.74.74,0,0,1-.53,0l-.29-.14c-.29-.16-.73-.71-.23-.93a.58.58,0,0,1,.18-.08l.21-.08c.08,0,.12,0,.21,0a1.79,1.79,0,0,0,.63-.2,1,1,0,0,0,.59-1c0-.48-.45-.61-.82-.81L39,56.82a5.29,5.29,0,0,0-.6-.21l-.19-.07a4.84,4.84,0,0,1-.8-.3,3.19,3.19,0,0,1-.65-.43,2.12,2.12,0,0,1-.47-.63.87.87,0,0,0-.22-.33c-.17,0-2.37.44-2.47.5,0,.44.63,1,1,1.1l.2.06.31.09.11,0,.22,0a7.75,7.75,0,0,1,1,.05s0,0,0,.09a1.81,1.81,0,0,1-.42,1.32,2.58,2.58,0,0,1-.54.3,1.54,1.54,0,0,1-1,0l-.38-.18a3.48,3.48,0,0,1-.6-.49l-.27-.27a1.18,1.18,0,0,1-.24-.31l-.2-.35c-.07-.12-.11-.25-.18-.37A1.8,1.8,0,0,1,32.6,56c-.12-.41,0-.56-.31-.45a1.68,1.68,0,0,0-.24.07,2.41,2.41,0,0,0,.27,1.05,6.25,6.25,0,0,0,.51.82,9.14,9.14,0,0,0,.85.94,2.68,2.68,0,0,0,.89.68,3.68,3.68,0,0,1,.44.23c.3.18.33.33-.12.43a2.29,2.29,0,0,1-.48.08,2.37,2.37,0,0,1-1.34-.31,3.07,3.07,0,0,1-1-.68,4.08,4.08,0,0,1-.74-.89l-.2-.38c0-.05,0,0-.05-.08L31,57.26C30.84,57,30.58,56,30.54,56l0,0h-.13l-.13,0,0,0a4.26,4.26,0,0,0,.21,1.19c0,.12,0,.05.07.13s.05.24.11.36,0,0,0,.06a.94.94,0,0,1,.06.15c.06.14.27.36.24.56a3.36,3.36,0,0,1-.4.74l-.47.78c-.3.42-.31.53-.81-.07-.06-.07-.12-.13-.18-.21-.15-.24-.37-.43-.54-.68a1.19,1.19,0,0,0-.16-.23c-.19-.25-.07-.29,0-.57,0-.07.27-.55.37-.82a5.76,5.76,0,0,0,.41-1.21l-.43,0a4.48,4.48,0,0,0-.18.44l0,.07-.17.38c-.11.19-.16.4-.26.6l-.28.59c0,.09-.11.17-.16.27a4.72,4.72,0,0,1-.33.53l-.08.12-.3.36a1.53,1.53,0,0,1-1.3.42A1.16,1.16,0,0,1,25.2,60c-.29-.14-.58-.25-.27-.59l.22-.25v0c.27-.41.7-.7,1-1.11a5.74,5.74,0,0,0,.36-.5,6.65,6.65,0,0,1,.42-.66.84.84,0,0,0,.2-.46c-.41,0-.35-.23-.63.3a6.2,6.2,0,0,1-.54.7l-.15.16-.17.15c-.12.1-.24.15-.36.24s-.23,0-.36-.11l-.46-.47c-.06-.07-.1-.07-.1-.2.15-.1.26-.25.41-.36l.91-.67c.45-.33.61-.16.38-.61a1.39,1.39,0,0,0-.15-.22c-.08,0-1.17.6-1.33.67l-.07,0a8.47,8.47,0,0,0-.85.66c-.27.3-.36.57,0,.92.07.08,0,0,.09.14l.44.47a.52.52,0,0,1,.18.48c0,.15,0,.27-.14.31s-.2-.28-.32-.35a2.48,2.48,0,0,1-.27-.35c-.08-.11-.17-.12-.27-.2a1.14,1.14,0,0,1-.22-.22,1.25,1.25,0,0,1,0-.44,1.93,1.93,0,0,1,.65-1.19,2.29,2.29,0,0,1,.73-.66l.27-.19c.13-.1.39-.17.5-.31s0,0,.06-.12h-.18c-.14,0,0,0-.12,0l-.9.13c0-.23.06-.21.09-.43Z"/><path class="cls-2" d="M28.82,51.59l8.68-1.44L35.84,37.92c-.87,1.37-1.06.39-1.31,1.87a2,2,0,0,1-.06.26c.22.87-1.08,3.39-2.39,4.39a10.38,10.38,0,0,1-.11,1.5,11.65,11.65,0,0,1-2.87,5.21.93.93,0,0,0-.28.44Z"/><path class="cls-2" d="M25.85,52.59c.26,0,.57-.31.79-.44,1.93-1.08,4.95-5.37,4.64-7.82,0-.1-.08-.09-.08-.25a6,6,0,0,0,2.57-4.92C35.53,37.68,36,36.72,36,34.79c.47-.34,2-2.62,1.73-4.25a1.54,1.54,0,0,0,.12-.13,2.78,2.78,0,0,0,.44-.62,2,2,0,0,0,.29-.77c-.15,0-.18.19-.28.29C34.58,34.3,27,45.9,25.85,52.59Z"/><path class="cls-2" d="M23.34,55.34c0,.17-.09.19-.12.33a.38.38,0,0,0,0,.31c.15,0,.16-.16.28-.24.48-.35.37-.21.51-.64a1.57,1.57,0,0,1,.15-.43,5.52,5.52,0,0,1,1-1.43,2.94,2.94,0,0,0,.19-.7c2-8.28,7.2-15.64,11.7-22.2.11-.17.47-.54.49-.73a4.79,4.79,0,0,0-1.14.73c-6,4.94-11.85,16.22-12.13,22.3.08.6.21.7-.06,1.31a3.85,3.85,0,0,1-.68,1.2c-.11.1-.07.06-.13.19Z"/><path class="cls-1" d="M17.46,36.92a16.26,16.26,0,0,0,.22,3.23c.06.07.12.08.19.15l1,.75c.14.08.27.25.44.27,0-.2-.15-.91-.16-1.17s0-.4-.05-.63l0-1.22a19.56,19.56,0,0,1,.25-2.83,3.06,3.06,0,0,0,.05-.32l.35-1.79c0-.2.52-1.66.61-1.91a4.53,4.53,0,0,0,.18-.61.74.74,0,0,1,0-.14,1.51,1.51,0,0,0,.12-.47c0-.35-.23-.48-.37-.58l-.31-.3c-.27-.22-.22-.33-.5-.66-.37,0-.47.34-.62.68l-.69,1.85c-.06.25-.31,1.39-.33,1.59s-.07.36-.09.55l-.16,1.11a24.45,24.45,0,0,0-.14,2.45Z"/><path class="cls-1" d="M39,43.4a1.79,1.79,0,0,0,.52-.18l.3-.19a1.13,1.13,0,0,0,.45-.31l.06,0h0A2,2,0,0,0,41,41.5a2.14,2.14,0,0,0,.1-.37,3.07,3.07,0,0,1,.11-.36l.19-1.3a2.94,2.94,0,0,1,0-.45c.07-.27,0-.69.06-.93a4.42,4.42,0,0,0,.07-.91c0-.34.06-.57.07-.91a24.37,24.37,0,0,0-.06-2.85l-.18-2a2.09,2.09,0,0,1,0-.21c0-.16,0-.32-.11-.39s-.06,0-.1.13l-.24.49a3.07,3.07,0,0,1-.91,1c-.61.36-.49.09-.4.94,0,.52.13.71.17,1.27,0,.15,0,.31,0,.47s0,.3,0,.44a25,25,0,0,1,0,2.87l-.07,1.13a.78.78,0,0,0,0,.22,10.15,10.15,0,0,1-.24,1.68,5.35,5.35,0,0,1-.21,1l-.28,1Z"/><path class="cls-1" d="M41.56,29.46a2.45,2.45,0,0,0,.06.43c0,.13.05.25.08.39a2.76,2.76,0,0,1,.16.76.66.66,0,0,0,.06.29c0,.06,0,0,0,.1a.65.65,0,0,0,0,.21l.05.18c0,.11,0,.31,0,.43a1.12,1.12,0,0,1,.08.48,4.83,4.83,0,0,0,0,.59l.06,2.43a5.72,5.72,0,0,1,0,.6,12.19,12.19,0,0,0,0,1.22c0,.19,0,.37-.05.57l0,.89a.83.83,0,0,0-.06.26,1.75,1.75,0,0,1-.06.54c-.07.2,0,.35-.08.55a.66.66,0,0,0,0,.29,1,1,0,0,1,0,.25,2.58,2.58,0,0,0,0,.29c0,.1-.05.13-.07.24a5.19,5.19,0,0,0-.11.54,3.47,3.47,0,0,0,.92-.35l.44-.31c.37-.32.25-.39.4-.7a.88.88,0,0,0,.07-.33c0-.21,0-.1.08-.42a49.58,49.58,0,0,0,.2-6.4l-.31-2.89-.27-1c-.14-.36-.14-.45-.24-.75s-.07-.08-.16-.36c-.22.05-.23.27-.54.53a.83.83,0,0,1-.15.11c-.26.21-.12.16-.48.32Z"/><path class="cls-1" d="M19.85,41.78a2.24,2.24,0,0,0,.34.23c.13.07.27.11.4.18a2.59,2.59,0,0,0,.83.34c0-.26-.1-1.23-.13-1.54a15,15,0,0,1,0-1.65q0-.42,0-.81l.1-1.14c0-.14,0-.24,0-.39a1,1,0,0,1,.06-.36c0-.11,0-.25.06-.35.09-.33,0-.32.13-.7.06-.21.12-.45.18-.65a3.18,3.18,0,0,0,.08-.33l.23-1a1,1,0,0,0,.06-.14,2.4,2.4,0,0,1,.15-.48l.18-.64a1.13,1.13,0,0,0,0-.41c0-.1-.35-.29-.46-.38l-.1-.1c-.06-.05-.07,0-.13-.08s-.2-.2-.4-.21h-.11c-.23,0-.44.48-.5.66s0,.05-.05.15-.64,2-.68,2.24L19.83,36c0,.13,0,.22,0,.36s-.06.47-.07.76a23.07,23.07,0,0,0,0,3.22,9.37,9.37,0,0,1,.14,1.48Z"/><path class="cls-1" d="M26.53,30.4a.91.91,0,0,0,.77-.31l.21-.23c0-.07.17-.38.09-.52s-.63,0-.93-.14l-.2-.08a2.43,2.43,0,0,1-.71-.67l-.27-.56-.31-1.17c0-.13-.05-.14-.08-.28s-.07-.13-.09-.27a2.73,2.73,0,0,0-.79-1.46,1.39,1.39,0,0,0-1-.45,2.28,2.28,0,0,0-1.2.3,4,4,0,0,0-.74.5v0a2.15,2.15,0,0,0-.45.49c-.31.47-.4.31.18.77a3.19,3.19,0,0,0,.73.38l.24.13a3.78,3.78,0,0,1,.84.65c.07.07.12.09.19.17L24.18,29a.54.54,0,0,0,.16.2c.08.07.13.13.2.2a3.26,3.26,0,0,0,.44.43h0l.05,0,.06,0,.12.06a2.69,2.69,0,0,0,.35.21l.14.05c.16.06.16,0,.3.06s.2.06.51.06Z"/><path class="cls-2" d="M37.19,53.15c0-.28-.07-.1-.08-.59,0-.24,0-.54,0-.78-.29,0-8.41,1.51-8.6,1.58-1.55.21-1.09,1.7-.21,1.52l8.89-1.73Z"/><path class="cls-2" d="M37.43,54a1.61,1.61,0,0,0-.07-.37l-9.28,1.88a1.31,1.31,0,0,1-.14-2.6l8.68-1.54c.86-.07.42-.12.78-.52,0,0,.16-.22.16-.31L27.09,52.4c-1.36.63-1,3.92,1.18,3.52L37.43,54Z"/><path class="cls-2" d="M26,37c.09.76.61,4.39.8,5.37.09,0,.13-.19.22-.36a26,26,0,0,1,3.47-5.79c-.57.09-4.14.58-4.49.78Z"/><path class="cls-1" d="M22.06,50.28a4.76,4.76,0,0,0-.54-.72c-.18-.24-.09-.17-.17-.28a11.88,11.88,0,0,1-.6-1.12c-.13-.25-.23-.65-.33-.91a3.57,3.57,0,0,1-.1-.35l-.2-.66a1.77,1.77,0,0,0-.07-.34,3.9,3.9,0,0,0-.13-.73l-.17-1.1c0-.27-.09-.49-.12-.74l-.1-.76c-.12-.71-.16-.5-.54-.75l-.76-.53c-.15-.1-.35-.33-.53-.34a6.31,6.31,0,0,0,.08.76c.1.63.26,1.55.42,2.16l.36,1.33c.08.2.13.45.2.66l.33.94a6.71,6.71,0,0,0,.28.76L20,48.88a2.13,2.13,0,0,1,.18.22,2.58,2.58,0,0,0,1.14,1l.17,0c.07,0,0,0,.15.06a.87.87,0,0,0,.4.05Z"/><path class="cls-1" d="M39.32,50.28a1,1,0,0,0,.54-.23l.22-.14a2.12,2.12,0,0,0,.63-.53,5.53,5.53,0,0,0,1-1.28c.15-.25.13-.27.25-.5l.06-.12.33-.84v0l.05-.1c0-.11,0-.16.08-.28l.17-.58a.88.88,0,0,1,0-.17c0-.1,0,0,.06-.14s0-.08,0-.16c.11-.31,0-.2.13-.47l.19-1.32c0-.21.08-.42.12-.65a3.85,3.85,0,0,0,.09-.67c-.24,0-.8.37-1,.46l-.49.26c-.2.11-.16.26-.19.6L41,46.2c-.08.24-.39,1.26-.48,1.42s-.51,1.28-.69,1.59-.16.32-.25.51a1.19,1.19,0,0,0-.24.56Z"/><path class="cls-4" d="M43.42,50.66A3.38,3.38,0,0,0,43.68,52c.38.8.45.12,1,.16.18.36-.07.54.41.47l.29,0a4.46,4.46,0,0,0,.89-.31l.09-.06h0l.47-.23a2.28,2.28,0,0,0,.44-.24,2.18,2.18,0,0,0,.52-.53,1.54,1.54,0,0,0,.36-.72,4.63,4.63,0,0,0-.55.06c-.23,0-.21.11-.32.26a4.34,4.34,0,0,1-1.12.91l-.56.29c-.11,0-.33.18-.46.09s0-.13.11-.18a1,1,0,0,0,.23-.11c.31-.2.48-.28.85-.55a3.83,3.83,0,0,0,1.07-1,2.8,2.8,0,0,0,.44-1,5.87,5.87,0,0,0-.83.4.81.81,0,0,1-.18.1,4.48,4.48,0,0,0-.6.35,1.72,1.72,0,0,0-.33.26l-1.33,1.36s.05,0,0,0,0-.12,0-.14l.49-.69.63-.64c.34-.31.27-.22.4-.52,0-.12.07-.06.06-.27a3.72,3.72,0,0,0-1,.65,3.05,3.05,0,0,0-.62,1.06,3.82,3.82,0,0,0-.13.71c0,.14,0,.16-.11.16a13,13,0,0,1-.16-1.55,1,1,0,0,1,.22.68,2.75,2.75,0,0,0,.23-.55c0-.12.1-.11,0-.3A7.12,7.12,0,0,0,44.07,49c-.08.06-.06.08-.09.2s-.24.34-.4.76a1.71,1.71,0,0,0-.16.73Z"/><path class="cls-2" d="M24,43.62c.14,0,.16-.15.31-.33l0,0c.16-.2.17-.16.28-.29s.53-.5.64-.62l.83-.62c.17-.13,0-.26,0-.47s-.25-1.7-.3-1.78a1.89,1.89,0,0,0-.64.17,4.6,4.6,0,0,0-1.43,1.1c-.16.19-.12.24,0,.66l.29,2c0,.09,0,.14,0,.21Z"/><path class="cls-2" d="M27.21,26.14c.08-.15,0-.41.14-.58s0,0,0-.19a.79.79,0,0,1,.06-.3.53.53,0,0,1,0-.12c0-.11,0,0,.05-.13l.08-.26a2,2,0,0,1,.08-.26,3.67,3.67,0,0,1,.9-1.45c.17-.16.3-.21.3-.37l-.31-.09a.91.91,0,0,1-.23-.15l-.44-.37a2.6,2.6,0,0,1-.55-1.07c-.16,0-.25.21-.32.35L27,21.3l-.15.29a4.73,4.73,0,0,0-.2,3.35l.38.95c.06.12.07.24.21.25Z"/><path class="cls-4" d="M38.18,52.76a1.6,1.6,0,0,0,.23.3,2.66,2.66,0,0,0,.26.31c.17.1,1.14,1.37,1.29,1.43s0-.11,0-.16,0-.19.21-.18h.19c0-.07-.13-.72-.13-.94a2.51,2.51,0,0,1,.11-1l.53-1.45a.38.38,0,0,0,.08-.22c-.28,0-.34.17-.69.31l-.52.17c-.13,0-.07.05-.17.06s-.14,0-.22,0a1.77,1.77,0,0,1-.17.06c-.15,0-.28,0-.43.05-.48.09-.82-.13-.93,0-.4.59.26.88.37,1.2Z"/><path class="cls-1" d="M30.42,29.72c-.17,0-.48,0-.67,0s-.27-.09-.59-.07a2,2,0,0,0-.14.46c-.05.18-.1.34-.15.5l-.29.81a2.12,2.12,0,0,1-.15.34s0,.09,0,.12c-.08.25-.21.39,0,.57a1.45,1.45,0,0,0,.49.33l.32.15c.22.08.83.26,1.06.11s.34-.5.35-.93l-.05-1.56c0-.15-.12-.42-.15-.83Z"/><path class="cls-1" d="M30.06,22.88l-.11,0-.11.05c-.45.16-.55.46-.74.69a3.18,3.18,0,0,0-.38.76,10.3,10.3,0,0,0-.32,1.12c0,.07,0,.18,0,.28s-.08.3-.11.45c-.11.4-.19,1.07-.25,1.47a1.9,1.9,0,0,1-.42,1c-.17.23.27.42.4.43h.29c.37,0,.36-.08.42-.48l.13-.72a2.06,2.06,0,0,0,0-.26l.24-1.19a1.86,1.86,0,0,1,0-.26.66.66,0,0,0,.05-.23,1.14,1.14,0,0,1,.16-.43c.08-.15,0-.23.16-.47l.38-1a5.29,5.29,0,0,1,.58-.85c.17-.25-.05-.48-.39-.39Z"/><path class="cls-2" d="M30,20.09a1.44,1.44,0,0,0,.37-.05l.18,0c.22,0,0-.06.33-.09s0,0,.34-.08a1.63,1.63,0,0,1,.37-.08l.16-.06a4,4,0,0,1,.72-.13c.61-.06.14-.06.68,0,.22,0,.12,0,.28.08a5.83,5.83,0,0,1,1,.44l.18.18h0l.08.08a1.84,1.84,0,0,1,.44,1.16c0,.07.43.25.63.44l.09.1c.07.06,0,0,.12.05a3.77,3.77,0,0,0-.66-1.33c-.08-.1-.13-.19-.21-.29a2.16,2.16,0,0,0-.25-.27c-.49-.54-.28-.25-.66-.59l-.8-.48-.74-.27a3.72,3.72,0,0,0-.42-.1,5,5,0,0,0-2.24.1,6.36,6.36,0,0,0-.76.31c-.18.09-1,.42-.71.56.11.05.06,0,.29.08a3.64,3.64,0,0,0,1.18.26Z"/><path class="cls-2" d="M24.63,47.58c.09,0,.14-.35.25-.6.19-.45.24-.72.5-1.24L26,44.21a1.86,1.86,0,0,0,.3-1.09c0-.1,0,0,0-.08a1.5,1.5,0,0,1,0-.2,2.38,2.38,0,0,0-.07-.4,1.26,1.26,0,0,0-.62.35,4.34,4.34,0,0,0-.91,1,3.57,3.57,0,0,0-.38.58c-.19.39-.17.21-.11.77a2.84,2.84,0,0,0,.05.42c0,.15,0,.28.06.43a9.75,9.75,0,0,0,.31,1.59Z"/><path class="cls-1" d="M31,29.85c0,.34.1,1,.12,1.55l.11,1.17c.06.43,0,.52.75.22.22-.09.43-.12.68-.21.41-.16.24-1,.23-1.52a3.55,3.55,0,0,0-.12-.76,2.32,2.32,0,0,1-.06-.38c0-.5,0-.29-.55-.26a1.32,1.32,0,0,0-.38.06c-.24.06-.54.06-.78.13Z"/><path class="cls-1" d="M19.71,27.84a2.69,2.69,0,0,0,.11.7c.17.48.52.67.89,1,.08.06.09.13.25.13l1.12-1.89a.54.54,0,0,0,.09-.12c.1-.15.12-.07.08-.17s-.09-.15-.3-.29l-.54-.29c-.23-.14-.17-.12-.35-.24l-.36-.28c-.35-.23-.2-.17-.65.45a2.72,2.72,0,0,0-.21.46,1.27,1.27,0,0,0-.13.58Z"/><path class="cls-4" d="M45.63,49.49c.17,0,.14-.05.29-.1v-.06c0-.14,0,0,0-.1.2.09.19,0,.41,0l0,0c.06.12,0,.09.13.09a.66.66,0,0,0-.05-.32c0-.1-.06-.19-.1-.29a5.39,5.39,0,0,1-.23-2.16,3.52,3.52,0,0,0-.08-2L46,44.32c-.05-.15,0-.21-.17-.25-.11.12,0,.1-.11.3s-.22.7-.34,1A6,6,0,0,0,45,46.7,6.21,6.21,0,0,0,45.32,49c.09.23.2.31.31.54Z"/><path class="cls-1" d="M24.38,34.6v.24a.91.91,0,0,0,.53.11,1.56,1.56,0,0,0,.55-.07,2.21,2.21,0,0,0,.54-.24l.33-.17c.59-.33,1.14-1.25.88-1.52s-.7.24-1.73-.38c-.11-.07-.14-.15-.26-.2a1.07,1.07,0,0,0-.33.42c-.1.19-.17.34-.26.53a5,5,0,0,0-.26,1.28Z"/><path class="cls-1" d="M30,21.08a2.17,2.17,0,0,1-.72,0,.62.62,0,0,0-.16,0H29l0,0a1.12,1.12,0,0,0-.39-.1.39.39,0,0,0,.05.2c.06.08.05,0,.11.09a1,1,0,0,0,.1.11l.06.07a6.56,6.56,0,0,0,.89.55,3.54,3.54,0,0,0,1.41.06l.52-.15c.63-.21,1.12-.65,2.11-.24.4.17.43.4.52.22s-.09-.54-.17-.67c-.46-.79-1.36-.65-2.11-.47a1.84,1.84,0,0,0-.52.16l-.15.05-.35.09-.18,0c-.07,0-.13,0-.18,0s-.06,0-.17.05a3.2,3.2,0,0,1-.44,0Z"/><path class="cls-1" d="M30,29.19l.62-.05a3.05,3.05,0,0,0,0-.75,10.36,10.36,0,0,1,0-2c0-.12,0-.33,0-.45a1.06,1.06,0,0,1,0-.18c0-.24,0,0,.07-.42l.14-.62c.07-.29.26-.68.26-.75a1.92,1.92,0,0,0-.22-.18c-.11-.08-.1-.14-.28-.12-.11.18-.31.76-.33.79s0,0-.08.15-.09.21-.12.34L29.78,26c0,.07,0,.14,0,.21a1,1,0,0,1-.05.18c0,.12-.05.25-.07.37s0,.33,0,.43a6.68,6.68,0,0,0-.13.78c0,.19-.19,1.09.07,1.17a2,2,0,0,0,.43,0Z"/><path class="cls-1" d="M32.39,29l-.14-.66a4.32,4.32,0,0,1-.15-.66,5,5,0,0,1-.09-.9,11.37,11.37,0,0,1,.07-1.19c0-.18,0-.42.07-.59s.13-.43,0-.55,0,0-.3-.13a.9.9,0,0,0-.39-.07c-.07.17-.33,1.22-.35,1.32A5.16,5.16,0,0,0,31,27.11c0,.3,0,1.71.23,1.87l.36.08a1.82,1.82,0,0,0,.76-.1Z"/><path class="cls-4" d="M46.63,48.62c0-.08.1-.48.12-.54s0,0,0-.1c.11.14,0,.38,0,.66.12,0,.16-.15.3-.37l.46-1a4.62,4.62,0,0,0,.27-1.21,7.29,7.29,0,0,0,0-1.4c0-.08-.06-.62-.07-.65s-.14.11-.19.18-.11.16-.17.23a1.32,1.32,0,0,0-.21.25l-.39.59a3.48,3.48,0,0,1-.17.33,4.25,4.25,0,0,0-.23,1.72,5.89,5.89,0,0,0,.13,1c0,.12,0,.23.13.25Z"/><path class="cls-1" d="M34.08,28.72l-.36-.92c-.08-.17-.08-.32-.16-.49l-.18-.78c0-.1,0-.17,0-.27a5.68,5.68,0,0,1,0-.61,4.82,4.82,0,0,1,0-.93c.05-.38,0-.32-.35-.32a2,2,0,0,0-.35,0,9,9,0,0,0,0,3.31c0,.12,0,.28,0,.38.18.87.15.91,1.13.74l.17,0,.08,0c.07,0,0,0,.06-.05Z"/><path class="cls-1" d="M22.65,31l1-1.4c.35-.38.08-.26-.32-.8l-.68-.9c-.05-.06-.07-.12-.15-.08a4.52,4.52,0,0,0-.33.51l-.57,1.05c0,.07,0,0,0,.08a.79.79,0,0,0,0,.09c-.31.55-.24.42.12.79l.58.51a.53.53,0,0,0,.39.15Z"/><path class="cls-2" d="M23.56,40.19c.1,0,.07,0,.13-.07a5.84,5.84,0,0,1,2-1.35c0-.05-.15-1.49-.18-1.73a9.59,9.59,0,0,0-1.82,1c-.44.38-.4.26-.29,1a7,7,0,0,0,.19,1.2Z"/><path class="cls-1" d="M25.65,31.23a1.29,1.29,0,0,0,0,.71,1,1,0,0,0,.31.46c.47.38,1.24,0,1.61-.38l.09-.09.06-.06a6.13,6.13,0,0,0,.58-1.08c0-.11.08-.17.13-.28l.23-.54c.05-.18.09-.12.09-.31s0-.16-.2-.2a1.59,1.59,0,0,0-.34,0c-.51,0,0,0-.58,1l-.17.19a1.77,1.77,0,0,1-1.05.55L26,31.2c-.11,0-.26,0-.39,0Z"/><path class="cls-4" d="M41.86,55.55c.08-.16.13-1.21.17-1.41a.06.06,0,0,1,0,0l.07,0c0,.12,0,.82,0,1a6.68,6.68,0,0,0,0,1.1c.3-.08.22-.9.43-1.15s.22-.13.33-.22a5.92,5.92,0,0,0,0-2.18c0-.16-.07-.33-.11-.49s0-.16-.06-.24-.17-.64-.28-.58l-.42.8a1.72,1.72,0,0,0-.07.21.61.61,0,0,1-.05.12l-.23.8a3.65,3.65,0,0,0-.1,1.35,6.37,6.37,0,0,0,.18.82l0,0c0,.08,0,0,.08.07Z"/><path class="cls-4" d="M46.44,42.2c.08.06,0,0,.13.21s.75,1.38,1,1.44c.11-.22,0-.2-.1-.53l-.3-.81a2,2,0,0,0-.09-.26A.92.92,0,0,1,47,42c0-.08,0,0,0-.13l-.18-.73a7.52,7.52,0,0,0-.63-1.37c0-.1,0-.1-.12-.13a5.32,5.32,0,0,0,0,3.14,5.08,5.08,0,0,0,.31.59,1.06,1.06,0,0,0,.11.19,2.78,2.78,0,0,0,.26.34c.1.12.2.21.29.31s.21.28.33.1,0-.4-.15-.61l-.23-.38a3.05,3.05,0,0,1-.44-1.09Z"/><path class="cls-1" d="M28.09,33.15a2,2,0,0,0-.24.33c-.08.13-.2.25-.25.34l-.05.09s0,0-.06.09c-.31.49-.74,1,.32,1.07A3,3,0,0,0,28.9,35a1.25,1.25,0,0,0,.69-.42,1.81,1.81,0,0,0,.36-.86c0-.27-.16-.19-.4-.21l-.74-.14c-.15,0-.1-.06-.23-.09h-.11a.79.79,0,0,0-.38-.09Z"/><path class="cls-4" d="M47.61,35a6.81,6.81,0,0,0-.09-1.53c0-.09-.13-.38,0-.48a2.79,2.79,0,0,1,.39,1.18,1.57,1.57,0,0,0,.07-1,4.53,4.53,0,0,0-.32-.85c-.15-.25-.55-.8-.7-1.07l-.13-.3a.43.43,0,0,0-.07-.1l-.07.09a4.55,4.55,0,0,0-.29,1.71,3.92,3.92,0,0,0,.57,1.62l.47.62c.06.07.11.14.21.15Z"/><path class="cls-1" d="M23,31.51l1.08.85a.34.34,0,0,0,.24.06,2.75,2.75,0,0,0,.19-.28l.19-.28a5.81,5.81,0,0,0,.6-.83c.1-.17,0-.23-.11-.32L25,30.48,24.45,30c-.44-.34-.27-.23-.63.13a7.27,7.27,0,0,0-.5.71,3.48,3.48,0,0,0-.32.64Z"/><path class="cls-4" d="M47.12,48.84a3.14,3.14,0,0,0,.72-.34,2.25,2.25,0,0,0,.57-.5A4.69,4.69,0,0,0,49,47a.85.85,0,0,0,.16-.4c-.36.05-.42.36-.56.63l-.69.87h0l-.09.07a.2.2,0,0,1-.13.06c0-.13.18-.24.26-.35l.7-1.07a3.66,3.66,0,0,0,.18-.46v0A.89.89,0,0,0,49,46c.06-.22,0-.25.08-.39a1.59,1.59,0,0,0,.05-.45c0-.2,0-.44,0-.64-.11,0-.34.28-.41.35a2.58,2.58,0,0,1-.53.46l-.09.07c-.09.08-.05.19-.07.35a7.82,7.82,0,0,1-.25,1.35c-.06.18-.1.44-.17.63l-.36.82c0,.11-.12.16-.13.28Z"/><path class="cls-4" d="M40.42,53.21a2.82,2.82,0,0,0,.36,1.71c0,.07.11.1.16.17s.07.15.22.16A7.59,7.59,0,0,0,41,53.91a.34.34,0,0,1,0-.1l0-.11.26,1.06a2.17,2.17,0,0,0,.14.49,2.66,2.66,0,0,1,.12.56c.16,0,.08.28.25.36,0-.34-.11-.43-.19-.73l-.14-.51a4,4,0,0,1-.08-.94,2.22,2.22,0,0,1,.13-.77,2,2,0,0,0,0-.77,1.16,1.16,0,0,1-.06-.15,5.35,5.35,0,0,0-.38-1.19,3.54,3.54,0,0,0-.41,1,1.94,1.94,0,0,1-.1.24,1.63,1.63,0,0,0-.07.26,3.59,3.59,0,0,0-.07.65Z"/><path class="cls-1" d="M32.41,24l.59,0a4.69,4.69,0,0,1,1.22-.12s.12,0,.11-.11,0-.05,0-.09l-.49-.31a13.59,13.59,0,0,0-1.68-.45.52.52,0,0,1-.31-.25l-.2-.33a.64.64,0,0,0-.4.08A.88.88,0,0,0,31,23.42c.2.44,1,.54,1.39.54Z"/><path class="cls-4" d="M48.68,41.76v1c0,.18-.06-.15,0,.05l0,0c.09,0,0,0,.09-.09l.06-.09.11-.2a4.46,4.46,0,0,0,.54-1.38,3.12,3.12,0,0,0,0-1.69c0-.07-.1-.48-.12-.52s-.09.06-.22.24a5.27,5.27,0,0,0-.45,1,1.46,1.46,0,0,0-.14.8,2.14,2.14,0,0,1,.07.39c0,.15,0,.27,0,.44Z"/><path class="cls-4" d="M43.08,55.45c0-.08.23-.21.31-.26a5,5,0,0,0,.78-1,2.86,2.86,0,0,0,.46-1.86.8.8,0,0,0-.35.11,3.59,3.59,0,0,0-.78.66c-.34.38-.22.34-.29.68,0,.15,0,.31,0,.46a1.2,1.2,0,0,0-.07.43l.12-.12a.89.89,0,0,1,.21-.26c.11-.11,0-.1.12-.14s0,.14-.13.29l-.38.58c0,.07,0,.11-.06.17a.39.39,0,0,0,0,.25l.15,0Z"/><path class="cls-2" d="M34.7,27.12c.14-.05.36-.38.47-.53s.7-.91.59-1.12a1.57,1.57,0,0,0-.42-.51.51.51,0,0,0-.3-.14.57.57,0,0,0-.61.33,1.78,1.78,0,0,0,0,.86,1.52,1.52,0,0,0,0,.21.65.65,0,0,0,.05.18c0,.11,0,.28.07.41s0,.09.09.24a.18.18,0,0,0,.05.07Z"/><path class="cls-2" d="M35.9,56.44a1.76,1.76,0,0,0,.4,0l.3-.08c-.07-.16-.21-.23-.38-.45a5.27,5.27,0,0,1-.5-.78c-.07-.12-.16-.09-.35-.06s-.47.08-.72.14-.64,0-.39.3l.39.48a1.75,1.75,0,0,0,1.25.47Z"/><path class="cls-1" d="M36.61,59a3.49,3.49,0,0,0,.69.23c0-.15-.1-.28-.11-.44s.1-.07.24-.1l.26-.08a1,1,0,0,0,.25-.09,2.31,2.31,0,0,0,1-.41c.1-.06.17-.06.17-.17l-.39-.18a10,10,0,0,0-1.31-.51,3,3,0,0,1-.52,1.36c-.06.08-.25.28-.25.39Z"/><path class="cls-1" d="M21.22,59.33a1.28,1.28,0,0,0,.48.25l.06,0a1.46,1.46,0,0,0,.7.12,1.11,1.11,0,0,0,.42-.21c.83-.82-.13-1.19-.51-1.14a.82.82,0,0,0-.31.11c-.4.15-.92.31-.84.83Z"/><path class="cls-1" d="M39.67,30.26c-.32,0-.27-.11-.27.57v1.3c.23,0,.56-.37.71-.54l.17-.24a3.18,3.18,0,0,0,.35-.9c0-.17.07-.11.06-.36-.29,0-.68.17-1,.17Z"/><path class="cls-1" d="M35.67,23.94A2.49,2.49,0,0,0,35,22.68a1.92,1.92,0,0,0-1-.45c-.32.05-.64.33-.48.57.07.08.29.11.56.28a3.68,3.68,0,0,0,.35.15,2.19,2.19,0,0,1,.3.16l.32.18c.18.1.37.37.6.37Z"/><path class="cls-1" d="M40.86,28c0,.19.06.26.16.45a3.78,3.78,0,0,0,.22.4c.15,0,0,0,.26-.14l.41-.32h0l0,0c.22-.2.55-.46.45-.77,0-.07,0,0-.06-.14l-.06-.15a.71.71,0,0,0-.15-.26c-.12,0-.23.17-.31.25a1.83,1.83,0,0,1-.16.13l-.14.15-.67.45Z"/><path class="cls-1" d="M22.08,57.09c-.21,0-.41.2-.56.33a7.58,7.58,0,0,0-.9.89c-.29.51-.06,1.13.46.49l.11-.1.11-.12a3.36,3.36,0,0,0,.78-1.49Z"/><path class="cls-1" d="M40.63,28.77v-.46a6.61,6.61,0,0,0-.86.26c-.18,0-.19.15-.21.35a3.7,3.7,0,0,0-.07.51c0,.28,0,.24.31.23a1.08,1.08,0,0,0,.46-.12c.34-.16.37-.3.37-.77Z"/><path class="cls-5" d="M36.35,26.52A2.25,2.25,0,0,0,36,27c-.11.13-.22.32-.34.45a3.94,3.94,0,0,0-.57.6c0,.11.21.39.36.39s.52-.4.59-.6a2,2,0,0,1,.1-.29,2.69,2.69,0,0,0,.21-1Z"/><path class="cls-5" d="M26,26a3,3,0,0,0,.12.66,5.16,5.16,0,0,0,.31,1.22c0,.07.1.19.17.22.29.09.41-.59.36-.72a3.28,3.28,0,0,0-.36-.43l-.43-.71c-.06-.12-.05-.16-.17-.24Z"/><path class="cls-4" d="M45.79,53.24a4.33,4.33,0,0,0-1,.3l-.21.46c0,.1-.56.8.25.29l.22-.13c.25-.18.77-.51.79-.92Z"/><path class="cls-1" d="M32.58,21.86c-.22.09-.42.18-.37.53a.46.46,0,1,0,.89-.19.35.35,0,0,0-.18-.28l-.16-.07s0,0-.09,0-.07,0-.09,0Z"/><path class="cls-1" d="M16,57.48c.11,0,.15-.17.24-.26s.22-.16.25-.26a1.11,1.11,0,0,0-.93-.26c-.07.06.1.24.19.38a3.34,3.34,0,0,0,.25.4Z"/><path class="cls-1" d="M35.84,31.5c-4.72,6.15-8.94,12.75-11.12,21.17a.36.36,0,0,0,.39-.09c2.32-9.51,6.35-14.43,10.73-21.08Z"/><path class="cls-1" d="M19.78,56.29a.65.65,0,0,0,.37-.31c.05-.14,0-.1,0-.15s0,0,.05-.07-.06-.08-.13-.15-.05-.13-.18-.31a1,1,0,0,1-.08-.15c-.08-.13-.19-.12-.1-.31l.05-.08a3,3,0,0,0,.58-1.71,3.26,3.26,0,0,0-.18-1.29c-.17-.45-.53-.83-.7-1.26-.05-.11-.08-.24-.13-.34s-.06,0-.12.1a2.45,2.45,0,0,0-.33,1c-.11,0-.1-.05-.15-.14a.57.57,0,0,0-.12-.17l-.53-.58c-.11-.12-.1-.26-.29-.26l-.16.46c-.05.14-.05.24-.14.49a2.69,2.69,0,0,0-.17,1c0,.27.08.5.09.74A.93.93,0,0,1,17,52.6c-.13-.1-.2-.12-.22-.35a7.42,7.42,0,0,0-.2-1,1.19,1.19,0,0,1,.24-.88,2.51,2.51,0,0,0,.68-2.59,3.62,3.62,0,0,0-.51-1,1.54,1.54,0,0,1-.09-.77c-.1,0-.1,0-.15.08s-.17.22-.31.22a2,2,0,0,1,.08-.41,2.33,2.33,0,0,0-.1-1.28c-.05-.44-.15-.89-.23-1.31a1.49,1.49,0,0,0-.08-.41c-.13,0-.11.06-.16.15a.3.3,0,0,1-.07.1l-.33.41v0l-.09.14c-.2.28-.26.72-.5.41a1.66,1.66,0,0,0-.32-.38c-.29-.2-.14-.19.06-.51l.11-.13a2.46,2.46,0,0,0,.22-.34l.21-.37v0l0-.06A4.83,4.83,0,0,0,16,39.91a4.76,4.76,0,0,0-.21-1.45,1.48,1.48,0,0,0-.12-.29l-.05,0h0c-.07,0-.06.46-.22.72a3.33,3.33,0,0,1-.33.58,1.45,1.45,0,0,0-.37.57l0,0h0c-.09.12-.16.43-.35.42,0-.06,0-.21-.06-.27l0,0c-.15-.13-.16-.52-.21-.71a.79.79,0,0,1,.17-.76l.45-.53a2.66,2.66,0,0,0,.44-.55,3.87,3.87,0,0,0,.26-.77c0-.15.07-.27.09-.41a3,3,0,0,1,0-.44,3.39,3.39,0,0,0,0-1.35,1.82,1.82,0,0,0,0-.48c-.12,0-.09,0-.17.13a9.78,9.78,0,0,1-.75.68c-.09.07-.17.22-.29.22a.51.51,0,0,1,.32-.47,2.06,2.06,0,0,0,.55-.47,1.2,1.2,0,0,1,.1-.11,1.7,1.7,0,0,0,.35-.83,7.1,7.1,0,0,0,0-1.38,5.9,5.9,0,0,0-.26-1.52c-.06,0-.1.16-.12.25a1.56,1.56,0,0,1-.39.6c-.09.08,0,0-.16.07a1,1,0,0,1,.13-.32l.09-.33a1.64,1.64,0,0,1,0-.38,5.38,5.38,0,0,0,0-1.21c0-.25,0-.55,0-.8-.12,0-.23.16-.31.23l-.28.27a2.88,2.88,0,0,1-.68.47l-.23.24-.13.15a1.07,1.07,0,0,0-.3.5,1.45,1.45,0,0,0-.12.4c-.06.54-.14.29,0,.95s.56,1,.57,1.57a1.73,1.73,0,0,0,0,.51,1.23,1.23,0,0,1,.06.44c-.36-.13-.14-.29-.26-.57a.35.35,0,0,0-.68.14c0,.4.33.64.65.36a1.13,1.13,0,0,0,.25.29.6.6,0,0,1,.25.29,2.27,2.27,0,0,1,.26.8c-.08,0-.13-.15-.18-.22L13.67,35c0-.26.06-.2-.11-.45h-.24a.71.71,0,0,1-.15.15.76.76,0,0,0,.05.48c.08.12.22.07.4.08a1.94,1.94,0,0,1,.22.43.75.75,0,0,1-.14.5,1.57,1.57,0,0,1-.16-.29c-.33-.55-.58-.59-.82-1a1.7,1.7,0,0,0-.1-.14.5.5,0,0,1-.08-.12,1.53,1.53,0,0,0-.17-.27c-.13-.13,0-.23-.21-.23a28.63,28.63,0,0,0-.06,3.14,3.32,3.32,0,0,0,.13.67l.25.55a1.08,1.08,0,0,0,.18.24,1.43,1.43,0,0,0,.61.41l.13,0c0,.16,0,.17-.09.28s-.17.64-.31.84c-.1-.09-.12-.24-.2-.38-.24-.41-.39-.32-.63-.57s-.13-.26-.27-.31a8.09,8.09,0,0,0-.08,1.78,5.11,5.11,0,0,1,0,.53c-.11,0-.26-.31-.39-.39s0-.46-.24-.53a3.08,3.08,0,0,0,0,1.48.65.65,0,0,0,0,.15,3.66,3.66,0,0,0,.6,1.22,2.78,2.78,0,0,0,.21.27,5.54,5.54,0,0,0,.71.64,3.63,3.63,0,0,0,.87.52c.22.12.38.16.23.41a3.5,3.5,0,0,1-1.32-.53c-.17-.11-.27-.21-.39-.21a5.24,5.24,0,0,0,.39,1.13l.51,1a2.88,2.88,0,0,0,1.15,1.12l.49.23.07,1.21c-.13-.06-.11-.14-.2-.22a2.21,2.21,0,0,0-.36-.23,6.35,6.35,0,0,1-.71-.22c-.45-.25-.43-.54-.59-.58a5.32,5.32,0,0,0,.69,2.89,2.42,2.42,0,0,0,1.13,1c-.16.28-.2.23-.06.53s.23.27.49.27c.07.13.12.24.2.37a1.17,1.17,0,0,1,.22.34c-.4,0-.77-.46-.94-.46a2.83,2.83,0,0,0,.08.4,3.63,3.63,0,0,0,.69,1.28c.17.23.1.45.53.93a2.27,2.27,0,0,0,1.53.44,7.23,7.23,0,0,0,1.39-.1c.36-.08.4-.08.63.14l.2.24c.05.08.05,0,.06.15ZM18,55.64a4.69,4.69,0,0,0,.77-.06c.16,0,.26,0,.26,0a1.53,1.53,0,0,0-1-.41,7.53,7.53,0,0,1-1-.1l-.53-.11-.09,0-.4-.11a.93.93,0,0,0-.2-.08c0,.24.47.55.78.69a3.58,3.58,0,0,0,1.41.26ZM15,52a.18.18,0,0,1,.17.19.17.17,0,1,1-.34,0A.18.18,0,0,1,15,52Zm1-8.58a6.88,6.88,0,0,0-.83,1.23,5.1,5.1,0,0,1,.29,3,3.27,3.27,0,0,0,.82-2.27,7.85,7.85,0,0,1-.28-2Zm-2.61-8.64a.18.18,0,0,1,.16.2c0,.12-.07.21-.16.21s-.16-.09-.16-.21a.18.18,0,0,1,.16-.2Zm-.54-1.33a.26.26,0,0,1,.25.28.26.26,0,0,1-.25.27.28.28,0,0,1,0-.55Z"/><path class="cls-4" d="M13.14,48.39a5.52,5.52,0,0,0,.34,1.43,4.2,4.2,0,0,0,.3.6l.38.54a1.87,1.87,0,0,0,.79.53,3.1,3.1,0,0,0,.36.1l.18,0,.34.14c.14.08,0,0,.21.12l.19.12,0,0h0l.09.06c.1.06.09.08.12,0s-.1-.55-.16-.66a4.57,4.57,0,0,0-.58-.77,1.72,1.72,0,0,1-.78-.91c-.07-.16-.09-.34-.16-.41a4.24,4.24,0,0,0-.78-.57c-.23-.14-.15-.07-.33-.12-.34-.11-.3-.18-.53-.31l0,0Z"/><path class="cls-4" d="M12.3,35a9.28,9.28,0,0,0,.2,2.75c0,.11.1.29.15.39a3.16,3.16,0,0,0,.44.64c.08.08.18.23.32.23,0-.17-.31-1.67-.31-1.74,0-.23,0-.09.07-.15l.18.61h0l0,.07h0v0l.17.43c.07.17.1.29.25.26a7.74,7.74,0,0,0-.41-2.34,2.73,2.73,0,0,0-.26-.43c-.23-.28-.43-.47-.66-.74l-.15-.2c-.09-.1-.06.07-.06.18Z"/><path class="cls-4" d="M18.27,53.88a5.12,5.12,0,0,0-.15-.9L18,52.09c.11,0,0,0,.1.15v0l.41,1.33a2.61,2.61,0,0,0,.18.52c.1-.06.1-.3.15-.43a4,4,0,0,0,.09-.5,1.69,1.69,0,0,0-.24-1.24l-.24-.47s0,0,0,0L18,50.78c-.14-.16-.05-.11-.17-.17a2,2,0,0,0-.18.65c0,.1-.05.07-.07.21s0,.13,0,.22a2,2,0,0,0,0,.77,3.24,3.24,0,0,0,.57,1.27s0,.05.06.07l.11.08Z"/><path class="cls-4" d="M19.07,51.6a11,11,0,0,1,0,2.5c-.07.3-.22.45,0,.73,0,.06.15.27.24.24s0,0,.07-.12l.17-.38a4.93,4.93,0,0,0,.19-.54c.07-.18.08-.39.15-.57a3.31,3.31,0,0,0,.06-.85,2.35,2.35,0,0,0-.45-1.54c-.08-.12-.15-.33-.27-.41a2.45,2.45,0,0,0-.17.94Z"/><path class="cls-4" d="M14.09,45.48a1.75,1.75,0,0,0,.08.54,7.29,7.29,0,0,0,.41,1.16c.05.1.05.16.16.18a9.55,9.55,0,0,0-.17-1.4v-.13c0-.06,0,0,0-.06s.15.33.16.46.2.77.24,1,0,.18.13.35,0,.06.09.08a5,5,0,0,0,.09-2.21,4.51,4.51,0,0,0-.56-1,2.12,2.12,0,0,0-.38-.43l-.14.69a2.6,2.6,0,0,0-.12.74Z"/><path class="cls-4" d="M14,43.62a10.1,10.1,0,0,1-.71-1.16l-.1-.28a1,1,0,0,1-.12-.27,3,3,0,0,1-.07-.32c-.08-.55.08-.6-.28-1.25a3,3,0,0,0-.31-.45c-.05-.07-.12-.12-.18-.2s-.08-.16-.2-.19A4.33,4.33,0,0,0,12,41a3.5,3.5,0,0,0,.17.6,7.16,7.16,0,0,0,.4.78l.05.13h0l.49.56a4.53,4.53,0,0,0,.89.59Z"/><path class="cls-4" d="M13.93,34.18l.32-1.09a5.08,5.08,0,0,1,.17-.51c.06-.16,0-.16.08-.25s0-.17.14-.22c.06.11-.05.31-.12.53l-.13.57a2.86,2.86,0,0,0-.12,1.24c.09,0,.12-.08.19-.18a2.2,2.2,0,0,0,.46-.63,3.41,3.41,0,0,0,.29-1.2l-.14-1.23c-.14,0-.15.08-.31.26l-.27.31a2.28,2.28,0,0,0-.64,1,2.36,2.36,0,0,0-.1.46,1.31,1.31,0,0,0,.05.74c.1.2,0,.14.13.17Z"/><path class="cls-4" d="M13.28,32a10.71,10.71,0,0,1,.45-1.56c0-.1,0,0,.07-.08s0,.17-.05.36a5.4,5.4,0,0,0-.24,1.26c.15-.05.05-.06.18-.23l.17-.25c.81-1.2.65-1.15.65-2.58-.16,0-.17.12-.34.27-.61.55-1.2.54-1.13,2.13a1.4,1.4,0,0,0,.06.24c0,.17,0,.38.18.44Z"/><path class="cls-4" d="M14.09,37.49a3.78,3.78,0,0,0,.24-.78l.2-.58s0,0,0-.08l0-.09c.07.13,0,0,0,.26l-.13.59a6.94,6.94,0,0,0-.28,1.49c.06,0,0,0,.11-.11A3.24,3.24,0,0,0,15,36.78a4.5,4.5,0,0,0,.22-1c0-.4,0-.79,0-1.2h0l-.5.55a2,2,0,0,0-.64.94,4.24,4.24,0,0,0-.1.46,2,2,0,0,0,.08.73c0,.15,0,.14.08.2Z"/><path class="cls-4" d="M17.55,54.93a3.64,3.64,0,0,0,.87-.1c.18,0,.29,0,.29-.08a1.51,1.51,0,0,0-1.13-.66,7.74,7.74,0,0,1-1.12-.16l-.58-.18-.11,0-.44-.19a1.67,1.67,0,0,0-.23-.12A2.05,2.05,0,0,0,16,54.51a3,3,0,0,0,1.58.42Z"/><path class="cls-4" d="M14,43a9,9,0,0,0-.31-1.53L13.62,41a8.68,8.68,0,0,1,.5,1.4c.06.18.05.39.18.47a3.25,3.25,0,0,0,0-1.55,6,6,0,0,1-.48-1.58,3.13,3.13,0,0,0-.05-.36c-.21.06-.4.63-.46.81a2.94,2.94,0,0,0-.07,1.38,1,1,0,0,0,.07.24,5.86,5.86,0,0,0,.49,1.08l.06.09c0,.07,0,.06.1.08Z"/><path class="cls-4" d="M16.38,49s.05,0,.06-.16a.6.6,0,0,1,0-.2c.12-.31.14-.81.23-1l.05-.09A4.91,4.91,0,0,1,16.68,49a1.32,1.32,0,0,0-.07.5,1,1,0,0,0,.13.47,4.29,4.29,0,0,0,.51-1.74A3.71,3.71,0,0,0,16.83,47c-.06-.13-.11-.31-.16-.41s-.11.06-.22.24l-.36.64a1.11,1.11,0,0,1-.07.16c-.4.76-.22.55.14,1.1a.54.54,0,0,1,.09.15c.05.09.06.11.13.13Z"/><path class="cls-4" d="M14.82,42.49c.09,0,0,0,.06-.07l.14-.33c0-.08.07-.11.11-.2l.42-1.14a6.76,6.76,0,0,0,.18-1,5.21,5.21,0,0,0-.06-.88.81.81,0,0,0,0-.11c-.05-.11,0,0-.07-.09s0,.16-.08.25l-.29.68c-.15.32-.17.16-.38.49-.08.14-.45.56-.39.8s.24.24.36,1c0,.19,0,.51,0,.65Z"/><path class="cls-4" d="M16.35,50.87a2.26,2.26,0,0,0-.22-1.8l-.54-.56c-.11-.1-.46-.49-.59-.52v0s-.05,0,0,.23,0,.13,0,.22,0,.17,0,.25l.25,1a3.48,3.48,0,0,0,.79.95c.1.09.19.22.3.25Z"/><path class="cls-4" d="M14,44.63l.08-.29c0-.13.07-.09.06-.28a3.31,3.31,0,0,1-1.61-1.18,3.93,3.93,0,0,1-.29-.42c0-.08-.06-.15-.1-.23s0-.12-.11-.25l-.49-.55c-.1-.11-.1,0-.09.15a2.55,2.55,0,0,0,.9,1.88,6.29,6.29,0,0,0,1.16.94,1.05,1.05,0,0,0,.49.23Z"/><path class="cls-4" d="M14.3,47.46a4.32,4.32,0,0,1-.39-1.74c0-.21.07-.26-.08-.29a1.59,1.59,0,0,1-.62-.16,2,2,0,0,1-.46-.22c-.07,0-.05,0-.16-.06a4.83,4.83,0,0,0,1.71,2.47Z"/><path class="cls-4" d="M17.77,53.82c0-.28-.7-.79-.93-.93l-.31-.17a2.93,2.93,0,0,0-1.15-.33,2,2,0,0,0,.81,1.1,2.92,2.92,0,0,0,.36.11l.82.15c.19,0,.2.09.4.07Z"/><path class="cls-1" d="M44.91,56.49a.64.64,0,0,1,0-.28c0-.09-.17-.23-.13-.31a1.67,1.67,0,0,1,1,.35c0,.07-.3,0-.45,0s-.23.15-.41.19Z"/><path class="cls-4" d="M46,54a8.18,8.18,0,0,0-1.21.5l-.15.35c0,.07-.51.66.36.1.08-.06.18-.1.24-.15.26-.19.83-.55.76-.8Z"/></svg>