<svg id="Capa_1" data-name="Capa 1" xmlns="http://www.w3.org/2000/svg" viewBox="0 0 20 20"><defs><style>.cls-1{fill:#7fb8a7;}</style></defs><path class="cls-1" d="M15.81,3.59H4.19A2.36,2.36,0,0,0,1.83,5.94v8.12a2.36,2.36,0,0,0,2.36,2.35H15.81a2.36,2.36,0,0,0,2.36-2.35V5.94A2.36,2.36,0,0,0,15.81,3.59Zm0,1.12a.9.9,0,0,1,.28,0l-4.9,5.56a1.6,1.6,0,0,1-2.38,0L3.91,4.75a.9.9,0,0,1,.28,0ZM17,14.06a1.23,1.23,0,0,1-1.23,1.23H4.19A1.23,1.23,0,0,1,3,14.06V5.94a1.18,1.18,0,0,1,.09-.46L8,11.05a2.7,2.7,0,0,0,4.06,0L17,5.48a1.18,1.18,0,0,1,.09.46Z"/></svg>