<svg id="Capa_1" data-name="Capa 1" xmlns="http://www.w3.org/2000/svg" xmlns:xlink="http://www.w3.org/1999/xlink" viewBox="0 0 140 40"><defs><style>.cls-1{fill:#343434;}.cls-2{fill:#84ba49;}.cls-3{opacity:0.3;}.cls-4{fill:url(#Degradado_sin_nombre_29);}</style><linearGradient id="Degradado_sin_nombre_29" x1="4003.7" y1="-18887.92" x2="4003.7" y2="-18703.6" gradientTransform="matrix(0.13, 0, 0, -0.13, -478.94, -2329.52)" gradientUnits="userSpaceOnUse"><stop offset="0" stop-color="#010101"/><stop offset="1" stop-color="#fff"/></linearGradient></defs><g id="g2980"><g id="logo"><path class="cls-1" d="M46.3,25.59V15.92l-4.41,7.55h-.5L37,15.92v9.67h-.81V14.41H37l4.66,8,4.66-8h.81V25.59Z"/><path class="cls-1" d="M53.09,14.41h.69L58.5,25.59h-.85l-1.56-3.68H50.75l-1.56,3.68h-.86Zm2.79,6.83-2.44-5.86L51,21.24Z"/><path class="cls-1" d="M59.73,25.59V14.41h4.65a3,3,0,0,1,1.31.29,3.36,3.36,0,0,1,1,.8,4,4,0,0,1,.68,1.12,3.43,3.43,0,0,1,.24,1.25,3.66,3.66,0,0,1-.19,1.19,3.07,3.07,0,0,1-.54,1,3.34,3.34,0,0,1-.83.76,2.81,2.81,0,0,1-1.07.39l2.79,4.35h-.93l-2.71-4.22H60.53v4.22Zm.8-4.95h3.93a2.15,2.15,0,0,0,1-.24,2.66,2.66,0,0,0,.76-.62,3.31,3.31,0,0,0,.48-.89,3.2,3.2,0,0,0,.16-1,2.59,2.59,0,0,0-.2-1,3,3,0,0,0-.53-.88,2.71,2.71,0,0,0-.79-.6,2,2,0,0,0-1-.24H60.54v5.52Z"/><path class="cls-1" d="M73.43,14.41h.69l4.72,11.18H78l-1.55-3.68H71.09l-1.55,3.68h-.87Zm2.79,6.83-2.44-5.86-2.5,5.86Z"/><path class="cls-1" d="M80.87,15.92v9.67h-.8V14.41h.62l7.84,9.85V14.41h.81V25.59H88.6Z"/><path class="cls-1" d="M100.22,23.85a4.88,4.88,0,0,1-3.77,1.82,4.54,4.54,0,0,1-2.1-.49,5.38,5.38,0,0,1-1.66-1.29,6.11,6.11,0,0,1-1.1-1.82,6,6,0,0,1,1.07-6,5.26,5.26,0,0,1,1.63-1.25,4.56,4.56,0,0,1,2.07-.46,5.82,5.82,0,0,1,1.5.18,4.46,4.46,0,0,1,1.2.5,3.76,3.76,0,0,1,.91.77,4.08,4.08,0,0,1,.65,1l-.66.39a3.54,3.54,0,0,0-1.5-1.6,4.48,4.48,0,0,0-2.12-.49,3.74,3.74,0,0,0-1.8.43,4.38,4.38,0,0,0-1.37,1.12,4.91,4.91,0,0,0-.87,1.57A5.59,5.59,0,0,0,92,20a5,5,0,0,0,.35,1.88,5,5,0,0,0,1,1.57,4.91,4.91,0,0,0,1.43,1.08,3.89,3.89,0,0,0,1.76.4,4.24,4.24,0,0,0,1.94-.47,5.76,5.76,0,0,0,1.77-1.5V20.81H97.67v-.65h3.23V25.6h-.68Z"/><path class="cls-1" d="M106.63,14.41h.69L112,25.59h-.85l-1.55-3.68h-5.35l-1.55,3.68h-.87Zm2.79,6.83L107,15.38l-2.49,5.86Z"/><path class="cls-1" d="M119.49,15.13h-4.1V25.59h-.8V15.13h-4.1v-.72h9Z"/><path class="cls-1" d="M125.32,24.93a3.66,3.66,0,0,0,1.88-.43,3.1,3.1,0,0,0,1.18-1.12,4.65,4.65,0,0,0,.62-1.57,8.88,8.88,0,0,0,.18-1.78V14.4H130V20a8.83,8.83,0,0,1-.25,2.14A5.11,5.11,0,0,1,129,24a4.09,4.09,0,0,1-1.43,1.24,4.78,4.78,0,0,1-2.18.45,4.73,4.73,0,0,1-2.24-.48,3.88,3.88,0,0,1-1.44-1.28,5.56,5.56,0,0,1-.77-1.81,9.52,9.52,0,0,1-.23-2.07V14.4h.81V20a9.11,9.11,0,0,0,.18,1.81,4.45,4.45,0,0,0,.62,1.57,3.4,3.4,0,0,0,1.19,1.1,3.61,3.61,0,0,0,1.86.42Z"/></g><g id="iso"><path class="cls-2" d="M31.81,18.1a9.63,9.63,0,0,0-2.72-1.22,9.62,9.62,0,0,0,1.05-2.8,2.4,2.4,0,0,0-.46-2.22,2.42,2.42,0,0,0-2.23-.47,9.63,9.63,0,0,0-2.79,1.06,9.85,9.85,0,0,0-1.23-2.73,2.41,2.41,0,0,0-1.9-1.24,2.39,2.39,0,0,0-1.89,1.24,9.3,9.3,0,0,0-1.23,2.73,9.58,9.58,0,0,0-2.8-1.06,2.4,2.4,0,0,0-2.22.47,2.42,2.42,0,0,0-.47,2.22A9.68,9.68,0,0,0,14,16.88a9.7,9.7,0,0,0-2.73,1.22A2.42,2.42,0,0,0,10,20a2.4,2.4,0,0,0,1.24,1.9A9.42,9.42,0,0,0,14,23.13a9.63,9.63,0,0,0-1.06,2.79,2.44,2.44,0,0,0,.47,2.23,2.05,2.05,0,0,0,1.49.53,3.75,3.75,0,0,0,.73-.07,9.68,9.68,0,0,0,2.8-1.06,9.57,9.57,0,0,0,1.23,2.73,2.39,2.39,0,0,0,1.89,1.24,2.4,2.4,0,0,0,1.9-1.24,9.57,9.57,0,0,0,1.23-2.73,9.53,9.53,0,0,0,2.79,1.06,3.93,3.93,0,0,0,.74.07,2.05,2.05,0,0,0,1.49-.53,2.44,2.44,0,0,0,.46-2.23,9.68,9.68,0,0,0-1.05-2.79,9.62,9.62,0,0,0,2.72-1.23A2.37,2.37,0,0,0,33.05,20,2.4,2.4,0,0,0,31.81,18.1Zm-2.55-5.82c.67.67.39,2.32-.76,4.43a22,22,0,0,0-2.24-.47,1.13,1.13,0,0,0-1-1A22.62,22.62,0,0,0,24.83,13C26.94,11.89,28.58,11.61,29.26,12.28Zm-6.64,8h2.93a1.13,1.13,0,0,0,1.09.83,1.16,1.16,0,0,0,.42-.08c.42.58.8,1.15,1.13,1.71-.63.16-1.3.29-2,.41a1.21,1.21,0,0,0-.24-.35,1.12,1.12,0,0,0-1.35-.19l-2.07-2.07A1.17,1.17,0,0,0,22.62,20.3Zm4,.23a.53.53,0,1,1,0-1.05.53.53,0,0,1,0,1.05ZM27.05,19a1.16,1.16,0,0,0-.42-.08,1.12,1.12,0,0,0-1.08.83H22.62a1.19,1.19,0,0,0-.11-.26l2.07-2.07a1.12,1.12,0,0,0,1.35-.19.92.92,0,0,0,.24-.35c.72.11,1.39.25,2,.41A19.52,19.52,0,0,1,27.05,19ZM25.51,16a.53.53,0,0,1,0,.74.52.52,0,1,1,0-.74Zm-.81-.66a1,1,0,0,0-.36.24A1.14,1.14,0,0,0,24.16,17L22.09,19a1.19,1.19,0,0,0-.26-.11V16a1.12,1.12,0,0,0,.83-1.08,1.16,1.16,0,0,0-.08-.42q.87-.63,1.71-1.14C24.45,14,24.59,14.65,24.7,15.37Zm-3.17,5.16a.53.53,0,1,1,.53-.53A.53.53,0,0,1,21.53,20.53Zm.53,4.57a.52.52,0,1,1-1,0,.52.52,0,0,1,.52-.52A.51.51,0,0,1,22.06,25.1ZM21,14.9a.53.53,0,0,1,1,0,.53.53,0,0,1-.53.53A.53.53,0,0,1,21,14.9Zm.52-5.81c1,0,1.92,1.36,2.6,3.66q-.94.55-1.92,1.26a1.12,1.12,0,0,0-1.36,0,21.71,21.71,0,0,0-1.92-1.26C19.62,10.45,20.58,9.09,21.53,9.09Zm-2.75,4.26c.56.33,1.13.72,1.71,1.14a1.16,1.16,0,0,0-.08.42A1.12,1.12,0,0,0,21.24,16v2.93A1.12,1.12,0,0,0,21,19L18.91,17a1.11,1.11,0,0,0-.18-1.35,1,1,0,0,0-.36-.24C18.48,14.65,18.62,14,18.78,13.35ZM17.52,19.7a1.14,1.14,0,0,0-1.08-.83A1.16,1.16,0,0,0,16,19c-.43-.58-.8-1.15-1.14-1.71.63-.15,1.3-.29,2-.4a1,1,0,0,0,.23.35,1.13,1.13,0,0,0,1.35.18l2.08,2.08a1.12,1.12,0,0,0-.11.25Zm-1.08-.22a.52.52,0,1,1,0,1,.52.52,0,1,1,0-1ZM16,21.05a1.16,1.16,0,0,0,.42.08,1.13,1.13,0,0,0,1.08-.83h2.93a1.12,1.12,0,0,0,.11.25l-2.08,2.08a1.11,1.11,0,0,0-1.35.18,1,1,0,0,0-.23.35c-.72-.11-1.39-.25-2-.4C15.22,22.2,15.59,21.63,16,21.05Zm2.28-4.28a.52.52,0,1,1,0-.74A.51.51,0,0,1,18.3,16.77Zm-4.48-4.49a1.44,1.44,0,0,1,1.07-.36A7.8,7.8,0,0,1,18.24,13a22.24,22.24,0,0,0-.47,2.25,1.12,1.12,0,0,0-.64.32,1.06,1.06,0,0,0-.32.64,22.67,22.67,0,0,0-2.24.46C13.43,14.6,13.14,13,13.82,12.28ZM10.62,20c0-.95,1.37-1.91,3.67-2.59.36.63.78,1.26,1.25,1.92a1.16,1.16,0,0,0,0,1.36,21.53,21.53,0,0,0-1.25,1.92C12,21.92,10.62,21,10.62,20Zm3.2,7.72c-.68-.67-.39-2.32.75-4.42a22.3,22.3,0,0,0,2.25.46,1,1,0,0,0,.31.64,1.12,1.12,0,0,0,.65.32A22.3,22.3,0,0,0,18.24,27C16.14,28.11,14.49,28.4,13.82,27.72ZM17.56,24a.52.52,0,0,1,.74-.74.53.53,0,0,1,0,.74A.51.51,0,0,1,17.56,24Zm.81.66a1,1,0,0,0,.36-.24,1.12,1.12,0,0,0,.18-1.35L21,21a1.12,1.12,0,0,0,.25.11V24a1.13,1.13,0,0,0-.83,1.08,1.16,1.16,0,0,0,.08.42q-.87.63-1.71,1.14C18.62,26,18.48,25.35,18.37,24.64Zm3.16,6.28c-1,0-1.91-1.37-2.59-3.67A21,21,0,0,0,20.86,26a1.07,1.07,0,0,0,.68.23,1.09,1.09,0,0,0,.68-.23,19.68,19.68,0,0,0,1.92,1.26C23.45,29.55,22.49,30.92,21.53,30.92Zm2.76-4.27c-.56-.33-1.13-.71-1.71-1.13a1.16,1.16,0,0,0,.08-.42A1.14,1.14,0,0,0,21.83,24V21.08a1.17,1.17,0,0,0,.26-.1l2.07,2.07a1.14,1.14,0,0,0,.18,1.35,1.41,1.41,0,0,0,.36.24C24.59,25.35,24.45,26,24.29,26.65Zm.48-3.41a.51.51,0,0,1,.74,0,.53.53,0,0,1,0,.74.52.52,0,0,1-.74-.74Zm4.49,4.48c-.68.68-2.32.39-4.43-.75a22.24,22.24,0,0,0,.47-2.25,1.12,1.12,0,0,0,.64-.32,1.06,1.06,0,0,0,.32-.64,22.67,22.67,0,0,0,2.24-.46C29.65,25.4,29.93,27.05,29.26,27.72Zm-.47-5.12a21,21,0,0,0-1.26-1.92,1.12,1.12,0,0,0,0-1.36,19.68,19.68,0,0,0,1.26-1.92c2.3.68,3.67,1.64,3.67,2.6S31.09,21.92,28.79,22.6Z"/><g class="cls-3"><path class="cls-4" d="M31.81,18.1a9.63,9.63,0,0,0-2.72-1.22,9.62,9.62,0,0,0,1.05-2.8,2.4,2.4,0,0,0-.46-2.22,2.42,2.42,0,0,0-2.23-.47,9.63,9.63,0,0,0-2.79,1.06,9.85,9.85,0,0,0-1.23-2.73,2.41,2.41,0,0,0-1.9-1.24,2.39,2.39,0,0,0-1.89,1.24,9.3,9.3,0,0,0-1.23,2.73,9.58,9.58,0,0,0-2.8-1.06,2.4,2.4,0,0,0-2.22.47,2.42,2.42,0,0,0-.47,2.22A9.68,9.68,0,0,0,14,16.88a9.7,9.7,0,0,0-2.73,1.22A2.42,2.42,0,0,0,10,20a2.4,2.4,0,0,0,1.24,1.9A9.42,9.42,0,0,0,14,23.13a9.63,9.63,0,0,0-1.06,2.79,2.44,2.44,0,0,0,.47,2.23,2.05,2.05,0,0,0,1.49.53,3.75,3.75,0,0,0,.73-.07,9.68,9.68,0,0,0,2.8-1.06,9.57,9.57,0,0,0,1.23,2.73,2.39,2.39,0,0,0,1.89,1.24,2.4,2.4,0,0,0,1.9-1.24,9.57,9.57,0,0,0,1.23-2.73,9.53,9.53,0,0,0,2.79,1.06,3.93,3.93,0,0,0,.74.07,2.05,2.05,0,0,0,1.49-.53,2.44,2.44,0,0,0,.46-2.23,9.68,9.68,0,0,0-1.05-2.79,9.62,9.62,0,0,0,2.72-1.23A2.37,2.37,0,0,0,33.05,20,2.4,2.4,0,0,0,31.81,18.1Zm-2.55-5.82c.67.67.39,2.32-.76,4.43a22,22,0,0,0-2.24-.47,1.13,1.13,0,0,0-1-1A22.62,22.62,0,0,0,24.83,13C26.94,11.89,28.58,11.61,29.26,12.28Zm-6.64,8h2.93a1.13,1.13,0,0,0,1.09.83,1.16,1.16,0,0,0,.42-.08c.42.58.8,1.15,1.13,1.71-.63.16-1.3.29-2,.41a1.21,1.21,0,0,0-.24-.35,1.12,1.12,0,0,0-1.35-.19l-2.07-2.07A1.17,1.17,0,0,0,22.62,20.3Zm4,.23a.53.53,0,1,1,0-1.05.53.53,0,0,1,0,1.05ZM27.05,19a1.16,1.16,0,0,0-.42-.08,1.12,1.12,0,0,0-1.08.83H22.62a1.19,1.19,0,0,0-.11-.26l2.07-2.07a1.12,1.12,0,0,0,1.35-.19.92.92,0,0,0,.24-.35c.72.11,1.39.25,2,.41A19.52,19.52,0,0,1,27.05,19ZM25.51,16a.53.53,0,0,1,0,.74.52.52,0,1,1,0-.74Zm-.81-.66a1,1,0,0,0-.36.24A1.14,1.14,0,0,0,24.16,17L22.09,19a1.19,1.19,0,0,0-.26-.11V16a1.12,1.12,0,0,0,.83-1.08,1.16,1.16,0,0,0-.08-.42q.87-.63,1.71-1.14C24.45,14,24.59,14.65,24.7,15.37Zm-3.17,5.16a.53.53,0,1,1,.53-.53A.53.53,0,0,1,21.53,20.53Zm.53,4.57a.52.52,0,1,1-1,0,.52.52,0,0,1,.52-.52A.51.51,0,0,1,22.06,25.1ZM21,14.9a.53.53,0,0,1,1,0,.53.53,0,0,1-.53.53A.53.53,0,0,1,21,14.9Zm.52-5.81c1,0,1.92,1.36,2.6,3.66q-.94.55-1.92,1.26a1.12,1.12,0,0,0-1.36,0,21.71,21.71,0,0,0-1.92-1.26C19.62,10.45,20.58,9.09,21.53,9.09Zm-2.75,4.26c.56.33,1.13.72,1.71,1.14a1.16,1.16,0,0,0-.08.42A1.12,1.12,0,0,0,21.24,16v2.93A1.12,1.12,0,0,0,21,19L18.91,17a1.11,1.11,0,0,0-.18-1.35,1,1,0,0,0-.36-.24C18.48,14.65,18.62,14,18.78,13.35ZM17.52,19.7a1.14,1.14,0,0,0-1.08-.83A1.16,1.16,0,0,0,16,19c-.43-.58-.8-1.15-1.14-1.71.63-.15,1.3-.29,2-.4a1,1,0,0,0,.23.35,1.13,1.13,0,0,0,1.35.18l2.08,2.08a1.12,1.12,0,0,0-.11.25Zm-1.08-.22a.52.52,0,1,1,0,1,.52.52,0,1,1,0-1ZM16,21.05a1.16,1.16,0,0,0,.42.08,1.13,1.13,0,0,0,1.08-.83h2.93a1.12,1.12,0,0,0,.11.25l-2.08,2.08a1.11,1.11,0,0,0-1.35.18,1,1,0,0,0-.23.35c-.72-.11-1.39-.25-2-.4C15.22,22.2,15.59,21.63,16,21.05Zm2.28-4.28a.52.52,0,1,1,0-.74A.51.51,0,0,1,18.3,16.77Zm-4.48-4.49a1.44,1.44,0,0,1,1.07-.36A7.8,7.8,0,0,1,18.24,13a22.24,22.24,0,0,0-.47,2.25,1.12,1.12,0,0,0-.64.32,1.06,1.06,0,0,0-.32.64,22.67,22.67,0,0,0-2.24.46C13.43,14.6,13.14,13,13.82,12.28ZM10.62,20c0-.95,1.37-1.91,3.67-2.59.36.63.78,1.26,1.25,1.92a1.16,1.16,0,0,0,0,1.36,21.53,21.53,0,0,0-1.25,1.92C12,21.92,10.62,21,10.62,20Zm3.2,7.72c-.68-.67-.39-2.32.75-4.42a22.3,22.3,0,0,0,2.25.46,1,1,0,0,0,.31.64,1.12,1.12,0,0,0,.65.32A22.3,22.3,0,0,0,18.24,27C16.14,28.11,14.49,28.4,13.82,27.72ZM17.56,24a.52.52,0,0,1,.74-.74.53.53,0,0,1,0,.74A.51.51,0,0,1,17.56,24Zm.81.66a1,1,0,0,0,.36-.24,1.12,1.12,0,0,0,.18-1.35L21,21a1.12,1.12,0,0,0,.25.11V24a1.13,1.13,0,0,0-.83,1.08,1.16,1.16,0,0,0,.08.42q-.87.63-1.71,1.14C18.62,26,18.48,25.35,18.37,24.64Zm3.16,6.28c-1,0-1.91-1.37-2.59-3.67A21,21,0,0,0,20.86,26a1.07,1.07,0,0,0,.68.23,1.09,1.09,0,0,0,.68-.23,19.68,19.68,0,0,0,1.92,1.26C23.45,29.55,22.49,30.92,21.53,30.92Zm2.76-4.27c-.56-.33-1.13-.71-1.71-1.13a1.16,1.16,0,0,0,.08-.42A1.14,1.14,0,0,0,21.83,24V21.08a1.17,1.17,0,0,0,.26-.1l2.07,2.07a1.14,1.14,0,0,0,.18,1.35,1.41,1.41,0,0,0,.36.24C24.59,25.35,24.45,26,24.29,26.65Zm.48-3.41a.51.51,0,0,1,.74,0,.53.53,0,0,1,0,.74.52.52,0,0,1-.74-.74Zm4.49,4.48c-.68.68-2.32.39-4.43-.75a22.24,22.24,0,0,0,.47-2.25,1.12,1.12,0,0,0,.64-.32,1.06,1.06,0,0,0,.32-.64,22.67,22.67,0,0,0,2.24-.46C29.65,25.4,29.93,27.05,29.26,27.72Zm-.47-5.12a21,21,0,0,0-1.26-1.92,1.12,1.12,0,0,0,0-1.36,19.68,19.68,0,0,0,1.26-1.92c2.3.68,3.67,1.64,3.67,2.6S31.09,21.92,28.79,22.6Z"/></g></g></g></svg>