<svg id="Capa_1" data-name="Capa 1" xmlns="http://www.w3.org/2000/svg" viewBox="0 0 20 20"><defs><style>.cls-1{fill:#7fb8a7;}</style></defs><path class="cls-1" d="M10,1.83A8.17,8.17,0,1,0,18.17,10,8.19,8.19,0,0,0,10,1.83Zm7,8.77a7.67,7.67,0,0,1-.15,1l0,.1a7.63,7.63,0,0,1-.26.85l0,.08a6.47,6.47,0,0,1-.42.88v0a8.13,8.13,0,0,1-.52.78l0,.05a7.18,7.18,0,0,1-1.37,1.33l-.08.06a6.59,6.59,0,0,1-1.66.88l-.07,0h0A6.91,6.91,0,0,1,10,17h0a6.91,6.91,0,0,1-2.37-.42h0l-.07,0a6.59,6.59,0,0,1-1.66-.88l-.08-.06a7.18,7.18,0,0,1-1.37-1.33l0-.05a8.13,8.13,0,0,1-.52-.78v0a6.47,6.47,0,0,1-.42-.88l0-.08a7.63,7.63,0,0,1-.26-.85l0-.1a7.67,7.67,0,0,1-.15-1v0H3c0-.18,0-.37,0-.56s0-.38,0-.56H3v0a7.67,7.67,0,0,1,.15-1l0-.1a7.63,7.63,0,0,1,.26-.85l0-.08a6.47,6.47,0,0,1,.42-.88v0a8.13,8.13,0,0,1,.52-.78l0-.06A7.09,7.09,0,0,1,5.82,4.35l.08-.06a6.7,6.7,0,0,1,1.65-.88l.08,0h0A6.91,6.91,0,0,1,10,3h0a6.91,6.91,0,0,1,2.37.42h0l.08,0a6.7,6.7,0,0,1,1.65.88l.08.06a7.09,7.09,0,0,1,1.36,1.32l.05.06a8.13,8.13,0,0,1,.52.78v0a6.47,6.47,0,0,1,.42.88l0,.08a7.63,7.63,0,0,1,.26.85l0,.1a7.67,7.67,0,0,1,.15,1v0h0c0,.18,0,.37,0,.56s0,.38,0,.56h0Z"/><path class="cls-1" d="M13.8,9.45H10.55V4.7a.55.55,0,0,0-1.1,0V10a.55.55,0,0,0,.55.55h3.8a.55.55,0,0,0,0-1.1Z"/></svg>