<svg id="Capa_1" data-name="Capa 1" xmlns="http://www.w3.org/2000/svg" xmlns:xlink="http://www.w3.org/1999/xlink" viewBox="0 0 110 50"><defs><style>.cls-1{fill:url(#linear-gradient);}.cls-2{fill:url(#linear-gradient-2);}.cls-3{fill:url(#linear-gradient-3);}.cls-4{fill:url(#linear-gradient-4);}.cls-5{fill:#181d36;}</style><linearGradient id="linear-gradient" x1="-392.43" y1="15.3" x2="-365.91" y2="15.3" gradientTransform="matrix(-1, 0, 0.2, 1, -349.46, 0)" gradientUnits="userSpaceOnUse"><stop offset="0" stop-color="#cf1b19"/><stop offset="1" stop-color="#961918"/></linearGradient><linearGradient id="linear-gradient-2" x1="-374.86" y1="-117.72" x2="-358.04" y2="-117.72" gradientTransform="matrix(-1, 0, -0.2, -1, -367.88, -93.84)" gradientUnits="userSpaceOnUse"><stop offset="0" stop-color="#27367b"/><stop offset="1" stop-color="#22334b"/></linearGradient><linearGradient id="linear-gradient-3" x1="-403.15" y1="20.82" x2="-369.58" y2="20.82" gradientTransform="matrix(-1, 0, 0, 1, -360.33, 0)" gradientUnits="userSpaceOnUse"><stop offset="0" stop-color="#f1f1f1"/><stop offset="1" stop-color="#f3f2f2"/></linearGradient><linearGradient id="linear-gradient-4" x1="-403.15" y1="20.88" x2="-369.58" y2="20.88" xlink:href="#linear-gradient-3"/></defs><path class="cls-1" d="M17.42,15.51c4.83-5.57,10.07-6.32,16.77-6.32H49.08l-.16.37c-1.64,3.57-5.33,5.8-9.84,5.95H29.82a24,24,0,0,0-12.26,3.16L12.93,21.4S16.2,16.91,17.42,15.51Z"/><path class="cls-2" d="M24.14,26.7c2.41-.09,8.41-5.76,8.41-5.76L22,21c-3.59,0-10.58,3.59-12.79,5.87Z"/><path class="cls-3" d="M12.84,21.13c3.95-5.57,8.22-6.32,13.69-6.32h16.3l-.14.37a8.8,8.8,0,0,1-8,5.95H23a16.91,16.91,0,0,0-10,3.16l-3.7,2.54S11.84,22.53,12.84,21.13Z"/><path class="cls-4" d="M12.84,21.25c3.95-5.57,8.22-6.32,13.69-6.32h16.3l-.14.36a8.81,8.81,0,0,1-8,6H23A16.9,16.9,0,0,0,13,24.4l-3.7,2.43S11.84,22.65,12.84,21.25Z"/><path class="cls-5" d="M84.2,9.19H74.28a7.52,7.52,0,0,0-3.42.85,11.76,11.76,0,0,0-3,2.12A18.4,18.4,0,0,0,63.8,18a6.44,6.44,0,0,0-.47,1.79c-.54-1.73-2.1-2.84-4.7-3.33H55.24q-3.42,0-3.42-1.56a2.59,2.59,0,0,1,.11-.65,4.27,4.27,0,0,1,1.46-2.11,3.9,3.9,0,0,1,2.42-.78,3.33,3.33,0,0,1,.53,0H67.91L69,9.19H54.69A7.65,7.65,0,0,0,51.6,10q-3.49,1.59-4.08,4.23,0,3.49,4.88,4.41h3.39a4.62,4.62,0,0,1,1.66.31,2.25,2.25,0,0,1,1.75,2.13,2.34,2.34,0,0,1-.1.65,4,4,0,0,1-3.88,2.89H43.11L42,26.83H56.34A7.74,7.74,0,0,0,59.43,26c2.1-1,3.42-2.21,3.94-3.75a5.19,5.19,0,0,0,1,2.18,6.82,6.82,0,0,0,4.33,2.39h7.81l1.1-2.2H71.52q-4.14,0-4.14-3.18A9.28,9.28,0,0,1,68,18.67H79.5l1-2.2H69a12.74,12.74,0,0,1,3.18-3.58,6.28,6.28,0,0,1,3.77-1.49H88.76L82,26.83h4.41L93.18,11.4h6.68l.89-2.21Z"/><path class="cls-5" d="M14.24,40.65H12.66V33.18H9.83V31.72h7.24v1.46H14.24Z"/><path class="cls-5" d="M24.46,40.65l-2.2-3.11h-2v3.11H18.73V31.72h4a4.55,4.55,0,0,1,1.38.2,2.92,2.92,0,0,1,1.05.56,2.48,2.48,0,0,1,.66.9A3,3,0,0,1,26,34.56a3.13,3.13,0,0,1-.16,1,3,3,0,0,1-.44.78,2.85,2.85,0,0,1-.67.57,3.13,3.13,0,0,1-.86.36l2.41,3.38ZM24,33.52a2.21,2.21,0,0,0-1.37-.38H20.29v3h2.3a2.06,2.06,0,0,0,1.34-.41,1.5,1.5,0,0,0,0-2.22Z"/><path class="cls-5" d="M29.6,31.72v8.93H28V31.72Z"/><path class="cls-5" d="M38.13,32.34A2,2,0,0,1,38.92,34a2.34,2.34,0,0,1-.1.73,2.66,2.66,0,0,1-.28.56,2.27,2.27,0,0,1-.41.41,3.46,3.46,0,0,1-.47.31,4.75,4.75,0,0,1,.72.32,2.42,2.42,0,0,1,.55.44,1.62,1.62,0,0,1,.36.61,2.22,2.22,0,0,1,.13.81,2.32,2.32,0,0,1-.23,1,2.07,2.07,0,0,1-.67.77,3.18,3.18,0,0,1-1.05.48,5.58,5.58,0,0,1-1.35.15H32V31.72h4A3.35,3.35,0,0,1,38.13,32.34ZM36.91,35.2a1,1,0,0,0,.46-.93,1,1,0,0,0-.4-.85,1.94,1.94,0,0,0-1.17-.31H33.55V35.5h2.14A2.2,2.2,0,0,0,36.91,35.2Zm.5,3.75a1.06,1.06,0,0,0,.46-.92,1.05,1.05,0,0,0-.46-.9A2.42,2.42,0,0,0,36,36.81H33.55v2.45h2.6A2.22,2.22,0,0,0,37.41,39Z"/><path class="cls-5" d="M48.71,36.79a5,5,0,0,1-.28,1.75,3.35,3.35,0,0,1-.77,1.25,3.12,3.12,0,0,1-1.2.76,4.92,4.92,0,0,1-1.59.24,4.84,4.84,0,0,1-1.57-.24,3.15,3.15,0,0,1-2-2,4.93,4.93,0,0,1-.27-1.7V31.72h1.55V36.8a2.65,2.65,0,0,0,.61,1.9,2.12,2.12,0,0,0,1.66.65,2.21,2.21,0,0,0,1.66-.62,2.6,2.6,0,0,0,.6-1.86V31.72h1.56Z"/><path class="cls-5" d="M54.64,40.65H53.06V33.18H50.23V31.72h7.24v1.46H54.64Z"/><path class="cls-5" d="M66.53,40.65H64.87L64,38.5H59.74l-.91,2.15H57.22l3.93-9H62.6Zm-4.68-7.11-1.53,3.57h3.07Z"/><path class="cls-5" d="M74.56,39.88a4.76,4.76,0,0,1-.81.5,3.93,3.93,0,0,1-1,.32,5.65,5.65,0,0,1-1.14.11,4.47,4.47,0,0,1-1.81-.36,4.38,4.38,0,0,1-1.44-1,4.55,4.55,0,0,1-1-1.46,5,5,0,0,1,0-3.61,4.38,4.38,0,0,1,1-1.47,4.52,4.52,0,0,1,1.45-1,4.67,4.67,0,0,1,1.86-.36,6.39,6.39,0,0,1,1.12.1,4.73,4.73,0,0,1,.92.29,4.24,4.24,0,0,1,.78.44,6.13,6.13,0,0,1,.68.56l-1,1.16a5,5,0,0,0-1.13-.8A2.91,2.91,0,0,0,71.71,33a2.87,2.87,0,0,0-1.18.25,3,3,0,0,0-.94.68,3,3,0,0,0-.61,1,3.55,3.55,0,0,0-.22,1.24A3.63,3.63,0,0,0,69,37.42a2.94,2.94,0,0,0,.61,1,3,3,0,0,0,.94.69,2.87,2.87,0,0,0,1.18.25,2.92,2.92,0,0,0,1.4-.32,5.45,5.45,0,0,0,1.16-.85l1,1A6.22,6.22,0,0,1,74.56,39.88Z"/><path class="cls-5" d="M78.57,31.72v8.93H77V31.72Z"/><path class="cls-5" d="M89.57,38a4.58,4.58,0,0,1-1,1.48,4.77,4.77,0,0,1-1.48,1,4.83,4.83,0,0,1-1.89.37,4.65,4.65,0,0,1-1.89-.37,4.52,4.52,0,0,1-1.46-1,4.56,4.56,0,0,1-1-1.47,4.67,4.67,0,0,1-.34-1.79,4.62,4.62,0,0,1,.34-1.78,4.37,4.37,0,0,1,1-1.48,4.77,4.77,0,0,1,1.48-1,4.65,4.65,0,0,1,1.89-.37,4.82,4.82,0,0,1,1.89.36,4.47,4.47,0,0,1,2.42,2.46,4.67,4.67,0,0,1,.34,1.79A4.62,4.62,0,0,1,89.57,38Zm-1.52-3a3.08,3.08,0,0,0-.63-1,3,3,0,0,0-1-.69A3,3,0,0,0,85.23,33a3.06,3.06,0,0,0-1.22.25A2.91,2.91,0,0,0,82.45,35a3.32,3.32,0,0,0-.23,1.23,3.4,3.4,0,0,0,.23,1.23,3,3,0,0,0,2.81,2,3.06,3.06,0,0,0,1.22-.25,3,3,0,0,0,1-.68,3.12,3.12,0,0,0,.62-1,3.53,3.53,0,0,0,.22-1.23A3.62,3.62,0,0,0,88.05,35ZM84.7,31l1.35-2.09,1.4.63L85.9,31Z"/><path class="cls-5" d="M98,31.72H99.6v8.93H98.29L93.37,34.3v6.35H91.82V31.72h1.45L98,37.9Z"/></svg>