<svg id="Capa_1" data-name="Capa 1" xmlns="http://www.w3.org/2000/svg" viewBox="0 0 20 20"><defs><style>.cls-1{fill:#7fb8a7;}</style></defs><path class="cls-1" d="M6.3,4.75a1.06,1.06,0,0,1,.52.13,3.14,3.14,0,0,1,1,1.46,2.46,2.46,0,0,1,.3,1.32,2.52,2.52,0,0,1-.68,1.11.46.46,0,0,0-.06.63,7.54,7.54,0,0,0,3.77,3.23.63.63,0,0,0,.22,0,.37.37,0,0,0,.31-.17c.28-.34.56-1,1-1.2a1.25,1.25,0,0,1,.42-.08,2.57,2.57,0,0,1,1.25.46c.45.26,1.19.59,1.31,1.14a1.37,1.37,0,0,1-.09.8,2.83,2.83,0,0,1-2.11,1.57,3.15,3.15,0,0,1-.52.05,5.66,5.66,0,0,1-1.81-.42,9.39,9.39,0,0,1-2-.95,11.32,11.32,0,0,1-3.2-3c-.26-.36-.51-.74-.74-1.12a6.35,6.35,0,0,1-.71-1.63,4.53,4.53,0,0,1-.09-.74,2.93,2.93,0,0,1,1-2.32,1.47,1.47,0,0,1,.93-.35m0-1.1a2.64,2.64,0,0,0-1.62.59A4,4,0,0,0,3.25,7.43a4.71,4.71,0,0,0,.13,1,7.45,7.45,0,0,0,.82,1.92c.25.42.52.83.8,1.22a12.37,12.37,0,0,0,3.52,3.26,10.71,10.71,0,0,0,2.23,1.06l.17.06a6.17,6.17,0,0,0,2,.41,3.45,3.45,0,0,0,.72-.07,3.9,3.9,0,0,0,2.92-2.23,2.46,2.46,0,0,0,.16-1.45,2.84,2.84,0,0,0-1.62-1.74l-.21-.12a3.55,3.55,0,0,0-1.81-.61,2.31,2.31,0,0,0-.83.16,2.57,2.57,0,0,0-1.16,1.12A6.36,6.36,0,0,1,8.51,9.17a2.93,2.93,0,0,0,.67-1.33,3.4,3.4,0,0,0-.4-2L8.7,5.69A3.55,3.55,0,0,0,7.36,3.92,2.17,2.17,0,0,0,6.3,3.65Z"/></svg>