<svg id="Capa_1" data-name="Capa 1" xmlns="http://www.w3.org/2000/svg" viewBox="0 0 20 20"><defs><style>.cls-1{fill:#7fb8a7;}</style></defs><path class="cls-1" d="M10,18.1h0a.52.52,0,0,1-.41-.18C9.35,17.67,3.7,11.55,3.7,8.2a6.3,6.3,0,0,1,12.6,0c0,3.35-5.65,9.47-5.89,9.72A.52.52,0,0,1,10,18.1ZM10,3A5.18,5.18,0,0,0,4.83,8.2c0,2.22,3.42,6.53,5.17,8.5,1.75-2,5.17-6.28,5.17-8.5A5.18,5.18,0,0,0,10,3Z"/><path class="cls-1" d="M10,10.76a2.84,2.84,0,1,1,2.84-2.84A2.84,2.84,0,0,1,10,10.76Zm0-4.55a1.71,1.71,0,1,0,1.71,1.71A1.72,1.72,0,0,0,10,6.21Z"/></svg>