<svg id="Capa_1" data-name="Capa 1" xmlns="http://www.w3.org/2000/svg" viewBox="0 0 20 20"><defs><style>.cls-1,.cls-2{fill:#7fb8a7;}.cls-2{fill-rule:evenodd;}</style></defs><path class="cls-1" d="M3.6,16.41,4.52,13a6.36,6.36,0,1,1,2.53,2.51ZM7.22,14.2l.22.13a5.08,5.08,0,0,0,2.62.73A5.14,5.14,0,1,0,4.92,9.92a5.07,5.07,0,0,0,.76,2.67l.13.21L5.3,14.72Z"/><path class="cls-2" d="M12.42,10.8a1.07,1.07,0,0,0-.91-.2c-.23.09-.38.46-.54.65a.23.23,0,0,1-.29.07,4.2,4.2,0,0,1-2-1.76.25.25,0,0,1,0-.34A1.44,1.44,0,0,0,9,8.61a1.41,1.41,0,0,0-.16-.72c-.13-.26-.26-.64-.53-.79a.74.74,0,0,0-.79.11A1.61,1.61,0,0,0,7,8.48a1.75,1.75,0,0,0,0,.4,3.19,3.19,0,0,0,.38.89c.13.21.26.41.41.61A6.25,6.25,0,0,0,9.58,12a5.45,5.45,0,0,0,1.09.52,2.47,2.47,0,0,0,1.26.2,1.55,1.55,0,0,0,1.15-.86.65.65,0,0,0,.05-.43C13.07,11.13,12.66,11,12.42,10.8Z"/></svg>