<?xml version="1.0" encoding="UTF-8"?>
<svg version="1.1" xmlns="http://www.w3.org/2000/svg" width="32" height="32">
<path d="M0 0 C4.29 0 8.58 0 13 0 C13 1.32 13 2.64 13 4 C11.02 4 9.04 4 7 4 C7 7.63 7 11.26 7 15 C6.34 15 5.68 15 5 15 C5 11.37 5 7.74 5 4 C3.35 4 1.7 4 0 4 C0 2.68 0 1.36 0 0 Z " fill="#FFFFFF" transform="translate(5,3)"/>
<path d="M0 0 C3.96 0 7.92 0 12 0 C12 0.33 12 0.66 12 1 C8.7 1 5.4 1 2 1 C2 2.65 2 4.3 2 6 C4.64 6 7.28 6 10 6 C10 7.32 10 8.64 10 10 C7.36 10 4.72 10 2 10 C2 11.65 2 13.3 2 15 C1.34 15 0.68 15 0 15 C0 10.05 0 5.1 0 0 Z " fill="#FFFFFF" transform="translate(17,14)"/>
</svg>
