<svg id="Capa_1" data-name="Capa 1" xmlns="http://www.w3.org/2000/svg" viewBox="0 0 40 40"><defs><style>.cls-1{fill:#9b6e14;}</style></defs><path class="cls-1" d="M25.28,21.94h1a.69.69,0,0,1,0,.13.54.54,0,0,0,.33.61,1.31,1.31,0,0,1,.64,1.17h-.94c0-.07-.05-.18-.11-.22a1,1,0,0,0-.48-.22.37.37,0,0,0-.38.42.93.93,0,0,0,.27.45.45.45,0,0,0,.29.06,1.47,1.47,0,0,1,1.29,1,1.38,1.38,0,0,1-.48,1.54c-.3.2-.55.38-.41.8h-.94s0,0,0,0a.66.66,0,0,0-.4-.73,1.29,1.29,0,0,1-.58-1.12h1c0,.06,0,.17.09.2a1.08,1.08,0,0,0,.5.23.41.41,0,0,0,.38-.43.43.43,0,0,0-.32-.46.67.67,0,0,0-.24,0,1.43,1.43,0,0,1-1.3-1,1.35,1.35,0,0,1,.52-1.55C25.21,22.53,25.38,22.34,25.28,21.94Z"/><path class="cls-1" d="M29.14,32.05h-.93V27.74h.93Z"/><path class="cls-1" d="M27.21,28.7V32h-.93V28.7Z"/><path class="cls-1" d="M25.28,32.05h-1V29.67h1Z"/><path class="cls-1" d="M23.36,30.64V32h-.94v-1.4Z"/><path class="cls-1" d="M7,20V7.1A1.44,1.44,0,0,1,8.54,5.53h20A1.44,1.44,0,0,1,30.12,7.1v14a.6.6,0,0,0,.24.53A7,7,0,0,1,32.78,29a6.94,6.94,0,0,1-5.69,5.35,6.49,6.49,0,0,1-1.32.12H8.54A1.44,1.44,0,0,1,7,32.9Zm22.19.73V7.23c0-.6-.14-.74-.75-.74H8.69c-.62,0-.76.13-.76.76v22a1.45,1.45,0,1,0,2.89-.09c0-.45,0-.91,0-1.4h7.65c.08-.69.1-1.34.23-2a18.41,18.41,0,0,1,.59-1.88H8.91v-1H19.44a.94.94,0,0,0,.88-.4,8,8,0,0,1,.88-.86.64.64,0,0,1,.2-.11l-.07-.09H8.92v-1h14a1.83,1.83,0,0,0,.52-.09A6.77,6.77,0,0,1,27,20.12C27.74,20.27,28.43,20.52,29.16,20.73Zm2.89,6.51a6.27,6.27,0,1,0-6.24,6.27A6.29,6.29,0,0,0,32.05,27.24ZM7.93,31.1v1.71c0,.54.16.7.7.7H21.8l.33,0a6.89,6.89,0,0,1-2-1.69.54.54,0,0,0-.48-.23H10A3,3,0,0,1,7.93,31.1Zm3.85-2.42a2.71,2.71,0,0,1-.45,1.92h8c-.19-.55-.4-1.08-.56-1.63-.06-.23-.14-.29-.37-.29-2.09,0-4.18,0-6.27,0Z"/><path class="cls-1" d="M24.81,12.28v1H22.38a1,1,0,0,0-.42.17,2.19,2.19,0,0,0-.34.34,1.49,1.49,0,0,1-1.11.45c-1.3,0-2.61,0-3.92,0a1.34,1.34,0,0,1-1.12-.47,1.35,1.35,0,0,0-1.24-.5c-.64,0-1.28,0-1.94,0v-1h2.39a1.4,1.4,0,0,1,1.18.49,1.32,1.32,0,0,0,1.16.49c1.12,0,2.25,0,3.38,0A.62.62,0,0,0,21,13c-.38-.38-.74-.75-1.12-1.11s-.47-.2-.77.06A1.51,1.51,0,0,1,17,9.81a3.15,3.15,0,0,0,.36-.37c-.47,0-.95-.18-1.31.28a1.69,1.69,0,0,1-1.52.64c-.7,0-1.4,0-2.11,0l-.08,0V9.39c.72,0,1.43,0,2.14,0a1,1,0,0,0,.9-.37,1.69,1.69,0,0,1,1.43-.61c1.23,0,2.46,0,3.68,0a1.47,1.47,0,0,1,1.23.51,1.25,1.25,0,0,0,1.11.47c.66,0,1.32,0,2,0v.95H22.43a1.41,1.41,0,0,1-1.21-.5,1.24,1.24,0,0,0-1.16-.47c-.44,0-.94-.11-1.3.06a3.89,3.89,0,0,0-1,1,.51.51,0,0,0,.23.91.69.69,0,0,0,.49-.14,1.47,1.47,0,0,1,2.23.11c.24.23.48.46.71.7a.76.76,0,0,0,.66.27h2.77Z"/><path class="cls-1" d="M8.91,19v-.93H28.17V19Z"/><path class="cls-1" d="M17.56,25.32v.93H8.92v-.93Z"/><path class="cls-1" d="M14.7,16.6v-.93h7.68v.93Z"/></svg>