<svg id="Capa_1" data-name="Capa 1" xmlns="http://www.w3.org/2000/svg" viewBox="0 0 40 40"><defs><style>.cls-1{fill:#9b6e14;}</style></defs><path class="cls-1" d="M26.35,9.33H23.78a1.57,1.57,0,0,1-1.65-1.65V5.12a4.19,4.19,0,0,0-.47,0H7.83a1.61,1.61,0,0,0-1.69,1.7q0,11.63,0,23.26a1.62,1.62,0,0,0,1.72,1.7h6.6c.42,0,.65.23.62.6s-.25.47-.62.47H9.06a12.29,12.29,0,0,1-1.92-.08,2.59,2.59,0,0,1-2.07-2.56V6.64A2.65,2.65,0,0,1,7.7,4H21.82a2.46,2.46,0,0,1,1.78.72c1.06,1,2.1,2.08,3.13,3.13a2.5,2.5,0,0,1,.73,1.81v8.26c0,.42-.19.67-.52.67s-.54-.24-.54-.68q0-4,0-8C26.39,9.72,26.37,9.54,26.35,9.33ZM23.2,5.94c0,.58,0,1.16,0,1.75a.52.52,0,0,0,.5.57c.61,0,1.23,0,1.83,0Z"/><path class="cls-1" d="M32.42,22.68c.17.14.3.22.4.32a1.74,1.74,0,0,1,0,2.44c-1.29,1.36-2.63,2.67-4,4a.54.54,0,1,1-.71-.8l3.45-3.48.19-.19c.59-.59.56-.95-.12-1.51l-.28.26L21.11,34a1.94,1.94,0,0,1-.69.42c-1.43.5-2.87,1-4.31,1.45-.27.09-.54.16-.77-.08s-.14-.49-.05-.75c.48-1.44,1-2.89,1.45-4.34a1.72,1.72,0,0,1,.37-.61C21,26.2,25,22.29,28.86,18.36a1.72,1.72,0,0,1,1.46-.57.48.48,0,0,0,.31-.13c.27-.25.52-.52.78-.77a2,2,0,1,1,2.9,2.89l-.43.43a1.23,1.23,0,0,0-.5,1,2.07,2.07,0,0,1-.42,1C32.86,22.36,32.66,22.47,32.42,22.68Zm-7.08,5.59s.06,0,.08-.07l6.71-6.71a.52.52,0,0,0,0-.86c-.48-.49-1-1-1.46-1.46s-.63-.44-1.08,0L23.15,25.6a1.17,1.17,0,0,1-.31.17ZM20.5,33l3.95-4-2.32-2.32-3.95,4Zm-3.91,1.59,2.86-1-1.91-1.92ZM32.83,19.75c.26-.27.53-.53.78-.81a1,1,0,0,0,0-1.27,1,1,0,0,0-1.29-.12,9.73,9.73,0,0,0-.84.86Z"/><path class="cls-1" d="M21.58,16V21.4c0,.56-.18.73-.73.73h-9.2c-.56,0-.72-.15-.72-.7V16a.67.67,0,0,1-.86-.3c-.35-.48-.73-.95-1.09-1.43a.56.56,0,0,1,.11-.91l6.18-4.75a1.53,1.53,0,0,1,2,0c2.08,1.58,4.14,3.17,6.21,4.77a.56.56,0,0,1,.1.91c-.37.49-.75,1-1.11,1.45A.64.64,0,0,1,21.58,16Zm-1.12,5.06a.93.93,0,0,0,0-.14c0-1.87,0-3.74,0-5.6a.51.51,0,0,0-.19-.34C19,14,17.74,13,16.48,12c-.18-.14-.28-.11-.45,0Q14.13,13.53,12.21,15a.48.48,0,0,0-.21.44v5.3c0,.11,0,.22,0,.31h2.07v-.38c0-1.22,0-2.45,0-3.67,0-.54.18-.72.71-.72h2.9c.54,0,.7.16.7.72v4.06Zm-9.74-6.29.32-.23,4.72-3.63c.42-.33.59-.33,1,0l3,2.32,2,1.57.61-.8a1.29,1.29,0,0,0-.18-.16L16.68,9.52a.56.56,0,0,0-.84,0l-4.59,3.53L10.1,14ZM15.2,21h2.11V17.36H15.2Z"/><path class="cls-1" d="M12.79,28.53H8.93c-.43,0-.65-.18-.66-.52s.22-.54.67-.54h7.73c.43,0,.65.17.66.52s-.22.54-.67.54Z"/><path class="cls-1" d="M17.06,24.27h2.83c.42,0,.65.2.64.55s-.23.51-.64.51H14.24c-.42,0-.65-.2-.64-.55s.23-.51.64-.51Z"/><path class="cls-1" d="M10.43,24.27h1.5c.37,0,.59.19.6.51s-.21.55-.6.55H8.87c-.39,0-.61-.21-.6-.55s.23-.51.6-.51Z"/></svg>