<svg id="Capa_1" data-name="Capa 1" xmlns="http://www.w3.org/2000/svg" viewBox="0 0 40 40"><defs><style>.cls-1{fill:#9b6e14;}</style></defs><path class="cls-1" d="M22.67,4.45a3.68,3.68,0,0,1,1.44,1C25.35,6.75,26.58,8,27.83,9.22a2.14,2.14,0,0,1,.68,1.65c0,2.47,0,4.94,0,7.41a1.2,1.2,0,0,1,0,.27.43.43,0,0,1-.47.39.41.41,0,0,1-.43-.38,1.93,1.93,0,0,1,0-.34V10.57h-.82a23.77,23.77,0,0,1-2.39-.05,2.28,2.28,0,0,1-2-2.31c0-.83,0-1.66,0-2.49V5.36H8.71A1.44,1.44,0,0,0,7.12,7V30.77a1.42,1.42,0,0,0,1.59,1.59H13a1.83,1.83,0,0,1,.33,0,.42.42,0,0,1,.4.45.45.45,0,0,1-.41.46,1,1,0,0,1-.24,0H8.67a2.34,2.34,0,0,1-2.48-2.45q0-12,0-24A2.31,2.31,0,0,1,8,4.5s.05,0,.07,0Zm.67,1.66a.69.69,0,0,0,0,.13c0,.68,0,1.36,0,2a1.35,1.35,0,0,0,1.38,1.35c.64,0,1.29,0,1.94,0a1,1,0,0,0,.18,0Z"/><path class="cls-1" d="M28.47,31.7c-.4,1.07-.92,1.43-1.89,1.33-.55,1.31-1.09,1.6-2.34,1.22l-.06.19a1.53,1.53,0,0,1-2.22.92c-.39-.2-.75-.44-1.13-.65a1.58,1.58,0,0,1-2.64-.44,1.54,1.54,0,0,1-1.31-.07,1.52,1.52,0,0,1-.79-1.05c-1.21-.22-1.51-.43-1.76-1.29a1.51,1.51,0,0,1-1.68-1c-.29-.78.13-1.36.65-2-.17,0-.27,0-.34,0a1.85,1.85,0,0,1-2-.14c-.24-.15-.5-.29-.75-.45a1,1,0,0,1-.36-1.39q1.93-3.28,3.88-6.55a1,1,0,0,1,1.35-.35c.36.19.72.4,1.07.63A1.64,1.64,0,0,1,17,22a.44.44,0,0,0,.3.48,1.44,1.44,0,0,0,1.15.06c.26-.1.53-.19.79-.3a2.46,2.46,0,0,1,2.35.13.69.69,0,0,0,.47.06c.46-.09.9-.22,1.35-.34a2.42,2.42,0,0,1,1.57.14,5.28,5.28,0,0,0,.91.34,4,4,0,0,0,.78.05,3.8,3.8,0,0,1,0-.9,2.21,2.21,0,0,1,.51-1,6.8,6.8,0,0,1,1.48-.92.94.94,0,0,1,1.22.51c.69,1.15,1.37,2.31,2.06,3.47l1.7,2.86a1,1,0,0,1-.41,1.59,12.54,12.54,0,0,1-1.43.69.88.88,0,0,1-.6,0c-.4-.15-.66.06-.95.27a1.57,1.57,0,0,1-1.74,2.44Zm-7.59-8.56a1.3,1.3,0,0,0-1.15-.07c-.42.16-.83.33-1.25.45a2.26,2.26,0,0,1-1.9-.32l-2.91,4.92a2.91,2.91,0,0,0,.38,0,4.39,4.39,0,0,1,.52-.13,1.53,1.53,0,0,1,1.47.72,1.6,1.6,0,0,1,2.65.85,1.5,1.5,0,0,1,1.39.56,1.55,1.55,0,0,1,.27,1.48,1.61,1.61,0,0,1,1,2.38c.31.19.62.38.94.56a.61.61,0,0,0,.89-.19.63.63,0,0,0-.29-.88,6.59,6.59,0,0,1-.8-.49.6.6,0,0,1-.2-.48c0-.13.21-.29.35-.35a.61.61,0,0,1,.42.11l2,1.15a.6.6,0,0,0,.87-.2.61.61,0,0,0-.26-.85l-1-.58c-.42-.24-.84-.48-1.25-.74a.46.46,0,0,1-.15-.64.46.46,0,0,1,.61-.16l.24.14L26.55,32a.61.61,0,0,0,1-.37.64.64,0,0,0-.37-.7c-.95-.57-1.91-1.13-2.86-1.71a.62.62,0,0,1-.31-.37.54.54,0,0,1,.16-.44.45.45,0,0,1,.59,0l3.36,2c.22.12.43.26.66.37a.6.6,0,0,0,.66-1,1.85,1.85,0,0,0-.27-.19l-5.64-3.33-.21-.11a2.1,2.1,0,0,1-1.4,1.28,1.09,1.09,0,0,1-1.52-1.15,13.06,13.06,0,0,0,0-1.4A2.34,2.34,0,0,1,20.88,23.14ZM30,28.25l-.9-1.52a8.29,8.29,0,0,1-.57-1,.63.63,0,0,1,0-.52.5.5,0,0,1,.45-.15.61.61,0,0,1,.35.29c.46.76.91,1.53,1.36,2.29a.82.82,0,0,0,1,.42,12.29,12.29,0,0,0,1.22-.67L29,20.7l-.94.56a.87.87,0,0,0-.33,1.31c.17.29.35.58.5.87A.43.43,0,0,1,28,24a.42.42,0,0,1-.59-.12,1.34,1.34,0,0,1-.18-.28c-.07-.16-.16-.2-.35-.15a2,2,0,0,1-.84.09c-.51-.11-1-.3-1.5-.45a2.06,2.06,0,0,0-.76-.13,16.26,16.26,0,0,0-1.67.41,1.06,1.06,0,0,0-.8,1c0,.43,0,.87,0,1.3,0,.28,0,.56,0,.83a1,1,0,0,0,1.13-1c.07-.65.35-.8.91-.47,1.82,1.08,3.66,2.14,5.47,3.25C29.26,28.63,29.59,28.67,30,28.25ZM14.6,20.71l-.82,1.38-3,5c-.12.2-.14.31.1.42s.45.27.68.4a.88.88,0,0,0,1.31-.34c.28-.46.55-.92.82-1.39l2.12-3.57a.9.9,0,0,0-.38-1.44Zm.64,10.81a.62.62,0,0,0,.43.64.57.57,0,0,0,.69-.24c.42-.57.84-1.15,1.25-1.74a.61.61,0,1,0-1-.7c-.42.57-.83,1.15-1.23,1.73A1.52,1.52,0,0,0,15.24,31.52Zm2.47,1.92c.06,0,.24-.07.32-.19.48-.63.94-1.26,1.38-1.92a.6.6,0,0,0-1-.68c-.47.62-.94,1.25-1.36,1.9C16.82,33,17.13,33.45,17.71,33.44Zm-4.22-3.18a.61.61,0,0,0,.39.63.55.55,0,0,0,.68-.17c.23-.29.45-.59.65-.9a.57.57,0,0,0-.15-.83.59.59,0,0,0-.85.14q-.32.4-.6.84A1.5,1.5,0,0,0,13.49,30.26ZM20,32.46a1.74,1.74,0,0,0-.4.23,5.11,5.11,0,0,0-.51.71.57.57,0,0,0,.16.78.59.59,0,0,0,.81-.08,4.88,4.88,0,0,0,.51-.71A.63.63,0,0,0,20,32.46Z"/><path class="cls-1" d="M17.36,16.54h-7.2c-.1,0-.2,0-.3,0a.43.43,0,0,1-.42-.44.44.44,0,0,1,.41-.47,2.08,2.08,0,0,1,.25,0H24.61a1.22,1.22,0,0,1,.27,0,.43.43,0,0,1,.38.47.43.43,0,0,1-.4.43c-.1,0-.21,0-.31,0Z"/><path class="cls-1" d="M17.33,13.74H10.07c-.12,0-.28,0-.35-.05a.88.88,0,0,1-.27-.46.38.38,0,0,1,.38-.4,1.82,1.82,0,0,1,.33,0H24.55c.49,0,.71.14.71.46s-.23.46-.71.46Z"/><path class="cls-1" d="M13.61,10.57H10.09a.62.62,0,0,1-.37-.06.7.7,0,0,1-.27-.43.68.68,0,0,1,.3-.4.78.78,0,0,1,.41,0h6.92a1.83,1.83,0,0,1,.33,0,.44.44,0,0,1,.4.46.47.47,0,0,1-.44.46H13.61Z"/></svg>