<svg id="Capa_1" data-name="Capa 1" xmlns="http://www.w3.org/2000/svg" viewBox="0 0 40 40"><defs><style>.cls-1{fill:#9b6e14;}</style></defs><path class="cls-1" d="M7.08,34.46a1.17,1.17,0,0,1-.52-.89c0-.34,0-.69,0-1.06l-.5,0a.51.51,0,0,1-.5-.49,14.87,14.87,0,0,1,.05-1.89,1.89,1.89,0,0,1,2-1.69c.54,0,1.09,0,1.67,0-.05-1.47.56-2.3,2.17-2.17-.06-.62-.11-1.21-.17-1.8a32.83,32.83,0,0,0-1.14-4.57,6.21,6.21,0,0,1-.28-2.46,3.38,3.38,0,0,1,2.66-2.88A3.55,3.55,0,0,1,16.79,17a5,5,0,0,1-.12,2.49c-.29,1.17-.67,2.31-.93,3.49s-.34,2.13-.52,3.27c1.65-.16,2.42.57,2.34,2.17h1.38a2,2,0,0,1,2.19,2.19v1.24c0,.46-.18.63-.63.64h-.33c-.08.71.2,1.5-.57,2Zm7.24-8.22a1.42,1.42,0,0,0,0-.19,20.44,20.44,0,0,1,.52-3.89c.25-1,.56-1.95.81-2.94a4,4,0,0,0,.12-1.95,2.4,2.4,0,0,0-2.23-1.78,2.4,2.4,0,0,0-2.69,2.45,10.22,10.22,0,0,0,.49,2.46,20.49,20.49,0,0,1,1,4.72l.09,1.12Zm-4,2.18c.33,0,.64,0,.95,0a.54.54,0,0,1,.58.4.52.52,0,0,1-.57.65H7.56a.79.79,0,0,0-.89.67,9.39,9.39,0,0,0,0,1.3H20.07c0-.37,0-.73,0-1.08a.87.87,0,0,0-1-.89H13.36a.53.53,0,0,1-.47-.49.5.5,0,0,1,.41-.54,1.83,1.83,0,0,1,.33,0h2.55l.32,0v-.48c0-.43-.21-.61-.64-.61H10.93a.54.54,0,0,0-.62.57C10.3,28.05,10.31,28.22,10.31,28.42Zm8.77,4.09H7.62v1H19.08Z"/><path class="cls-1" d="M22.38,34.46a1.2,1.2,0,0,1-.16-.32c-.09-.36.16-.64.58-.64h5.6v-.34c0-1,0-2.06,0-3.09a1.65,1.65,0,0,1,1.74-1.75c1.13,0,2.27,0,3.43,0,0-.12,0-.22,0-.32V7.33c0-.56-.18-.74-.75-.74H13.63c-.56,0-.72.17-.72.72,0,1.76,0,3.52,0,5.27a1.67,1.67,0,0,1,0,.39.46.46,0,0,1-.47.34.47.47,0,0,1-.5-.34,1.42,1.42,0,0,1-.05-.36c0-1.77,0-3.55,0-5.33a1.69,1.69,0,0,1,1.73-1.74q9.56,0,19.12,0a2,2,0,0,1,1.76.81V29.81a1.18,1.18,0,0,0-.18.13q-2.19,2.18-4.36,4.37a.53.53,0,0,0-.11.15Zm11-5.1c-1.17,0-2.27,0-3.37,0-.34,0-.52.24-.52.61,0,.93,0,1.85,0,2.78v.43l.08,0Z"/><path class="cls-1" d="M25.83,8.13A4.8,4.8,0,1,1,21,12.92,4.82,4.82,0,0,1,25.83,8.13Zm0,8.54a3.75,3.75,0,1,0-3.73-3.77A3.72,3.72,0,0,0,25.82,16.67Z"/><path class="cls-1" d="M25.84,22.11h5a.91.91,0,0,1,.33,0,.48.48,0,0,1,.34.5.46.46,0,0,1-.37.47,1.47,1.47,0,0,1-.36,0c-3.31,0-6.61,0-9.91,0a.27.27,0,0,1-.09,0c-.41,0-.67-.21-.66-.53s.25-.52.67-.52Z"/><path class="cls-1" d="M27.36,20.57H23.91a1.19,1.19,0,0,1-.33,0,.48.48,0,0,1-.35-.5.49.49,0,0,1,.38-.48,1.42,1.42,0,0,1,.36,0h6.79c.5,0,.76.18.76.52s-.25.54-.76.54Z"/><path class="cls-1" d="M27.37,25.73H23.8a.52.52,0,0,1-.53-.34.45.45,0,0,1,.14-.56.74.74,0,0,1,.39-.14H31a.5.5,0,0,1,.48.53.5.5,0,0,1-.5.5H27.37Z"/><path class="cls-1" d="M22.21,25.23a.51.51,0,0,1-.54.52.54.54,0,0,1,0-1.07A.52.52,0,0,1,22.21,25.23Z"/><path class="cls-1" d="M22.22,20a.52.52,0,0,1-.54.53.53.53,0,0,1-.53-.52.57.57,0,0,1,.53-.55A.55.55,0,0,1,22.22,20Z"/><path class="cls-1" d="M19.12,22.62a.55.55,0,0,1-.53.55.53.53,0,0,1-.53-.51.51.51,0,0,1,.5-.56A.53.53,0,0,1,19.12,22.62Z"/><path class="cls-1" d="M25.72,13.62l1.77-2.14a.55.55,0,0,1,.67-.22.52.52,0,0,1,.17.86L26.77,14c-.22.26-.43.53-.65.78a.52.52,0,0,1-.82,0c-.5-.5-1-1-1.48-1.52a.51.51,0,0,1,0-.78.53.53,0,0,1,.78.06Z"/></svg>