<svg id="Capa_1" data-name="Capa 1" xmlns="http://www.w3.org/2000/svg" viewBox="0 0 40 40"><defs><style>.cls-1{fill:#9b6e14;}</style></defs><path class="cls-1" d="M38.91,10.92Q37.44,14,36,17l-1.29,2.65a1.23,1.23,0,0,1-.14.25.62.62,0,0,1-1.08-.54,2.26,2.26,0,0,1,.13-.33l2.87-5.9c0-.09.08-.19.14-.3l-.47-.22c0,.09-.09.17-.13.25q-3.37,7-6.76,13.93a2.11,2.11,0,0,1-.7.84c-.93.67-1.85,1.34-2.76,2a2,2,0,0,1-1.17.45.29.29,0,0,0-.18.13c-.1.17-.17.35-.27.52A.62.62,0,1,1,23,30.21c.21-.4.39-.76.06-1.2a1.37,1.37,0,0,1-.13-.74c-.05-1.15-.08-2.29-.12-3.44a2,2,0,0,1,.22-1L31,7.38A3.24,3.24,0,0,1,35,5.64a3.46,3.46,0,0,1,2.6,2.93,3,3,0,0,1-.31,1.7l-.59,1.22.47.23c.17-.36.34-.69.5-1,.35-.71.83-.77,1.28-.14ZM29.69,13a1.31,1.31,0,0,1-.09.17q-2.66,5.49-5.32,11a.24.24,0,0,0,.06.33,6.19,6.19,0,0,0,3.5,1.72c.21,0,.29,0,.38-.2l4-8.17,1.42-2.92Zm.54-1.13,3.92,1.89c.68-1.4,1.35-2.78,2-4.17A1.42,1.42,0,0,0,36.31,9a2.17,2.17,0,0,0-1.44-2.1,2,2,0,0,0-2.63.84C31.55,9.13,30.91,10.5,30.23,11.89ZM24.12,26c0,.84.06,1.61.08,2.39,0,.19,0,.38.23.47A.48.48,0,0,0,25,28.7l1.75-1.28.14-.13A7.86,7.86,0,0,1,24.12,26Z"/><path class="cls-1" d="M9.48,30a6.13,6.13,0,0,1,.81-.87,1,1,0,0,1,.81-.2c.17.05.32.44.32.68,0,.94,0,1,.9.74,1.53-.42,3-.93,4.57-1.33a5.92,5.92,0,0,1,3.5.34c.21.08.31.49.46.75-.26.13-.58.44-.78.37a8.25,8.25,0,0,0-5.7.56,20.08,20.08,0,0,1-2,.63,1.61,1.61,0,0,1-1.94-.6.43.43,0,0,0-.15,0c-.39.39-.79.86-1.41.62s-.69-.93-.72-1.52A15.67,15.67,0,0,1,8.2,28.4a37.05,37.05,0,0,0-5,4.79l-.84,1c-.29.33-.63.47-1,.17s-.24-.69.06-1c1.72-1.75,3.38-3.56,5.18-5.22a37.7,37.7,0,0,1,3.7-2.79c.36-.26.84-.67,1.26-.17s0,.91-.39,1.26A5.65,5.65,0,0,0,9.45,29a7.55,7.55,0,0,0-.13.83Z"/></svg>