<svg id="Capa_1" data-name="Capa 1" xmlns="http://www.w3.org/2000/svg" viewBox="0 0 40 40"><defs><style>.cls-1{fill:#9b6e14;}</style></defs><path class="cls-1" d="M27,5.54s0,0,0,0A2.17,2.17,0,0,1,28.64,8v5.11c0,.11,0,.26-.05.33a.9.9,0,0,1-.43.25c-.2,0-.34-.13-.37-.35s0-.21,0-.31V7.86a1.29,1.29,0,0,0-1.47-1.47H12.19c-.21,0-.29.07-.29.29,0,1.16,0,2.32,0,3.47a1.42,1.42,0,0,1-.64,1.31,1.89,1.89,0,0,1-.92.27c-1.15,0-2.3,0-3.45,0H6.57c0,.14,0,.25,0,.35q0,10.1,0,20.17a1.25,1.25,0,0,0,1.33,1.34H26.44a1.27,1.27,0,0,0,1.34-1.3,5.28,5.28,0,0,1,0-.56.39.39,0,0,1,.41-.38.41.41,0,0,1,.43.33,2.28,2.28,0,0,1-1,2.46,2.21,2.21,0,0,1-1,.29H7.77a2.07,2.07,0,0,1-2.06-2c0-.14,0-.27,0-.4q0-9.88,0-19.76a2.65,2.65,0,0,1,.84-2C7.77,9.08,9,7.86,10.19,6.63a3.57,3.57,0,0,1,1.56-1.09ZM11,7.12,7.27,10.88h3.09c.39,0,.66-.2.66-.52C11,9.27,11,8.19,11,7.12Z"/><path class="cls-1" d="M25.25,28.62c0-.6,0-1.21,0-1.81,0-.17,0-.23-.22-.28A1.65,1.65,0,0,1,23.79,25a.88.88,0,0,0-.6-.83,1.68,1.68,0,0,1-1.07-1.36,1.52,1.52,0,0,1,.23-1.1,1,1,0,0,0,0-1.11,1.66,1.66,0,0,1,.79-2.44,1,1,0,0,0,.64-.9,1.67,1.67,0,0,1,2-1.5,1,1,0,0,0,1.11-.35,1.66,1.66,0,0,1,2.55,0,1,1,0,0,0,1.05.35,1.64,1.64,0,0,1,2.06,1.45,1.11,1.11,0,0,0,.72,1,1.65,1.65,0,0,1,.76,2.35,1.07,1.07,0,0,0,0,1.21,1.64,1.64,0,0,1-.76,2.35,1.1,1.1,0,0,0-.72,1,1.58,1.58,0,0,1-1.2,1.41c-.21.06-.23.16-.23.33v3.47a.89.89,0,0,1-.77,1,1.11,1.11,0,0,1-.66-.15c-.46-.24-.89-.52-1.33-.8a.3.3,0,0,0-.4,0c-.43.28-.88.54-1.32.82a.9.9,0,0,1-1,0,.93.93,0,0,1-.46-.88C25.26,29.77,25.25,29.19,25.25,28.62Zm8.21-8.83a.92.92,0,0,0-.59-.87,1.68,1.68,0,0,1-1.11-1.53.81.81,0,0,0-1.05-.78,1.77,1.77,0,0,1-1.85-.6.82.82,0,0,0-1.32,0,1.69,1.69,0,0,1-1.79.6.84.84,0,0,0-1.11.82,1.68,1.68,0,0,1-1.08,1.49.85.85,0,0,0-.42,1.33,1.68,1.68,0,0,1,0,1.79.86.86,0,0,0,.45,1.37,1.63,1.63,0,0,1,1,1.45.86.86,0,0,0,1.13.84,1.68,1.68,0,0,1,1.77.58.82.82,0,0,0,1.34,0,1.72,1.72,0,0,1,1.8-.59.83.83,0,0,0,1.09-.8,1.69,1.69,0,0,1,1.1-1.51.84.84,0,0,0,.43-1.29,1.73,1.73,0,0,1,0-1.89A2.62,2.62,0,0,0,33.46,19.79ZM26.12,26.5v4l.29-.15,1.29-.8a.91.91,0,0,1,1,0l1,.62.57.34v-4a.83.83,0,0,0-.69.29,3.57,3.57,0,0,1-.27.28,1.68,1.68,0,0,1-2.38-.17A1,1,0,0,0,26.12,26.5Z"/><path class="cls-1" d="M15.32,9.34v1.54H16c.36,0,.55.17.54.44s-.2.42-.55.43h-.53a1,1,0,0,1-1-1q0-.67,0-1.35a.93.93,0,0,1,1-1H24a.93.93,0,0,1,1,1c0,.42,0,.85,0,1.27a1,1,0,0,1-1,1H18.21c-.33,0-.52-.16-.52-.42s.17-.45.52-.45H23.8l.38,0c0-.48,0-.93,0-1.38,0-.05-.1-.11-.16-.16H15.57Z"/><path class="cls-1" d="M14.72,15.78h5.22c.12,0,.27,0,.35.05s.27.24.27.37a.74.74,0,0,1-.26.4c-.07.07-.22,0-.33,0q-5.23,0-10.47,0a1.23,1.23,0,0,1-.27,0,.42.42,0,0,1,0-.83,1.51,1.51,0,0,1,.3,0Z"/><path class="cls-1" d="M14.75,25.58H9.53a1.08,1.08,0,0,1-.31,0,.4.4,0,0,1-.33-.43.39.39,0,0,1,.36-.4,1.56,1.56,0,0,1,.31,0H20.13a.44.44,0,0,1,.45.45.43.43,0,0,1-.47.42c-.56,0-1.13,0-1.69,0Z"/><path class="cls-1" d="M14.73,19.62H9.28a.41.41,0,0,1-.4-.4.43.43,0,0,1,.39-.44.87.87,0,0,1,.23,0H20.2a.42.42,0,0,1,.38.44.39.39,0,0,1-.4.4H14.73Z"/><path class="cls-1" d="M14.73,22.6H9.51a1,1,0,0,1-.25,0,.4.4,0,0,1-.37-.43.39.39,0,0,1,.38-.41h10.9a.41.41,0,0,1,.41.41.42.42,0,0,1-.42.43H14.73Z"/><path class="cls-1" d="M12,29.94c-.88,0-1.77,0-2.65,0A.67.67,0,0,1,9,29.69a.41.41,0,0,1,0-.4.48.48,0,0,1,.37-.2h5.38a.43.43,0,0,1,.46.43.45.45,0,0,1-.47.43Z"/><path class="cls-1" d="M28.2,24.71a3.56,3.56,0,1,1,3.55-3.54A3.54,3.54,0,0,1,28.2,24.71Zm-2.68-3.55a2.69,2.69,0,1,0,2.67-2.69A2.67,2.67,0,0,0,25.52,21.16Z"/></svg>