<svg id="Capa_1" data-name="Capa 1" xmlns="http://www.w3.org/2000/svg" viewBox="0 0 40 40"><defs><style>.cls-1{fill:#9b6e14;}</style></defs><path class="cls-1" d="M23.12,34.28c-.19-.14-.34-.3-.25-.56s.31-.29.55-.28c.59,0,1.19,0,1.8,0V29.15l-.46.23a.6.6,0,0,1-1-.58c0-1.71,0-3.42,0-5.13v-.31a5.33,5.33,0,0,0-.54-.07.66.66,0,0,1-.62-.43,1.19,1.19,0,0,1-.08-.2A3.75,3.75,0,0,0,21,20.52a.75.75,0,0,1-.31-.92c.06-.18.07-.37.13-.54a2.28,2.28,0,0,0-.06-1.79H11.1c-.35,0-.54-.15-.53-.43a.39.39,0,0,1,.37-.41h9.64l0-.05a3.92,3.92,0,0,1,.57-.58,3.41,3.41,0,0,0,1.39-1.94.88.88,0,0,1,1-.74A8.3,8.3,0,0,0,24.58,13a1.37,1.37,0,0,0,.29-.07.54.54,0,0,0,.38-.62c0-.47,0-.94,0-1.43H21.42c0,.09,0,.16,0,.23a.62.62,0,0,1-.68.67h-4c-.33,0-.5-.16-.49-.43s.18-.41.49-.41h3.84c0-.07,0-.13,0-.19V8.71a.42.42,0,0,0-.48-.48H13.7c-.32,0-.48.14-.49.44,0,.75,0,1.51,0,2.3h1.2a1.79,1.79,0,0,1,.33,0,.39.39,0,0,1,.35.43.37.37,0,0,1-.36.39c-.61,0-1.21,0-1.81,0a.6.6,0,0,1-.55-.58c0-.09,0-.2,0-.31H8.55V24.7a2.11,2.11,0,0,1,0,.36.42.42,0,0,1-.82,0,1.46,1.46,0,0,1,0-.3V10.88c0-.59.25-.85.84-.85h.82V9.17c0-.54.24-.79.78-.79s1.34,0,2,0a.3.3,0,0,0,.33-.21,1.19,1.19,0,0,1,1.19-.79H15.2A1.8,1.8,0,0,1,16,6a1.71,1.71,0,0,1,1-.22q1.16.1,1.5,1.65H20a1.29,1.29,0,0,1,1.35.86.37.37,0,0,0,.28.13H25.7c.41,0,.82,0,1.23,0,.57,0,.81.25.81.82,0,1.09,0,2.19,0,3.29a.52.52,0,0,0,.51.54l1.39.11a.69.69,0,0,1,.64.45,3.56,3.56,0,0,1,.17.41,3.07,3.07,0,0,0,1.31,1.77,1.81,1.81,0,0,1,.33.29.57.57,0,0,1,.18.63,4.41,4.41,0,0,0,0,3.06.61.61,0,0,1-.24.69c-.33.28-.67.56-1,.86a1,1,0,0,0-.26.35c-.16.36-.32.73-.46,1.1a.73.73,0,0,1-.74.55,4.49,4.49,0,0,0-.46.06v1.26a.47.47,0,0,1-.29.49c-.29.11-.56-.11-.57-.46s0-.81,0-1.28l-.29.15-1.09.67a.71.71,0,0,1-.85,0L25,23.55l-.32-.18v5.1c.45-.23.89-.44,1.31-.69a.86.86,0,0,1,1,0c.41.24.85.45,1.31.69V26.76a.46.46,0,0,1,.34-.51.41.41,0,0,1,.52.41c0,.75,0,1.51,0,2.26a.59.59,0,0,1-.9.49l-.47-.24v1.74c0,.32,0,.63,0,.95a.68.68,0,0,1-.75.76h-.84l-.07,0c0,.22,0,.47,0,.7a.85.85,0,0,1-.45.91ZM26.45,13l-.17.1-1,.62a1.12,1.12,0,0,1-.38.15c-.42.05-.83.09-1.25.1a.32.32,0,0,0-.35.27,3.75,3.75,0,0,1-1.59,2.19.35.35,0,0,0-.15.45,3.32,3.32,0,0,1,.13,2.22c-.07.15-.07.33-.13.48a.35.35,0,0,0,.14.45,3.66,3.66,0,0,1,1.44,1.75c.22.73.28.72,1.07.74a2.33,2.33,0,0,1,1.46.44c.19.16.43.26.63.4a.26.26,0,0,0,.35,0c.34-.22.69-.43,1-.63a1.24,1.24,0,0,1,.42-.15c.39,0,.79-.08,1.19-.09a.36.36,0,0,0,.37-.29,3.61,3.61,0,0,1,1.51-2.12c.05,0,.12-.07.14-.13a.41.41,0,0,0,.08-.27c-.07-.38-.18-.76-.26-1.14a1.73,1.73,0,0,1,0-.6,6.83,6.83,0,0,1,.25-1,.42.42,0,0,0-.19-.56,3.38,3.38,0,0,1-1.48-2,.48.48,0,0,0-.56-.42,2.27,2.27,0,0,1-.45,0,2.27,2.27,0,0,1-1.4-.42,5.59,5.59,0,0,0-.66-.41Zm.42-3.73H21.42V10h3.79c.63,0,.87.24.87.85v1.26h.79Zm0,22.5c0-1,0-2,0-2.92,0-.13-.32-.38-.44-.33s-.37.09-.37.37c0,.89,0,1.78,0,2.67a1.49,1.49,0,0,0,0,.21ZM12.36,9.25H10.21V10h2.15Zm3.74-1.9h1.58a.81.81,0,0,0-.83-.78A.8.8,0,0,0,16.1,7.35Z"/><path class="cls-1" d="M12.7,34.28a3.48,3.48,0,0,1-1.22-.93c-1.07-1.08-2.13-2.15-3.21-3.21a1.87,1.87,0,0,1-.59-1.42c0-.57,0-1.13,0-1.7,0-.35.23-.56.52-.49a.45.45,0,0,1,.34.51v1.9h3.77c.6,0,.7.11.7.69v3.8h8.1c.24,0,.47,0,.59.25s-.05.42-.2.59Zm-.56-1.56V29.83H9.25Z"/><path class="cls-1" d="M18.33,30.14c0,.2,0,.38-.06.57a1.4,1.4,0,0,1-2.78-.15c0-.28,0-.44-.36-.53a.7.7,0,0,1-.46-.72q0-.45,0-.9a.81.81,0,0,1,.32-.65A.48.48,0,0,0,15,27a1.6,1.6,0,0,0-.25-.18,4,4,0,1,1,6.07-4,3.91,3.91,0,0,1-1.89,4,.64.64,0,0,0-.36.55.35.35,0,0,0,.17.34.74.74,0,0,1,.34.66c0,.25,0,.49,0,.73A.85.85,0,0,1,18.33,30.14ZM16,27.58h1.67c.12-.93.18-1,.94-1.53a3.15,3.15,0,1,0-4.83-3.33,3.08,3.08,0,0,0,1.34,3.34A1.64,1.64,0,0,1,16,27.58Zm-.5,1.67h2.69v-.79H15.54Zm.79.89c0,.33,0,.63.28.8a.53.53,0,0,0,.62,0,.69.69,0,0,0,.19-.76Z"/><path class="cls-1" d="M16.87,15H15.09c-.32,0-.52-.16-.52-.42s.18-.42.51-.42H18.7c.32,0,.52.17.51.43a.44.44,0,0,1-.5.41Z"/><path class="cls-1" d="M29.61,18.21a3.16,3.16,0,1,1-3.16-3.15A3.17,3.17,0,0,1,29.61,18.21Zm-3.16,2.31a2.3,2.3,0,1,0-2.29-2.31A2.29,2.29,0,0,0,26.45,20.52Z"/><path class="cls-1" d="M16.89,24.24c.29-.31.54-.58.8-.84a.44.44,0,0,1,.64-.06.44.44,0,0,1,0,.66c-.27.28-.56.54-.82.83a.58.58,0,0,0-.14.34c0,.25,0,.51,0,.77a.44.44,0,0,1-.43.48c-.26,0-.41-.16-.43-.45a.4.4,0,0,1,0-.11,1.49,1.49,0,0,0-.65-1.55,2.73,2.73,0,0,1-.38-.38.4.4,0,0,1,0-.57.4.4,0,0,1,.59,0C16.31,23.62,16.58,23.91,16.89,24.24Z"/></svg>