<svg id="Capa_1" data-name="Capa 1" xmlns="http://www.w3.org/2000/svg" viewBox="0 0 40 40"><defs><style>.cls-1{fill:#9b6e14;}</style></defs><path class="cls-1" d="M4.77,31.19V5.54a1.32,1.32,0,0,1,.77-.78h18c.75.32.82,1,.76,1.67.5,0,1-.06,1.36.3S26,7.58,26,8h.54a1,1,0,0,1,1.12,1.1v2.15A3.24,3.24,0,0,1,30.39,14h2c.42,0,.54.09.68.48l2.13,5.86a1.05,1.05,0,0,1,.07.4,2.68,2.68,0,0,1-4.8,1.56A2.23,2.23,0,0,1,30.05,20c.41-1,.74-2,1.11-3l.75-2.06H28.59v9.79c.51,0,1,0,1.49,0A2.44,2.44,0,0,1,32.48,27a.47.47,0,0,1-.47.57c-.37,0-.73,0-1.1,0a.45.45,0,0,1-.47-.47.47.47,0,0,1,.5-.45h.53a1.44,1.44,0,0,0-1.36-1.07c-1.91,0-3.81,0-5.71,0a1.4,1.4,0,0,0-1.34,1.07h5.36c.35,0,.54.17.55.45s-.19.46-.53.47-.49,0-.76,0v.33c0,.87,0,1.73,0,2.59a.82.82,0,0,1-.27.63q-2,1.92-3.88,3.86a.75.75,0,0,1-.58.24H9.24a1.05,1.05,0,0,1-1.13-1.1v-.48c-.5,0-1,.08-1.38-.32s-.27-.88-.31-1.38C5.71,32,5.07,32,4.77,31.19Zm17.85-16.3a2,2,0,0,0,.1.29l1.84,5.07a1.5,1.5,0,0,1,.09.46,2.68,2.68,0,0,1-4.77,1.6,2.28,2.28,0,0,1-.4-2.38c.69-1.77,1.31-3.56,2-5.34.21-.58.26-.62.88-.62h1.81a3.23,3.23,0,0,1,2.66-2.67v-2c0-.39,0-.4-.4-.4h-17c-.39,0-.39,0-.39.4V33.94c0,.4,0,.4.41.4H22.66V34c0-.88,0-1.76,0-2.64a1.05,1.05,0,0,1,1.16-1.16h2.95V27.59h-.38c-1.24,0-2.48,0-3.72,0-.51,0-.69-.22-.62-.73a2.47,2.47,0,0,1,2.55-2.17c.44,0,.88,0,1.33,0v-9.8Zm.77-8.46a2.06,2.06,0,0,0,0-.21c0-.65,0-.57-.55-.57H6.13c-.47,0-.47,0-.47.47V30.41c0,.68-.15.67.7.65,0,0,0,0,.08,0V14.61c0-.1,0-.2,0-.3a.42.42,0,0,1,.47-.39.4.4,0,0,1,.43.4c0,.11,0,.23,0,.35,0,5.8,0,11.61,0,17.41,0,.73-.13.67.69.65,0,0,0,0,.07,0v-.37q0-11.52,0-23A1.15,1.15,0,0,1,9.37,8c5.12,0,10.23,0,15.35,0h.35c.11-.67.08-.7-.54-.7H7.75c-.4,0-.4,0-.4.4,0,1.37,0,2.73,0,4.1a1.82,1.82,0,0,1,0,.33.44.44,0,0,1-.59.36.46.46,0,0,1-.3-.52V7.69c0-.86.39-1.26,1.25-1.26h15.7Zm4.25,18.24V14.9h-.77v9.77ZM22,15.89h-.08l-1.55,4.28h3.18Zm10.54-.11L31,20.17h3.18ZM29.42,14a2.2,2.2,0,0,0-4.32,0Zm-9.17,7.12a1.75,1.75,0,0,0,1.93,1.31,1.67,1.67,0,0,0,1.48-1.31Zm10.6,0a1.71,1.71,0,0,0,1.86,1.31,1.63,1.63,0,0,0,1.52-1.31ZM23.57,33.54l2.48-2.43c-.77,0-1.53,0-2.28,0-.07,0-.19.14-.19.21C23.56,32.08,23.57,32.84,23.57,33.54Z"/><path class="cls-1" d="M15.77,13.68c-1.22,0-2.43,0-3.65,0a.7.7,0,0,1-.49-.24.47.47,0,0,1,0-.46.7.7,0,0,1,.48-.2c.83,0,1.65,0,2.47,0h4.82c.37,0,.54.12.58.38s-.16.54-.54.54Z"/><path class="cls-1" d="M15.67,31H12.13c-.28,0-.49-.08-.55-.38a.43.43,0,0,1,.33-.52l.18,0h7.17c.34,0,.51.15.52.43s-.18.49-.57.49Z"/><path class="cls-1" d="M15.72,27.53h-3.6c-.44,0-.67-.33-.49-.68s.31-.24.53-.24h7.1a1.46,1.46,0,0,1,.3,0,.42.42,0,0,1,.32.47.4.4,0,0,1-.36.41l-.3,0Z"/><path class="cls-1" d="M15.12,16.23h3c.36,0,.57.22.52.52s-.21.39-.54.39h-6c-.32,0-.51-.17-.51-.45s.18-.45.5-.45h3.06Z"/><path class="cls-1" d="M14.68,23.15h2.49c.36,0,.53.15.54.44s-.17.45-.53.45c-1.7,0-3.39,0-5.08,0-.49,0-.66-.44-.47-.68a.67.67,0,0,1,.46-.22c.86,0,1.73,0,2.59,0Z"/><path class="cls-1" d="M14.59,20.59h-2.5c-.34,0-.54-.16-.53-.45s.19-.44.54-.44h5c.36,0,.54.15.55.43s-.18.46-.55.46Z"/></svg>