<svg id="Capa_1" data-name="Capa 1" xmlns="http://www.w3.org/2000/svg" viewBox="0 0 40 40"><defs><style>.cls-1{fill:#9b6e14;}</style></defs><path class="cls-1" d="M36.33,10.17c-.15.54-.26,1.09-.45,1.61-.33.85-.7,1.69-1.07,2.52a.48.48,0,0,1-.7.29.51.51,0,0,1-.17-.72c.37-.86.75-1.73,1.08-2.61a7.29,7.29,0,0,0,.33-1.32.69.69,0,0,0-.88-.78,10.19,10.19,0,0,0-1.32.33,14.24,14.24,0,0,0-9.18,9s0,.08,0,.12l.09.08a1.27,1.27,0,0,1,.18-.27l6.27-6.28A1.38,1.38,0,0,1,32,11.67a1.31,1.31,0,0,1,.69,2,3.07,3.07,0,0,1-.34.38l-6.2,6.2c-.08.08-.2.13-.25.24a10.77,10.77,0,0,0,3.06-1.35,14.59,14.59,0,0,0,3.87-3.52,1.56,1.56,0,0,1,.16-.2.48.48,0,0,1,.66-.06.46.46,0,0,1,.08.66,6.55,6.55,0,0,1-.78,1c-.85.81-1.74,1.59-2.6,2.39a.6.6,0,0,0-.22.38c0,3.19,0,6.38,0,9.57,0,0,0,.08,0,.17h3.36c.54,0,.71.17.71.7a5.24,5.24,0,0,1-.3,2.29,3.45,3.45,0,0,1-3.24,2.09c-1.47,0-2.95,0-4.43,0H13.27a3.49,3.49,0,0,1-3.5-2.73,4.71,4.71,0,0,1-.1-.92V25.53a1.13,1.13,0,0,1,.06-.41.47.47,0,0,1,.89.08,2.73,2.73,0,0,1,0,.41c0,1.76,0,3.53,0,5.29a2.52,2.52,0,0,0,1.41,2.45,2.48,2.48,0,0,0,3.61-2c0-.38,0-.76,0-1.15,0-.56.16-.71.72-.71H29.05V20.23l-.46.24a13.2,13.2,0,0,1-3.75,1.37,1.26,1.26,0,0,0-.65.35c-.65.67-1.3,1.32-2,2A1.31,1.31,0,0,1,20,23.65a1.35,1.35,0,0,1,.38-1.4c.67-.66,1.35-1.33,2-2a2.66,2.66,0,0,0,.33-.57l-.08-.09H14.27l-.38,0a.43.43,0,0,1-.42-.44.45.45,0,0,1,.37-.49,1.58,1.58,0,0,1,.38,0h8.67l.51-1.42H14.24a2.81,2.81,0,0,1-.29,0,.48.48,0,0,1-.48-.5.45.45,0,0,1,.46-.47H23.5a.52.52,0,0,0,.55-.32c.17-.37.4-.72.63-1.12H14.2a1.69,1.69,0,0,1-.32,0,.45.45,0,0,1-.41-.49.44.44,0,0,1,.41-.45,1.61,1.61,0,0,1,.31,0H25.07a.59.59,0,0,0,.51-.24,14.9,14.9,0,0,1,3.23-3,.54.54,0,0,0,.27-.52A11.88,11.88,0,0,0,29,8.36a2.45,2.45,0,0,0-2.52-2H9.61l.24.29A3.69,3.69,0,0,1,10.65,9V23.18a2.64,2.64,0,0,1,0,.28.44.44,0,0,1-.43.4.43.43,0,0,1-.48-.33,1.65,1.65,0,0,1-.05-.44V10.45H4.39c-.6,0-.74-.12-.72-.73A9.15,9.15,0,0,1,3.8,8,3.4,3.4,0,0,1,7.13,5.39H26.46a3.49,3.49,0,0,1,3.6,3.54c0,.25,0,.5,0,.82l.3-.14a14.9,14.9,0,0,1,3.78-1.38,1.7,1.7,0,0,1,2.14,1.2s0,0,0,0ZM33.15,30.53H16.66a3.73,3.73,0,0,1-1.07,3.09H16c4.81,0,9.63,0,14.45,0a3.52,3.52,0,0,0,.79-.07A2.58,2.58,0,0,0,33.15,30.53ZM4.63,9.45h5A2.63,2.63,0,0,0,8.51,6.78a2.35,2.35,0,0,0-2.7,0A2.68,2.68,0,0,0,4.63,9.45ZM20.83,23.3c.1.11.16.23.25.28.25.14.4,0,.55-.2l10.05-10c.06-.06.16-.12.16-.19s0-.36,0-.44-.3-.06-.45,0-.16.14-.23.21L21.49,22.5c-.15.15-.31.29-.45.45A2.15,2.15,0,0,0,20.83,23.3Z"/><path class="cls-1" d="M24.78,27.53H23c-.36,0-.58-.21-.57-.5s.22-.46.57-.46h3.59c.37,0,.58.18.57.49s-.21.46-.56.47Z"/></svg>