<svg id="Capa_1" data-name="Capa 1" xmlns="http://www.w3.org/2000/svg" viewBox="0 0 40 40"><defs><style>.cls-1{fill:#9b6e14;}</style></defs><path class="cls-1" d="M35.73,11.94a10.37,10.37,0,0,1-1.22,2.39c-.69,1.19-1.4,2.38-2.1,3.57a1.38,1.38,0,0,1-.17.25.42.42,0,0,1-.57.12.43.43,0,0,1-.21-.57,1.24,1.24,0,0,1,.16-.3l2.86-4.86a1.82,1.82,0,0,0,.09-1.92,1.29,1.29,0,0,0-.09-.16l-.1-.11-.18.29C32.81,13,31.41,15.36,30,17.73a1,1,0,0,1-1.14.63c-.07,0-.17.08-.22.15-.33.55-.64,1.1-1,1.64a.69.69,0,0,1-.35.31.64.64,0,0,1-.46-.15.41.41,0,0,1,0-.56l.92-1.56.18-.31-1.81-1.07L20.17,27c.57.34,1.12.67,1.68,1,0,0,.21-.07.26-.15.6-1,1.19-2,1.78-3s1.13-1.92,1.7-2.88a1.76,1.76,0,0,1,.14-.23.45.45,0,0,1,.63-.19.47.47,0,0,1,.16.67c-.25.45-.53.87-.77,1.33a1.74,1.74,0,0,0-.17.63c0,3,0,6,0,8.93a2,2,0,0,1-.21.88,1.16,1.16,0,0,1-1.13.54H5.77a2.68,2.68,0,0,1-.64-.06,1.14,1.14,0,0,1-.85-1.17v-10c0-5.28,0-10.57,0-15.85a1.7,1.7,0,0,1,1.8-1.79c2.51,0,5,0,7.55,0a1.42,1.42,0,0,1,.36,0,.41.41,0,0,1,.32.47.41.41,0,0,1-.38.41,2.55,2.55,0,0,1-.39,0H6.16c-.76,0-1,.2-1,1V33c0,.55,0,.55.55.55H24.11c.51,0,.51,0,.51-.52V25.51l-.05,0-.14.22-1.54,2.61a1,1,0,0,1-1,.64.38.38,0,0,0-.24.18c-.27.44-.52.89-.79,1.32a1.21,1.21,0,0,1-1.43.55,1.32,1.32,0,0,1-1-1.36,1.62,1.62,0,0,1,.21-.63c.23-.43.5-.84.73-1.27a.35.35,0,0,0,0-.3,1,1,0,0,1,0-1.05l.88-1.48H8.92a.42.42,0,0,1-.42-.41A.44.44,0,0,1,8.87,24a1.43,1.43,0,0,1,.36,0H20.5a.5.5,0,0,0,.5-.29l3.48-5.92a.84.84,0,0,0,.14-.39c0-1.53,0-3.06,0-4.58,0,0,0-.08,0-.16H20c-1,0-1.46-.44-1.46-1.46V6.56H16.36a3.17,3.17,0,0,1-.43,0,.42.42,0,0,1-.39-.4.41.41,0,0,1,.31-.47,1,1,0,0,1,.33,0h2.65a.85.85,0,0,1,.65.27q2.89,2.93,5.82,5.82a.89.89,0,0,1,.28.68c0,.63,0,1.25.05,1.9a2.82,2.82,0,0,0,.18-.29c1.4-2.36,2.79-4.73,4.19-7.1a2.42,2.42,0,0,1,2.49-1.34,2.92,2.92,0,0,1,2.68,2.87,5.39,5.39,0,0,1-.21.86c0,.09-.05.22,0,.27A3.57,3.57,0,0,1,35.73,11Zm-6.64,5.52L30,16l3.95-6.7a1.77,1.77,0,0,0,.3-1.16,1.79,1.79,0,0,0-.9-1.24,1.68,1.68,0,0,0-2.62.66c-.78,1.41-1.63,2.79-2.45,4.18s-1.53,2.6-2.31,3.92ZM19.53,7.32a.85.85,0,0,0,0,.17c0,1.29,0,2.58,0,3.87,0,.27.12.35.38.35H23.7l.2,0Zm.72,20.78c-.3.51-.59,1-.87,1.49-.12.23,0,.36.21.47a.33.33,0,0,0,.5-.11l.85-1.44Z"/><path class="cls-1" d="M14.9,15.87H9.19a1.46,1.46,0,0,1-.36,0,.42.42,0,0,1-.33-.46A.41.41,0,0,1,8.86,15a2,2,0,0,1,.34,0H20.74c.38,0,.6.17.61.46s-.22.48-.61.48Z"/><path class="cls-1" d="M14.91,18.88H9.17a1.17,1.17,0,0,1-.37,0,.42.42,0,0,1-.3-.47A.43.43,0,0,1,8.89,18H20.64c.48,0,.7.14.71.45s-.22.48-.7.48Z"/><path class="cls-1" d="M14.94,21h5.74A1.22,1.22,0,0,1,21,21a.46.46,0,0,1,0,.91H8.89a.46.46,0,0,1,0-.91,1.31,1.31,0,0,1,.28,0Z"/><path class="cls-1" d="M16.07,29l-.55.47a.82.82,0,0,1-1.21,0c-.46-.42-.92-.86-1.4-1.31l-1.66,1.43c-.37.31-.66.35-.86.11s-.12-.51.25-.82l1.68-1.44a.8.8,0,0,1,1.22,0c.46.42.91.85,1.39,1.3l.63-.53a.69.69,0,0,1,1,0c.34.25.67.51,1,.77s.32.47.15.69a.48.48,0,0,1-.73,0C16.66,29.47,16.38,29.25,16.07,29Z"/></svg>