<svg id="Capa_1" data-name="Capa 1" xmlns="http://www.w3.org/2000/svg" viewBox="0 0 40 40"><defs><style>.cls-1{fill:#9b6e14;}</style></defs><path class="cls-1" d="M31.12,27.45a6.93,6.93,0,0,1,1,0,2,2,0,0,1,1.66,1.72,2,2,0,0,1-1.27,2.17L28.29,33c-2.63,1-5.26,2-7.9,3a1.39,1.39,0,0,1-.73,0l-8.34-1.94a3.45,3.45,0,0,0-1.06,0c-.8.1-1.59.22-2.42.34,0,.2,0,.4,0,.59a.49.49,0,0,1-.52.52H4.15a.49.49,0,0,1-.53-.54c0-3.16,0-6.32,0-9.48A.5.5,0,0,1,4.18,25c1,0,2.05,0,3.07,0a.51.51,0,0,1,.59.58c0,.14,0,.29,0,.45h1V12.55a5.9,5.9,0,0,1-1,0A2,2,0,0,1,6.2,10.81,2,2,0,0,1,7.52,8.64l6.67-2.57C16,5.38,17.81,4.67,19.63,4a1.24,1.24,0,0,1,.66-.05c2.82.65,5.62,1.32,8.43,2a3.21,3.21,0,0,0,1.11,0c.77-.09,1.54-.22,2.33-.33,0-.21,0-.4,0-.58a.49.49,0,0,1,.51-.53h3.2c.34,0,.51.22.51.62v9.28c0,.49-.17.66-.65.66H32.89c-.59,0-.73-.14-.73-.74v-.3h-1ZM21.78,10.67c-.79-.32-1.5-.61-2.22-.88a.7.7,0,0,0-.38,0c-3,.78-5.94,1.56-8.92,2.32-.27.07-.31.18-.31.43q0,6.59,0,13.17v.35L11,26l4.48-.24c1.2-.06,2.4-.14,3.6-.17a2,2,0,0,1,1,.27,1.6,1.6,0,0,1,.77,1.73A1.63,1.63,0,0,1,19.56,29c-.42.13-.84.22-1.34.35l2.22.89a.71.71,0,0,0,.38,0l7.55-2L30,27.8V13.94l-2.75.13L21,14.4a1.62,1.62,0,0,1-1.43-.67A1.72,1.72,0,0,1,20.44,11C20.86,10.9,21.28,10.8,21.78,10.67ZM7.86,33.39l1.89-.27A5,5,0,0,1,11.28,33c2.8.62,5.58,1.29,8.37,1.94a1.22,1.22,0,0,0,.63,0L29,31.57l3.07-1.19a1,1,0,0,0,.62-1.29,1,1,0,0,0-1.27-.53L20.83,31.3a1.27,1.27,0,0,1-.67,0c-1-.39-2.07-.79-3.08-1.24A1.78,1.78,0,0,0,15.72,30a12.46,12.46,0,0,1-1.37.34.53.53,0,1,1-.28-1l.25-.07L19.11,28c.44-.11.67-.4.62-.76a.66.66,0,0,0-.79-.56l-4.19.2c-2.18.1-4.35.17-6.53.26H7.86ZM32.14,6.62l-1.88.27a4.54,4.54,0,0,1-1.5.11c-2.81-.61-5.6-1.3-8.4-1.94a1,1,0,0,0-.6,0c-1,.38-2.06.78-3.08,1.17L8,9.61a1.06,1.06,0,0,0-.67.59.91.91,0,0,0,.18,1,1,1,0,0,0,1.12.26Q13.9,10.06,19.2,8.7a1.13,1.13,0,0,1,.63,0c1.12.43,2.25.88,3.36,1.34a1.14,1.14,0,0,0,.79.06c.55-.16,1.1-.29,1.66-.43a.53.53,0,0,1,.65.3.48.48,0,0,1-.17.64,1.2,1.2,0,0,1-.37.15l-2.46.61-2.42.6a.69.69,0,0,0-.6.75.66.66,0,0,0,.75.57h.5c1.45-.08,2.9-.18,4.35-.24,2-.09,4.09-.14,6.13-.21l.14,0Zm1.1-1.14V13.9h2.07V5.48ZM4.7,26.09v8.42H6.77V26.09Z"/><path class="cls-1" d="M12.07,15.51v-2c0-.46.18-.63.65-.63h3.62a.74.74,0,0,0,.43-.17c.24-.21.45-.45.68-.67a.54.54,0,1,1,.75.76l0,0a2,2,0,0,0-.84,2c.07.88,0,1.78,0,2.67,0,.49-.17.66-.65.66h-4c-.48,0-.65-.17-.65-.66Zm1.08-.85v2.41h3.12V14.68l-1.06,1.09c-.37.38-.62.38-1,0Zm1.54,0,.74-.75H14Z"/><path class="cls-1" d="M20,20.27H12a.5.5,0,0,1-.43-.54.49.49,0,0,1,.43-.5.87.87,0,0,1,.23,0H28a.52.52,0,0,1,.5.51.51.51,0,0,1-.51.54c-.34,0-.68,0-1,0Z"/><path class="cls-1" d="M20,21.32h7.82a.57.57,0,0,1,.61.35.53.53,0,0,1-.44.71,1.34,1.34,0,0,1-.2,0H12.21c-.39,0-.6-.13-.66-.41a.52.52,0,0,1,.53-.64H20Z"/><path class="cls-1" d="M20,24.49H12.28c-.1,0-.2,0-.3,0a.51.51,0,0,1-.43-.54.49.49,0,0,1,.43-.5,1.11,1.11,0,0,1,.26,0H27.76a1.13,1.13,0,0,1,.26,0,.48.48,0,0,1,.43.5.5.5,0,0,1-.43.54,2.8,2.8,0,0,1-.29,0Z"/><path class="cls-1" d="M23.47,16h4.42a.51.51,0,0,1,.56.45.5.5,0,0,1-.34.57.7.7,0,0,1-.29,0c-2.93,0-5.85,0-8.78,0-.4,0-.62-.18-.62-.51s.21-.54.63-.54Z"/><path class="cls-1" d="M24.21,26.41a.65.65,0,0,1,1-.19,2.65,2.65,0,0,0,1.69.4,9.91,9.91,0,0,1,1.09,0,.51.51,0,0,1,.51.54.5.5,0,0,1-.5.51c-.72,0-1.45,0-2.17,0a3.27,3.27,0,0,1-.94-.37,2.66,2.66,0,0,1-.24.23.52.52,0,0,1-.77,0c-.22-.21-.43-.43-.69-.7-.22.24-.4.46-.6.66a.54.54,0,1,1-.77-.74c.32-.34.65-.66,1-1a.53.53,0,0,1,.82,0C23.79,25.94,24,26.16,24.21,26.41Z"/></svg>