<svg id="Capa_1" data-name="Capa 1" xmlns="http://www.w3.org/2000/svg" viewBox="0 0 40 40"><defs><style>.cls-1{fill:#9b6e14;}</style></defs><path class="cls-1" d="M17.42,5.57a3.61,3.61,0,0,1,1.44,1.06l3.72,3.72A2.12,2.12,0,0,1,23.26,12c0,2.47,0,3.4,0,5.87a1.22,1.22,0,0,1,0,.27.42.42,0,0,1-.46.39.41.41,0,0,1-.44-.38,1.93,1.93,0,0,1,0-.34V11.7h-.82a21.13,21.13,0,0,1-2.39-.06,2.27,2.27,0,0,1-2-2.3c0-.83,0-1.66,0-2.49V6.49H3.46A1.43,1.43,0,0,0,1.87,8.08V31.89a1.43,1.43,0,0,0,1.59,1.6H7.77a1.83,1.83,0,0,1,.33,0,.41.41,0,0,1,.4.45c0,.27-.16.4-.41.46H3.42A2.33,2.33,0,0,1,.94,32q0-12,0-24A2.29,2.29,0,0,1,2.77,5.63s0,0,.07-.06Zm.67,1.67a.69.69,0,0,0,0,.13c0,.67,0,1.35,0,2a1.35,1.35,0,0,0,1.38,1.35H21.4l.18,0Z"/><path class="cls-1" d="M12.11,17.67H4.61a.46.46,0,0,1,0-.91H19.36a1.2,1.2,0,0,1,.27,0,.45.45,0,0,1,.38.48.42.42,0,0,1-.4.42h-7.5Z"/><path class="cls-1" d="M12.08,14.87H4.82c-.12,0-.28,0-.35,0a.88.88,0,0,1-.27-.45.38.38,0,0,1,.38-.4,1.83,1.83,0,0,1,.33,0H19.3c.49,0,.72.15.72.46s-.24.47-.72.47Z"/><path class="cls-1" d="M8.36,11.7H4.84c-.12,0-.29,0-.37-.07a.6.6,0,0,1-.26-.42c0-.14.16-.31.29-.4a.78.78,0,0,1,.41-.05h6.92a1.83,1.83,0,0,1,.33,0,.44.44,0,0,1,.4.46.45.45,0,0,1-.44.46,1,1,0,0,1-.24,0Z"/><path class="cls-1" d="M7,34.43H20.82A2.34,2.34,0,0,0,23.26,32v-.37a1,1,0,0,0,0-.24.44.44,0,0,0-.45-.41.43.43,0,0,0-.46.4c0,.11,0,.22,0,.33,0,.27,0,.06,0,.25a1.42,1.42,0,0,1-1.59,1.59H7Z"/><path class="cls-1" d="M12.61,27.2c0-.24-.06-.49-.1-.73s-.11-.55-.16-.82l-.18-1.34c-.05-.32-.11-.64-.17-1a.26.26,0,0,0-.21-.25,3.66,3.66,0,0,0-.81,0c-.21,0-.28,0-.33.25a3.18,3.18,0,0,1-.1.52c-.09.27-.05.56-.15.83a2.7,2.7,0,0,0-.08.57c-.06.37-.13.74-.19,1.11L10,27.46c0,.25-.07.51-.11.76,0,0,0,.07,0,.11s0,.29-.06.43A.25.25,0,0,0,10,29a2.32,2.32,0,0,0,.38-.07.19.19,0,0,0,.17-.19c0-.22.06-.44.08-.65s.1-.33.33-.33h.55c.22,0,.3.05.34.28s0,.43.07.64,0,.25.18.25a2.44,2.44,0,0,1,.47,0c.18.05.26,0,.26-.18a5,5,0,0,0-.09-.66C12.72,27.8,12.66,27.5,12.61,27.2ZM11.52,27h-.43a.25.25,0,0,1-.26-.32c.05-.33.09-.67.14-1s.11-.62.16-.93,0-.32,0-.48a.39.39,0,0,1,.1-.16c0,.05.1.1.11.16q.07.39.12.78c.08.56.15,1.12.23,1.68A.29.29,0,0,1,11.52,27Z"/><path class="cls-1" d="M8.64,27.55c0-.44-.14-.89-.21-1.33l-.09-.48c-.05-.34-.1-.69-.16-1,0-.17-.07-.33-.1-.5s-.08-.62-.14-.93a.23.23,0,0,0-.17-.15,3.35,3.35,0,0,0-.55,0H6.85a.26.26,0,0,0-.25.24,1.7,1.7,0,0,1-.06.31c0,.1,0,.19-.07.29,0,.28-.07.56-.12.85s-.06.43-.1.65-.09.66-.14,1-.14.8-.2,1.19-.12.68-.17,1a.26.26,0,0,0,0,.15.37.37,0,0,0,.42.23c.27,0,.37-.12.39-.34s0-.36,0-.53.09-.35.4-.35l.49,0a.34.34,0,0,1,.33.25,3.89,3.89,0,0,1,0,.47c0,.41.09.49.48.49h.22c.17,0,.29-.13.26-.27C8.76,28.32,8.67,27.94,8.64,27.55Zm-1-.85c0,.32-.08.39-.41.34A2.62,2.62,0,0,1,7,27a.21.21,0,0,1-.17-.29A8.79,8.79,0,0,0,7,25.39c.06-.33.09-.66.14-1a.21.21,0,0,1,0-.1.93.93,0,0,1,.1-.1c0,.05.11.09.11.13.07.56.12,1.11.18,1.67,0,.21.07.42.11.63h0Z"/><path class="cls-1" d="M16.74,27.57c0-.32-.11-.63-.16-.95l-.21-1.39c0-.2-.07-.4-.1-.56a1.05,1.05,0,0,0,0-.18c0-.35-.16-.69-.18-1.06a.38.38,0,0,0-.47-.4,1.92,1.92,0,0,1-.63,0c-.21,0-.24.09-.28.2a3,3,0,0,0-.06.42c-.05.31-.11.62-.16.92s-.13.81-.19,1.22c0,.07,0,.14,0,.22l-.18,1.13c0,.23-.1.47-.12.71a3,3,0,0,0-.1.9c0,.16.11.23.28.19l.18,0a.22.22,0,0,0,.28-.18c0-.27.09-.53.13-.8a.19.19,0,0,1,.22-.2h.67a.25.25,0,0,1,.28.25c0,.23.05.46.1.68s.08.22.14.23a2.18,2.18,0,0,0,.57,0,.19.19,0,0,0,.19-.25C16.87,28.31,16.8,27.94,16.74,27.57ZM15.52,27h-.2c-.3,0-.41-.05-.43-.21a1.1,1.1,0,0,1,0-.31l.12-1,.12-.82c0-.14,0-.29.06-.42s.07-.09.11-.13.1.08.11.13q.08.39.12.78a6.7,6.7,0,0,0,.11.9c.06.26,0,.52.1.78S15.72,27,15.52,27Z"/><path class="cls-1" d="M20.86,28.15c0-.18,0-.36-.06-.54-.06-.51-.14-1-.21-1.52a12,12,0,0,1-.19-1.2,7.06,7.06,0,0,0-.15-.92c0-.18-.08-.36-.1-.54S20,23,19.74,23a5.09,5.09,0,0,1-.55,0,.4.4,0,0,0-.47.41,4.92,4.92,0,0,1-.09.86,7.4,7.4,0,0,1-.13.8s0,.08,0,.12c0,.21-.08.42-.11.63s0,.39-.06.59-.13.65-.19,1a2.66,2.66,0,0,1,0,.28A1.15,1.15,0,0,1,18,28c-.08.2,0,.43-.11.63s.06.29.21.32a1,1,0,0,1,.17,0c.37,0,.4-.08.43-.36s0-.32.05-.49.11-.32.35-.32a3.62,3.62,0,0,0,.57,0,.2.2,0,0,1,.27.15,4.35,4.35,0,0,1,.1.52.34.34,0,0,1,0,.1c0,.39.07.43.45.42a.64.64,0,0,0,.24,0c.08,0,.21-.1.21-.17a3.05,3.05,0,0,0-.05-.52S20.86,28.18,20.86,28.15Zm-1.36-1.1-.26,0c-.23,0-.3-.11-.27-.35.05-.4.09-.81.14-1.21,0-.23.08-.46.12-.69s0-.32.06-.47.08-.13.13-.19.14.12.16.2,0,.39.05.59.05.29.07.43h0c0,.22,0,.44.08.65s.08.53.11.8S19.65,27.07,19.5,27.05Z"/><path class="cls-1" d="M34.61,26.4a.54.54,0,0,0,0-.22,1.05,1.05,0,0,0-.72-.83.17.17,0,0,1-.08-.31l.46-.47a1.57,1.57,0,0,0,.33-.49,2.72,2.72,0,0,0,0-.7.38.38,0,0,0-.42-.35,4,4,0,0,1-.49,0c-.28,0-.56,0-.84,0s-.63,0-.95,0c-.07,0-.15.11-.19.19s0,.16,0,.25,0,.28.25.29h.62c.27,0,.54,0,.81,0a.55.55,0,0,1,.29.17c.08.1,0,.18-.08.25s-.26.26-.38.4l-.77.88a.33.33,0,0,0-.08.35c.07.14.21.16.36.16a1.53,1.53,0,0,1,.37,0c.2,0,.42,0,.54.26a1.82,1.82,0,0,1,.14.86,4.76,4.76,0,0,1-.11.62.33.33,0,0,1-.28.29,1,1,0,0,1-.38,0,.36.36,0,0,1-.38-.37,1,1,0,0,0,0-.17c0-.19-.1-.27-.29-.27a2.06,2.06,0,0,0-.43,0c-.06,0-.16,0-.15.14s0,.41,0,.62a.73.73,0,0,0,.24.57A1.54,1.54,0,0,0,33.1,29l.35-.05a1.15,1.15,0,0,0,1.08-.83,2.8,2.8,0,0,0,.06-1.57S34.61,26.43,34.61,26.4Z"/><path class="cls-1" d="M30.42,28.11c-.14,0-.27,0-.41,0-.32,0-.64,0-1,0-.13,0-.26-.17-.2-.26s.29-.4.43-.61a9.82,9.82,0,0,0,1.08-1.68,2.43,2.43,0,0,0,.07-1.87,1,1,0,0,0-.91-.65,2.42,2.42,0,0,0-1.13.12.83.83,0,0,0-.62.68,4,4,0,0,0,0,.69.24.24,0,0,0,.16.18.93.93,0,0,0,.37,0c.22,0,.27-.1.29-.32v-.18a.4.4,0,0,1,.35-.37h.33a.43.43,0,0,1,.42.33.91.91,0,0,1,0,.49,2.8,2.8,0,0,1-.2.73,9.91,9.91,0,0,1-.67,1.06c-.34.39-.61.84-.93,1.24a1.42,1.42,0,0,0-.28.9c0,.22.13.33.36.33h2.31c.21,0,.28-.05.31-.24a1.14,1.14,0,0,0,0-.41A.18.18,0,0,0,30.42,28.11Z"/><path class="cls-1" d="M26.28,28.07c-.23,0-.33-.07-.33-.3s0-.49,0-.74c0-.58,0-1.15,0-1.73s0-1.38,0-2.08c0-.12-.05-.19-.19-.19s-.53,0-.79,0a.4.4,0,0,0-.21.09c-.15.16-.29.33-.43.5a.91.91,0,0,1-.58.43.16.16,0,0,0-.15.2c0,.15,0,.31,0,.46a.22.22,0,0,0,.29.22s.06,0,.08,0c.27.12.39-.07.51-.25l.3-.39a.68.68,0,0,1,.17-.09,1.16,1.16,0,0,1,0,.18c0,.57,0,1.14,0,1.71v1.76c0,.11,0,.22-.14.23a6.54,6.54,0,0,1-.77,0c-.39,0-.51,0-.53.43v0c0,.31.08.39.38.39s.63,0,.95,0l1.36,0a.24.24,0,0,0,.27-.24,2.8,2.8,0,0,0,0-.41A.22.22,0,0,0,26.28,28.07Z"/><path class="cls-1" d="M36.38,27.55h-.46c-.15,0-.3,0-.46,0s-.14.06-.14.09c0,.33,0,.65,0,1,0,0,.1.12.15.12.28,0,.56,0,.84,0s.21,0,.21-.2,0-.55,0-.83C36.53,27.59,36.49,27.55,36.38,27.55Z"/><path class="cls-1" d="M36.64,22.76a1.13,1.13,0,0,0-1.11,1.15A1.1,1.1,0,0,0,36.62,25a1.09,1.09,0,0,0,1.09-1.12A1.12,1.12,0,0,0,36.64,22.76Zm0,2.09a1,1,0,0,1-.88-.94.91.91,0,1,1,.88.94Z"/><path class="cls-1" d="M35.58,27.48h.48a.58.58,0,0,0,.21,0c.07,0,.2,0,.17-.14s-.11-.11-.19-.11c-.27,0-.53,0-.8.05-.06,0-.11.07-.17.1a.91.91,0,0,0,.16.11A.32.32,0,0,0,35.58,27.48Z"/><path class="cls-1" d="M36.94,20.16H36c-.18,0-.22.05-.23.24a.34.34,0,0,1,0,.1c-.08.17,0,.19.14.19h.94c.32,0,.65,0,1,0s.22,0,.22-.26-.05-.25-.23-.26Z"/><path class="cls-1" d="M37.84,21.21c-.31,0-.63,0-.94,0s-.65,0-1,0a.2.2,0,0,0-.15.05.36.36,0,0,0,.27.47h1.57a1.67,1.67,0,0,0,.32,0c.11,0,.16-.23.13-.4S37.93,21.21,37.84,21.21Z"/><path class="cls-1" d="M37,20.78a.28.28,0,0,0,0,.12.5.5,0,0,0,0,.17l.14-.13Z"/><path class="cls-1" d="M36.75,21a.75.75,0,0,0,.06.13l0,0a.84.84,0,0,1-.06-.14.66.66,0,0,1,0-.14A.48.48,0,0,0,36.75,21Z"/><path class="cls-1" d="M19,21c.1,0,.21-.14.26-.24s-.12-.22-.25-.23-.12.13-.14.22S18.83,21,19,21Z"/><path class="cls-1" d="M25.77,20.9s-.06,0-.09-.08l0,.09a1.91,1.91,0,0,1-.06.33c-.06.13,0,.15.08.14s.24,0,.16-.17A1.54,1.54,0,0,1,25.77,20.9Z"/><path class="cls-1" d="M20.72,20.79a.18.18,0,0,0,0,.09c0,.13,0,.25-.05.38s0,.12,0,.12a.61.61,0,0,0,.23,0s0-.07.06-.11l-.13-.44S20.74,20.81,20.72,20.79Z"/><path class="cls-1" d="M17.42,20.85a3.63,3.63,0,0,0-.1.45c0,.05.05.1.1.18.09-.07.19-.11.19-.14s-.08-.32-.12-.49Z"/><path class="cls-1" d="M15.72,21.06a.24.24,0,0,0,.29-.25c0-.12-.12-.27-.25-.25s-.13.17-.17.3S15.66,21.05,15.72,21.06Z"/><path class="cls-1" d="M37,23.49c-.07-.21-.26-.14-.4-.17s-.25,0-.25.18,0,.31,0,.46v.22c0,.41,0,.44.44.36.1,0,.24-.13.25-.22a6.4,6.4,0,0,0,0-.76S37,23.52,37,23.49Zm-.13.71c0,.11-.08.21-.19.17a.35.35,0,0,1-.19-.24,1.89,1.89,0,0,1,0-.47c0-.09,0-.15.13-.15s.19,0,.21.13a2.4,2.4,0,0,1,0,.28A2.46,2.46,0,0,0,36.84,24.2Z"/><path class="cls-1" d="M38.28,19.16H5a.79.79,0,0,0-.78.79v9.77a.78.78,0,0,0,.78.79H38.28a.78.78,0,0,0,.78-.79V20A.79.79,0,0,0,38.28,19.16Zm-.09,1.27c0,.33,0,.67,0,1s-.12.41-.39.39-.25,0-.38,0c-.42,0-.85,0-1.27,0-.15,0-.27,0-.35-.11a.3.3,0,0,1-.08-.17c0-.39,0-.78,0-1.17s.09-.34.35-.34h1.79A.39.39,0,0,1,38.19,20.43Zm-11,1.13c.09-.38-.23-.67-.36-1a2.33,2.33,0,0,1-.07-.25,1.71,1.71,0,0,1,.32,0s.08.07.1.12.09.2.14.29.06,0,.08.06a.56.56,0,0,0,.05-.08,1.48,1.48,0,0,1,.18-.38c.06-.06.21,0,.32,0a.29.29,0,0,1,0,.17,3.29,3.29,0,0,1-.26.61,1.24,1.24,0,0,0-.09.57,2.53,2.53,0,0,1,0,.28c0,.15-.1.19-.24.18s-.19-.06-.18-.19A3.22,3.22,0,0,0,27.17,21.56Zm-1,.51a.22.22,0,0,1-.25-.23c0-.15-.06-.16-.18-.16s-.21,0-.26,0-.06.17-.09.25a.22.22,0,0,1-.35.1.13.13,0,0,1,0-.12,2,2,0,0,1,.08-.33c.11-.39.23-.78.33-1.18,0-.12.08-.16.19-.15s.26-.07.3.14.13.46.19.69.14.54.21.81S26.37,22.08,26.2,22.07Zm-2.74-1.66c0-.09,0-.17.14-.14s.21,0,.21.22v.92a.57.57,0,0,0,0,.13c0,.11.12.22.23.21s.16-.11.2-.18a.51.51,0,0,0,.05-.25c0-.3,0-.61,0-.91,0-.14.05-.17.17-.16s.24,0,.23.17a5.61,5.61,0,0,0,0,.58c0,.16,0,.31,0,.46a.5.5,0,0,1-.26.52.68.68,0,0,1-.77,0,.45.45,0,0,1-.19-.4C23.48,21.17,23.46,20.79,23.46,20.41Zm-1.7.72a.77.77,0,0,1,.33-.71.73.73,0,0,1,.84-.07c.06,0,0,.21,0,.31s-.06,0-.07,0c-.19-.12-.38-.17-.55,0a.58.58,0,0,0-.2.59c0,.11.05.24.09.34a.3.3,0,0,0,.38.14c.05,0,.05-.14.06-.21s0-.14-.09-.13-.13-.07-.13-.16,0-.16.15-.12a.58.58,0,0,0,.32,0c.11,0,.14,0,.14.09a5.42,5.42,0,0,1,0,.57.25.25,0,0,1-.12.18.76.76,0,0,1-1.18-.68A.55.55,0,0,0,21.76,21.13Zm-.52.95c-.21,0-.22-.17-.25-.28s-.06-.13-.16-.12a.2.2,0,0,1-.11,0c-.16-.05-.21,0-.23.18s-.08.23-.25.22a.13.13,0,0,1-.13-.16c0-.05,0-.11,0-.16.12-.45.24-.89.35-1.33a.16.16,0,0,1,.18-.14c.27,0,.28,0,.34.23.12.46.23.92.36,1.37C21.43,22.07,21.33,22.06,21.24,22.08Zm-2.36-.61a3.2,3.2,0,0,1,0,.44c0,.18-.13.16-.26.17s-.14-.08-.14-.18q0-.7,0-1.41c0-.16,0-.22.21-.2a1.21,1.21,0,0,0,.19,0h0l.43.06a.3.3,0,0,1,.3.26c0,.17.08.39-.13.5s-.11.11-.06.22.19.44.28.66a.12.12,0,0,1,0,.09h-.29c-.15,0-.1-.14-.13-.21s-.1-.31-.17-.46a.23.23,0,0,0-.17-.1C18.83,21.32,18.87,21.4,18.88,21.47Zm-1,.6c-.13,0-.18-.05-.19-.18s-.06-.21-.21-.21-.3,0-.31.19c0,0,0,.12-.05.13a1.63,1.63,0,0,1-.3.07.52.52,0,0,1,0-.21c.1-.39.21-.77.32-1.16a1.29,1.29,0,0,0,.08-.26c0-.13.09-.15.2-.15s.27,0,.33.25l.24,1,.11.38C18.14,22.05,18.11,22.08,17.9,22.07Zm-2.28-.14c0,.11,0,.16-.14.15h-.2a.14.14,0,0,1-.06-.1v-.78h0v-.73c0-.08,0-.13.1-.14s.42,0,.64,0a.51.51,0,0,1,.43.48.52.52,0,0,1-.31.49,1,1,0,0,1-.3,0c-.13,0-.18.06-.17.19S15.61,21.79,15.62,21.93Zm22.66,8.13H5a.34.34,0,0,1-.34-.34V22.48l.13,0h4l3.72,0,3,0h2c.28,0,.57,0,.86,0q6.15,0,12.3,0c.66,0,1.33,0,2,0h5.6c.33,0,.38.05.36.37v.13h0v6.85A.34.34,0,0,1,38.28,30.06Z"/></svg>